<svg width="218" height="60" viewBox="0 0 218 60" fill="none" xmlns="http://www.w3.org/2000/svg">
<path d="M45.5625 14.9001C46.6027 13.7489 47.2421 12.2296 47.2421 10.5609C47.2421 6.98024 44.3237 4.06733 40.7369 4.06733C39.2556 4.06733 37.8927 4.56979 36.7979 5.40521C31.739 1.8685 25.8116 0 19.5917 0C18.8234 0 18.2003 0.62172 18.2003 1.38897C18.2003 2.15621 18.8231 2.7779 19.5917 2.7779C25.1479 2.7779 30.4475 4.41688 34.9893 7.52824C34.5076 8.4342 34.2321 9.4657 34.2321 10.5609C34.2321 14.1416 37.1504 17.0545 40.7372 17.0545C41.6448 17.0545 42.5089 16.8668 43.2946 16.5299C45.6316 20.6206 46.8629 25.2549 46.8629 30C46.8629 45.0104 34.6292 57.2224 19.592 57.2224C14.2212 57.2224 9.02516 55.6658 4.5656 52.7211C3.92434 52.2962 3.0616 52.4731 2.63734 53.1132C2.21335 53.7528 2.38922 54.6143 3.03022 55.0375C7.94646 58.2842 13.6735 60 19.5917 60C36.1635 60 49.6455 46.5417 49.6455 29.9997C49.645 24.6727 48.2343 19.471 45.5625 14.9001ZM40.7367 14.2766C38.6842 14.2766 37.0144 12.61 37.0144 10.5606C37.0144 8.51132 38.6842 6.84468 40.7367 6.84468C42.7891 6.84468 44.459 8.51132 44.459 10.5606C44.459 12.61 42.7894 14.2766 40.7367 14.2766Z" fill="#797E88"/>
<path d="M19.5918 44.4508C27.5741 44.4508 34.0684 37.9686 34.0684 30.0003C34.0684 29.233 33.4454 28.6113 32.677 28.6113C31.9087 28.6113 31.2856 29.233 31.2856 30.0003C31.2856 36.4364 26.0398 41.6729 19.5918 41.6729C13.1439 41.6729 7.89807 36.4364 7.89807 30.0003C7.89807 29.233 7.27501 28.6113 6.50665 28.6113C5.7383 28.6113 5.11523 29.233 5.11523 30.0003C5.11523 37.9686 11.6093 44.4508 19.5918 44.4508Z" fill="#797E88"/>
<path d="M6.95994 25.3443C7.18855 25.3285 7.414 25.2993 7.63602 25.2585C8.5863 25.0832 9.56348 25.3014 10.3503 25.8526C11.2389 26.4753 11.6877 27.5866 11.5068 28.6555C11.3407 29.6375 11.3515 30.6803 11.5827 31.7529C12.3308 35.2245 15.1545 37.7592 18.6919 38.1354C23.9897 38.6986 28.4055 34.2188 27.7181 28.9089C27.2546 25.3269 24.5727 22.5341 21.0047 21.9358C19.8479 21.7421 18.7281 21.7916 17.6863 22.0411C16.0141 22.4409 15.3952 24.0017 16.4436 25.3625C16.9875 26.0684 17.8487 26.2874 18.6542 26.0929C18.7956 26.0586 18.9401 26.0331 19.0869 26.0142C19.1318 26.0086 19.1782 26.0081 19.2233 26.0039C19.3311 25.9941 19.4392 25.9855 19.5492 25.9844C19.6438 25.9834 19.7398 25.9881 19.8358 25.9942C19.8814 25.9968 19.9265 25.9963 19.9724 26.0007C20.1071 26.0136 20.2432 26.0334 20.3803 26.06C20.3895 26.0621 20.3985 26.0621 20.4074 26.0645C20.4172 26.066 20.4264 26.0705 20.4362 26.0726C20.5936 26.1052 20.7462 26.1513 20.8965 26.2024C20.9545 26.2218 21.0115 26.2432 21.0682 26.2653C21.2043 26.3184 21.3374 26.3782 21.4658 26.4458C21.517 26.4729 21.566 26.5021 21.6158 26.5316C21.7258 26.5956 21.8326 26.6645 21.9357 26.7382C21.9874 26.7756 22.038 26.8125 22.0878 26.8522C22.2057 26.9449 22.3196 27.043 22.4264 27.1491C22.4707 27.1925 22.5105 27.2397 22.5527 27.2852C22.6263 27.3649 22.6967 27.4473 22.7636 27.5326C22.8103 27.5924 22.8562 27.6518 22.8994 27.7137C22.968 27.8124 23.0313 27.9145 23.0909 28.019C23.142 28.1085 23.1879 28.2009 23.2319 28.2941C23.2691 28.3728 23.3042 28.4525 23.3363 28.5338C23.3664 28.611 23.3962 28.6873 23.4215 28.766C23.4682 28.9113 23.509 29.0589 23.538 29.2108C23.541 29.2256 23.5468 29.239 23.5494 29.2537C23.5576 29.2982 23.5583 29.3421 23.5649 29.3866C23.5805 29.4909 23.5939 29.5943 23.6013 29.6969C23.6055 29.7533 23.6079 29.8094 23.6098 29.8657C23.6132 29.9715 23.6121 30.0768 23.6074 30.1805C23.605 30.2336 23.604 30.2863 23.5995 30.3389C23.5895 30.4595 23.5729 30.5787 23.5523 30.6958C23.5467 30.7274 23.5441 30.7598 23.5378 30.7908C23.5083 30.9385 23.4703 31.0827 23.4252 31.2238C23.4133 31.2612 23.3983 31.2959 23.3854 31.3328C23.3487 31.4365 23.3094 31.5383 23.2649 31.6381C23.2438 31.6852 23.2208 31.7307 23.1982 31.7765C23.1547 31.8644 23.1083 31.9508 23.0587 32.0348C23.0326 32.0792 23.0062 32.1232 22.9783 32.1666C22.9221 32.254 22.8617 32.338 22.7992 32.4206C22.7734 32.4548 22.7494 32.4896 22.7228 32.5225C22.6313 32.6359 22.5348 32.7449 22.4317 32.8475C22.4222 32.8568 22.4116 32.8649 22.4021 32.8741C22.3077 32.9662 22.2086 33.0531 22.1055 33.1357C22.0696 33.1644 22.0317 33.191 21.9948 33.2186C21.9141 33.2784 21.8315 33.3363 21.7461 33.3905C21.7026 33.4182 21.6588 33.4442 21.6143 33.4703C21.5278 33.5208 21.4392 33.5674 21.3487 33.6114C21.3055 33.6324 21.2628 33.6542 21.2188 33.6737C21.1064 33.7237 20.9912 33.7677 20.8739 33.8066C20.8501 33.8148 20.8275 33.8251 20.8035 33.8327C20.6613 33.8772 20.5153 33.9135 20.3668 33.9422C20.3278 33.9498 20.2875 33.9541 20.2479 33.9606C20.1374 33.9785 20.0256 33.9938 19.9122 34.0025C19.859 34.0067 19.8052 34.0085 19.7514 34.0106C19.6467 34.0151 19.5413 34.0151 19.4345 34.0106C19.3799 34.0091 19.3253 34.007 19.2702 34.0025C19.1637 33.9943 19.0558 33.9791 18.9477 33.9627C18.9032 33.9556 18.8594 33.9546 18.8146 33.9459C18.803 33.9438 18.7921 33.9393 18.7808 33.9372C18.6368 33.9091 18.4971 33.8688 18.3589 33.8248C18.2693 33.7967 18.1825 33.7635 18.0955 33.7287C18.0388 33.7058 17.9832 33.6816 17.9278 33.6566C17.7374 33.5703 17.555 33.4711 17.3815 33.3571C17.367 33.3479 17.3517 33.3397 17.3374 33.33C17.2512 33.2721 17.1695 33.2084 17.088 33.1439C17.0469 33.1113 17.0065 33.0773 16.9665 33.0431C16.717 32.8288 16.4947 32.5846 16.3041 32.3156C16.2714 32.2695 16.2398 32.2227 16.2092 32.1756C16.1549 32.0916 16.1013 32.0079 16.0533 31.9195C16.009 31.8381 15.9705 31.7539 15.9323 31.6694C15.8827 31.561 15.8379 31.4507 15.7984 31.3381C15.7662 31.2451 15.7359 31.1519 15.7103 31.0569C15.7 31.018 15.6834 30.9811 15.6742 30.9414C15.6697 30.9224 15.67 30.9035 15.6657 30.8837C15.6228 30.6869 15.594 30.4916 15.58 30.2994C15.5787 30.2826 15.5735 30.2647 15.5724 30.2478C15.4886 28.8807 14.7186 27.6463 13.613 26.8354L12.4526 25.9842L10.1122 24.2665C10.1154 24.2644 10.118 24.2617 10.1212 24.2594L8.4078 22.9986C7.9751 22.6801 7.44274 22.5256 6.90642 22.5635C5.99701 22.627 5.07045 22.4182 4.33216 21.8842C3.42089 21.2256 2.86928 20.2294 2.79202 19.1258C2.64885 17.082 4.1982 15.303 6.24565 15.1598C6.33345 15.1532 6.42073 15.1506 6.50748 15.1506C8.44313 15.1506 10.0816 16.6511 10.2187 18.6075C10.2451 18.9844 10.2137 19.3564 10.1291 19.7138C9.99908 20.2628 10.1905 20.8358 10.6432 21.1727C11.4242 21.7539 12.5778 21.3844 12.8159 20.4413C12.9807 19.7875 13.0432 19.1055 12.9947 18.4133C12.7447 14.8424 9.62993 12.154 6.05159 12.3885C2.4735 12.6386 -0.234191 15.7478 0.0160379 19.32C0.137329 21.0501 0.926252 22.6296 2.23751 23.7672C3.4317 24.8034 4.92833 25.3606 6.49482 25.3606C6.64987 25.3606 6.8049 25.3551 6.95994 25.3443Z" fill="#797E88"/>
<path d="M82.7228 21.9861V25.3462H78.5093V38.9729H74.47V25.3462H70.2314V21.9861H82.7228Z" fill="#797E88"/>
<path d="M99.1391 25.2217H91.0358V28.7063H97.4062V31.9042H91.0358V35.6128H99.1391V38.9729H86.9844V21.9861H99.1391V25.2217Z" fill="#797E88"/>
<path d="M117.812 28.3076L113.635 28.5695C113.577 26.172 112.64 24.9731 110.824 24.9731C108.742 24.9731 107.701 26.8187 107.701 30.5107C107.701 32.6429 107.984 34.0887 108.551 34.8473C109.117 35.6066 109.908 35.9864 110.924 35.9864C112.573 35.9864 113.58 34.916 113.947 32.7756L117.812 33.0119C117.562 35.0444 116.804 36.59 115.536 37.6473C114.269 38.7054 112.717 39.2339 110.88 39.2339C108.628 39.2339 106.797 38.4587 105.389 36.9071C103.98 35.3555 103.275 33.2109 103.275 30.4736C103.275 27.9099 103.957 25.8114 105.32 24.1766C106.683 22.5418 108.544 21.7249 110.905 21.7249C114.994 21.7249 117.296 23.9195 117.812 28.3076Z" fill="#797E88"/>
<path d="M135.798 21.9861V38.9729H131.883V31.9669H126.573V38.9729H122.658V21.9861H126.573V28.6065H131.883V21.9861H135.798Z" fill="#797E88"/>
<path d="M154.741 35.6128H161.511V38.9729H150.702V21.9861H154.741V35.6128Z" fill="#797E88"/>
<path d="M172.248 39.2338C169.956 39.2338 168.183 38.3755 166.929 36.6578C165.676 34.9407 165.049 32.8627 165.049 30.4235C165.049 27.9431 165.684 25.8732 166.954 24.214C168.225 22.5553 170.035 21.7251 172.385 21.7251C174.76 21.7251 176.552 22.6108 177.76 24.3822C178.968 26.1535 179.572 28.1792 179.572 30.4612C179.572 32.9245 178.949 35.0031 177.704 36.6955C176.458 38.3879 174.64 39.2338 172.248 39.2338ZM172.36 24.9728C170.27 24.9728 169.225 26.806 169.225 30.4733C169.225 34.1482 170.27 35.9861 172.36 35.9861C174.384 35.9861 175.396 34.1521 175.396 30.4857C175.396 26.8103 174.384 24.9728 172.36 24.9728Z" fill="#797E88"/>
<path d="M197.982 29.888V38.9725H196.162C196.031 38.3335 195.842 37.6828 195.595 37.019C194.381 38.4956 192.834 39.2336 190.955 39.2336C188.735 39.2336 187.007 38.4414 185.772 36.8569C184.537 35.2724 183.92 33.2233 183.92 30.7097C183.92 28.005 184.579 25.8317 185.896 24.1887C187.213 22.5458 189.002 21.7246 191.263 21.7246C193.158 21.7246 194.687 22.2558 195.85 23.3175C197.014 24.3798 197.725 25.794 197.982 27.5612L194.192 28.0587C193.885 26.0014 192.908 24.9728 191.263 24.9728C190.183 24.9728 189.366 25.46 188.813 26.4349C188.261 27.4101 187.984 28.8014 187.984 30.6099C187.984 32.3518 188.283 33.6834 188.882 34.6043C189.48 35.525 190.332 35.9862 191.438 35.9862C192.152 35.9862 192.79 35.754 193.351 35.2887C193.912 34.8241 194.193 34.0821 194.193 33.0617H190.989V29.888H197.982Z" fill="#797E88"/>
<path d="M210.067 39.2338C207.775 39.2338 206.002 38.3755 204.748 36.6578C203.494 34.9407 202.867 32.8627 202.867 30.4235C202.867 27.9431 203.502 25.8732 204.773 24.214C206.043 22.5553 207.854 21.7251 210.204 21.7251C212.579 21.7251 214.37 22.6108 215.578 24.3822C216.787 26.1535 217.391 28.1792 217.391 30.4612C217.391 32.9245 216.768 35.0031 215.522 36.6955C214.276 38.3879 212.458 39.2338 210.067 39.2338ZM210.178 24.9728C208.088 24.9728 207.043 26.806 207.043 30.4733C207.043 34.1482 208.088 35.9861 210.178 35.9861C212.202 35.9861 213.214 34.1521 213.214 30.4857C213.214 26.8103 212.202 24.9728 210.178 24.9728Z" fill="#797E88"/>
<path d="M76.9387 43.4522V45.1557H76.803C76.7413 44.6967 76.591 44.3456 76.352 44.1029C76.1129 43.861 75.8087 43.7394 75.4391 43.7394C75.3123 43.7394 75.1963 43.7612 75.0914 43.8047C74.9863 43.8481 74.894 43.905 74.8144 43.9758C74.7345 44.0466 74.6731 44.1268 74.6296 44.2169C74.5861 44.3077 74.5645 44.4016 74.5645 44.4993C74.5645 44.5901 74.5824 44.6759 74.6188 44.757C74.6549 44.838 74.7675 44.9659 74.9557 45.1397C75.2709 45.3384 75.5517 45.5031 75.7979 45.6329C76.0296 45.76 76.3433 45.9516 76.7381 46.208C76.9084 46.3385 77.0389 46.4931 77.1293 46.6726C77.2197 46.8513 77.2653 47.0387 77.2653 47.234C77.2653 47.4182 77.2271 47.5941 77.1512 47.7604C77.075 47.9268 76.9693 48.0723 76.8333 48.1973C76.6975 48.3218 76.5336 48.4213 76.3414 48.4955C76.1493 48.5698 75.9392 48.6069 75.7111 48.6069C75.5662 48.6069 75.432 48.5958 75.3089 48.574C75.287 48.5705 75.2301 48.5556 75.1378 48.5279C75.0453 48.5011 74.9467 48.4729 74.8415 48.4439C74.7364 48.415 74.6386 48.3876 74.5482 48.3621C74.4575 48.3374 74.405 48.3242 74.3905 48.3242C74.3288 48.3242 74.2809 48.3426 74.2466 48.3784C74.2121 48.4147 74.186 48.4903 74.1678 48.6066H74.0318V46.9134H74.1678C74.2329 47.2603 74.318 47.5264 74.4232 47.7112C74.4738 47.7978 74.5418 47.8781 74.627 47.9523C74.7121 48.0265 74.8081 48.0918 74.9151 48.1481C75.0218 48.2039 75.137 48.2471 75.2601 48.2779C75.3832 48.3089 75.5082 48.3239 75.635 48.3239C75.7871 48.3239 75.9239 48.3026 76.0454 48.2586C76.1666 48.2155 76.27 48.1571 76.3551 48.0828C76.4403 48.0086 76.5054 47.9228 76.5507 47.8251C76.596 47.7275 76.6187 47.6246 76.6187 47.5159C76.6187 47.3929 76.5852 47.2698 76.518 47.1469C76.4508 47.0239 76.3377 46.9024 76.1785 46.7826C76.0227 46.6892 75.8379 46.5786 75.6242 46.452C75.2148 46.2169 74.8505 45.9909 74.5318 45.7737C74.3541 45.6321 74.2192 45.4776 74.1269 45.3092C74.0344 45.1415 73.9883 44.9538 73.9883 44.7477C73.9883 44.5738 74.0244 44.409 74.0969 44.2516C74.1694 44.0942 74.2698 43.9555 74.3984 43.836C74.5271 43.717 74.68 43.6231 74.8576 43.5544C75.035 43.4857 75.2272 43.4512 75.4336 43.4512C75.6945 43.4512 75.9716 43.5144 76.265 43.641C76.3338 43.6699 76.3918 43.6938 76.4389 43.7117C76.4861 43.7296 76.5241 43.7373 76.5531 43.7331C76.6182 43.7331 76.6707 43.7152 76.7107 43.6788C76.7505 43.643 76.7814 43.5667 76.803 43.4515H76.9387V43.4522Z" fill="#797E88"/>
<path d="M86.3996 47.1314L86.5193 47.1527L86.0953 48.4933H82.2686V48.358H82.4587C82.6617 48.358 82.8101 48.2906 82.9043 48.1566C82.9549 48.0777 82.9805 47.8982 82.9805 47.6199V44.4344C82.9805 44.1306 82.9459 43.939 82.8771 43.8593C82.783 43.7508 82.6435 43.6963 82.4587 43.6963H82.2686V43.561H84.5082V43.6963C84.374 43.6963 84.2627 43.7024 84.1739 43.7155C84.085 43.7279 84.0117 43.7464 83.9537 43.7698C83.8957 43.7932 83.8503 43.8214 83.8179 43.8535C83.7852 43.8864 83.7581 43.9222 83.7364 43.9619C83.7001 44.034 83.6821 44.2209 83.6821 44.5207V47.6197C83.6821 47.7895 83.6948 47.9124 83.7201 47.9887C83.7454 48.0642 83.7963 48.1171 83.8722 48.1461C83.9374 48.1674 84.1277 48.1785 84.4431 48.1785H84.8019C85.1824 48.1785 85.4487 48.1511 85.6012 48.0974C85.6774 48.0719 85.7496 48.0355 85.8187 47.989C85.8875 47.9416 85.9545 47.8805 86.0199 47.8042C86.0853 47.7287 86.1485 47.6358 86.2102 47.5273C86.2709 47.4186 86.3344 47.2867 86.3996 47.1314Z" fill="#797E88"/>
<path d="M93.8584 43.4521C94.1737 43.4521 94.4743 43.5174 94.7607 43.6472C95.0468 43.7777 95.2988 43.9564 95.5164 44.1846C95.7339 44.4128 95.9069 44.6808 96.0355 44.9906C96.1642 45.2998 96.2286 45.6352 96.2286 45.9966C96.2286 46.3695 96.1642 46.7154 96.0355 47.0334C95.9069 47.3516 95.7328 47.6271 95.5137 47.8606C95.2944 48.0943 95.037 48.2762 94.7417 48.4089C94.4464 48.5407 94.1318 48.6068 93.7985 48.6068C93.4615 48.6068 93.1462 48.5436 92.8527 48.4165C92.5592 48.2901 92.3045 48.1122 92.0891 47.8827C91.8734 47.6524 91.7031 47.3789 91.5781 47.0602C91.4531 46.742 91.3906 46.3908 91.3906 46.0074C91.3906 45.6528 91.4531 45.3201 91.5781 45.009C91.7031 44.6977 91.8753 44.4276 92.0947 44.1981C92.3138 43.9678 92.5737 43.7864 92.8746 43.6524C93.1754 43.519 93.5032 43.4521 93.8584 43.4521ZM93.7877 43.7182C93.5377 43.7182 93.3155 43.7712 93.1219 43.8783C92.9279 43.9849 92.7649 44.1367 92.6325 44.3339C92.5002 44.531 92.3997 44.7703 92.3309 45.0498C92.2621 45.3301 92.2275 45.6462 92.2275 45.9968C92.2275 46.3445 92.261 46.662 92.3283 46.9491C92.3952 47.2371 92.4949 47.485 92.6273 47.6927C92.7594 47.9009 92.9234 48.0617 93.1193 48.1757C93.3149 48.2896 93.5396 48.3468 93.7935 48.3468C94.0219 48.3468 94.2328 48.3033 94.4269 48.2162C94.6207 48.1296 94.7899 47.9948 94.935 47.8122C95.0797 47.6293 95.1931 47.3966 95.2748 47.112C95.3563 46.8283 95.3972 46.4888 95.3972 46.095C95.3972 45.7218 95.3637 45.3886 95.2967 45.0938C95.2298 44.799 95.1282 44.5489 94.9922 44.3447C94.8561 44.1399 94.6879 43.9846 94.4867 43.878C94.2853 43.7712 94.0522 43.7182 93.7877 43.7182Z" fill="#797E88"/>
<path d="M105.547 43.4521L105.677 45.0038H105.547C105.398 44.5481 105.187 44.2184 104.913 44.0136C104.64 43.8096 104.307 43.7072 103.916 43.7072C103.626 43.7072 103.367 43.7643 103.138 43.8783C102.91 43.9923 102.716 44.1496 102.557 44.3505C102.397 44.551 102.276 44.7882 102.193 45.0609C102.109 45.3344 102.068 45.6299 102.068 45.9479C102.068 46.4146 102.16 46.8433 102.345 47.2342C102.435 47.4292 102.541 47.5977 102.663 47.7385C102.784 47.8801 102.916 47.9962 103.057 48.0891C103.198 48.1812 103.346 48.2491 103.5 48.2925C103.654 48.3357 103.809 48.3578 103.965 48.3578C104.327 48.3578 104.668 48.267 104.987 48.0864V46.6593C104.987 46.5364 104.982 46.4361 104.973 46.3585C104.964 46.28 104.949 46.219 104.929 46.1737C104.909 46.1284 104.885 46.094 104.856 46.0705C104.827 46.0471 104.793 46.0245 104.753 46.0026C104.673 45.9629 104.535 45.9429 104.339 45.9429V45.802H106.253V45.9429H106.161C106.077 45.9429 106.006 45.9526 105.949 45.9702C105.891 45.9881 105.843 46.0224 105.805 46.0734C105.767 46.1242 105.74 46.1964 105.723 46.2906C105.707 46.3848 105.699 46.5077 105.699 46.6596V48.1678C105.557 48.2441 105.419 48.3099 105.283 48.3657C105.147 48.422 105.01 48.4668 104.873 48.4991C104.59 48.5713 104.287 48.6076 103.965 48.6076C103.552 48.6076 103.177 48.5444 102.842 48.4173C102.507 48.2909 102.22 48.1156 101.981 47.8909C101.741 47.6669 101.557 47.4029 101.426 47.0992C101.296 46.7949 101.23 46.4643 101.23 46.1055C101.23 45.6755 101.335 45.2591 101.546 44.8577C101.789 44.3876 102.128 44.0241 102.562 43.7672C102.925 43.5577 103.352 43.4524 103.845 43.4524C103.943 43.4524 104.03 43.455 104.106 43.4606C104.182 43.4661 104.261 43.4764 104.343 43.493C104.424 43.5095 104.513 43.5327 104.609 43.5638C104.705 43.594 104.822 43.6351 104.959 43.6853C105.097 43.7396 105.19 43.7651 105.237 43.7617C105.28 43.7617 105.318 43.7411 105.351 43.699C105.384 43.6577 105.403 43.5753 105.411 43.4524L105.547 43.4521Z" fill="#797E88"/>
<path d="M114.224 46.8436H112.31L111.973 47.62C111.894 47.8119 111.854 47.9545 111.854 48.048C111.854 48.0877 111.86 48.1243 111.873 48.1564C111.886 48.1893 111.913 48.2191 111.954 48.2464C111.996 48.2733 112.054 48.2967 112.128 48.3165C112.203 48.3365 112.301 48.3501 112.425 48.3578V48.4931H110.87V48.3578C110.993 48.3393 111.093 48.3125 111.169 48.2759C111.245 48.2401 111.31 48.1901 111.365 48.1267C111.419 48.0635 111.469 47.9811 111.514 47.8801C111.56 47.7785 111.615 47.654 111.68 47.5055L113.42 43.4521H113.545L115.262 47.5489C115.331 47.7187 115.396 47.8553 115.455 47.9585C115.515 48.0617 115.577 48.142 115.64 48.2004C115.704 48.258 115.773 48.298 115.847 48.3193C115.921 48.3412 116.011 48.3536 116.116 48.3578V48.4931H114.164V48.3578C114.36 48.3501 114.493 48.3186 114.564 48.2623C114.635 48.2067 114.67 48.1385 114.67 48.0588C114.666 47.9543 114.617 47.784 114.523 47.5489L114.224 46.8436ZM114.12 46.5727L113.283 44.5808L112.424 46.5727H114.12Z" fill="#797E88"/>
<path d="M120.553 43.561H121.89L124.912 47.2612V44.4178C124.912 44.2514 124.9 44.1196 124.877 44.0219C124.853 43.9243 124.819 43.8521 124.774 43.8048C124.728 43.7582 124.673 43.7279 124.608 43.7155C124.543 43.7024 124.468 43.6963 124.385 43.6963H124.211V43.561H125.934V43.6963H125.755C125.668 43.6963 125.592 43.704 125.527 43.7184C125.462 43.7329 125.407 43.7651 125.364 43.8161C125.32 43.8669 125.288 43.939 125.266 44.0332C125.244 44.1275 125.233 44.2559 125.233 44.4181V48.5746H125.103L121.847 44.6031V47.6415C121.847 47.8121 121.858 47.9445 121.882 48.0408C121.905 48.1364 121.939 48.2077 121.982 48.2551C122.026 48.3019 122.08 48.3306 122.145 48.3417C122.21 48.3527 122.285 48.3583 122.368 48.3583H122.542V48.4936H120.824V48.3583H120.998C121.085 48.3583 121.161 48.3506 121.227 48.3364C121.292 48.3219 121.347 48.2903 121.392 48.2417C121.438 48.193 121.471 48.1214 121.493 48.0271C121.515 47.9329 121.526 47.8045 121.526 47.6415V44.212C121.453 44.1254 121.393 44.0567 121.344 44.0059C121.294 43.9556 121.248 43.9137 121.205 43.8814C121.161 43.8485 121.114 43.8216 121.063 43.7995C121.013 43.7782 120.949 43.7542 120.873 43.7295C120.801 43.7076 120.694 43.6966 120.553 43.6966V43.561Z" fill="#797E88"/>
<path d="M140.086 43.561H141.809V43.6963H141.711C141.573 43.6963 141.425 43.759 141.265 43.884C141.106 44.0085 140.93 44.2249 140.738 44.532L139.548 46.4045V47.6413C139.548 47.8076 139.559 47.9387 139.583 48.035C139.606 48.1306 139.641 48.2019 139.686 48.2493C139.732 48.2961 139.788 48.3261 139.855 48.3385C139.922 48.3509 139.999 48.3577 140.086 48.3577H140.243V48.493H138.145V48.3577H138.325C138.412 48.3577 138.488 48.3501 138.553 48.3359C138.618 48.3214 138.672 48.2898 138.716 48.2411C138.759 48.1924 138.792 48.1208 138.814 48.0266C138.835 47.9324 138.846 47.8039 138.846 47.641V46.4687L137.493 44.4073C137.409 44.2843 137.341 44.1854 137.289 44.1112C137.236 44.0369 137.196 43.984 137.167 43.9511C137.152 43.9366 137.128 43.9153 137.093 43.8866C137.059 43.8572 137.016 43.8295 136.966 43.8021C136.915 43.7753 136.859 43.7506 136.797 43.7292C136.736 43.7074 136.67 43.6963 136.602 43.6963V43.561H138.711V43.6963H138.602C138.548 43.6963 138.493 43.7024 138.439 43.7155C138.385 43.7279 138.335 43.7471 138.292 43.7727C138.249 43.7982 138.213 43.8311 138.186 43.873C138.159 43.9143 138.145 43.9622 138.145 44.0167C138.141 44.0601 138.16 44.1204 138.199 44.1988C138.239 44.2765 138.295 44.3733 138.368 44.4888L139.395 46.0789L140.368 44.5597C140.506 44.3391 140.579 44.1685 140.586 44.049C140.579 43.9987 140.567 43.9514 140.55 43.9082C140.534 43.8651 140.507 43.8279 140.469 43.7969C140.431 43.7666 140.381 43.7419 140.319 43.724C140.258 43.7053 140.18 43.6966 140.086 43.6966V43.561Z" fill="#797E88"/>
<path d="M149.1 43.4521C149.415 43.4521 149.716 43.5174 150.002 43.6472C150.288 43.7777 150.54 43.9564 150.758 44.1846C150.975 44.4128 151.148 44.6808 151.277 44.9906C151.405 45.2998 151.47 45.6352 151.47 45.9966C151.47 46.3695 151.405 46.7154 151.277 47.0334C151.148 47.3516 150.974 47.6271 150.755 47.8606C150.536 48.0943 150.278 48.2762 149.983 48.4089C149.687 48.5407 149.373 48.6068 149.04 48.6068C148.703 48.6068 148.387 48.5436 148.094 48.4165C147.8 48.2901 147.546 48.1122 147.33 47.8827C147.115 47.6524 146.944 47.3789 146.819 47.0602C146.694 46.742 146.632 46.3908 146.632 46.0074C146.632 45.6528 146.694 45.3201 146.819 45.009C146.944 44.6977 147.116 44.4276 147.336 44.1981C147.555 43.9678 147.815 43.7864 148.116 43.6524C148.416 43.519 148.744 43.4521 149.1 43.4521ZM149.029 43.7182C148.779 43.7182 148.557 43.7712 148.363 43.8783C148.169 43.9849 148.006 44.1367 147.874 44.3339C147.742 44.531 147.641 44.7703 147.572 45.0498C147.504 45.3301 147.469 45.6462 147.469 45.9968C147.469 46.3445 147.503 46.662 147.569 46.9491C147.636 47.2371 147.736 47.485 147.868 47.6927C148.001 47.9009 148.165 48.0617 148.361 48.1757C148.556 48.2896 148.781 48.3468 149.034 48.3468C149.263 48.3468 149.474 48.3033 149.668 48.2162C149.862 48.1296 150.031 47.9948 150.176 47.8122C150.321 47.6293 150.434 47.3966 150.516 47.112C150.597 46.8283 150.638 46.4888 150.638 46.095C150.638 45.7218 150.604 45.3886 150.537 45.0938C150.47 44.799 150.369 44.5489 150.233 44.3447C150.097 44.1399 149.929 43.9846 149.727 43.878C149.526 43.7712 149.293 43.7182 149.029 43.7182Z" fill="#797E88"/>
<path d="M159.771 43.6963V43.561H161.516V43.6963H161.331C161.142 43.6963 160.994 43.7782 160.885 43.9409C160.834 44.013 160.809 44.1883 160.809 44.4673V46.4642C160.809 46.9485 160.758 47.3341 160.657 47.6199C160.606 47.7573 160.534 47.8858 160.439 48.0048C160.345 48.1243 160.226 48.228 160.081 48.3167C159.936 48.4054 159.766 48.4762 159.572 48.5283C159.378 48.5812 159.156 48.6072 158.906 48.6072C158.635 48.6072 158.397 48.5838 158.194 48.5364C157.991 48.4899 157.817 48.4209 157.672 48.3303C157.527 48.2403 157.408 48.1316 157.314 48.0048C157.219 47.8784 157.143 47.7355 157.085 47.576C157.006 47.3554 156.966 46.9506 156.966 46.361V44.4344C156.966 44.2825 156.955 44.1588 156.936 44.0627C156.916 43.9672 156.884 43.8916 156.841 43.8374C156.797 43.7837 156.742 43.7466 156.675 43.7269C156.608 43.7069 156.529 43.6966 156.438 43.6966H156.248V43.5613H158.384V43.6966H158.194C158.107 43.6966 158.031 43.7055 157.966 43.724C157.901 43.7419 157.846 43.7769 157.803 43.8298C157.759 43.8819 157.726 43.9561 157.702 44.0517C157.679 44.1477 157.667 44.2757 157.667 44.4344V46.5829C157.667 46.8001 157.681 47.0117 157.71 47.2178C157.739 47.4239 157.799 47.6081 157.89 47.7689C157.98 47.9298 158.11 48.0582 158.279 48.1537C158.447 48.2498 158.671 48.298 158.95 48.298C159.109 48.298 159.263 48.2788 159.412 48.2409C159.56 48.203 159.696 48.1509 159.817 48.0864C159.938 48.0211 160.044 47.9421 160.135 47.85C160.225 47.7579 160.293 47.6576 160.336 47.5492C160.43 47.3354 160.477 46.963 160.477 46.4311V44.4344C160.477 44.1306 160.443 43.939 160.374 43.8593C160.28 43.7508 160.14 43.6963 159.956 43.6963H159.771Z" fill="#797E88"/>
<path d="M171.09 48.4933H169.774L168.1 46.1873C168.038 46.1907 167.983 46.1934 167.934 46.1955C167.885 46.1968 167.841 46.1981 167.801 46.1981C167.768 46.1981 167.734 46.1968 167.697 46.1955C167.661 46.1934 167.623 46.1907 167.583 46.1873V47.6199C167.583 47.7931 167.595 47.9297 167.619 48.0295C167.642 48.1293 167.677 48.2035 167.722 48.2522C167.767 48.3009 167.822 48.3306 167.885 48.3414C167.948 48.3525 168.02 48.358 168.1 48.358H168.296V48.4933H166.176V48.358H166.366C166.569 48.358 166.717 48.2906 166.812 48.1566C166.862 48.0777 166.888 47.8982 166.888 47.6199V44.4344C166.888 44.1306 166.853 43.939 166.784 43.8593C166.69 43.7508 166.551 43.6963 166.366 43.6963H166.176V43.561H167.975C168.239 43.561 168.468 43.5708 168.66 43.5905C168.852 43.6103 169.01 43.6408 169.133 43.6798C169.256 43.7195 169.372 43.7753 169.481 43.8453C169.59 43.9161 169.685 44.0014 169.766 44.1004C169.848 44.1999 169.912 44.3112 169.959 44.4344C170.006 44.5573 170.03 44.6892 170.03 44.8308C170.03 45.1379 169.932 45.4017 169.736 45.623C169.541 45.8436 169.234 46.001 168.818 46.0949L169.834 47.5057C169.954 47.6686 170.06 47.8026 170.152 47.9071C170.245 48.0121 170.337 48.0953 170.429 48.1566C170.522 48.2185 170.62 48.2638 170.723 48.2927C170.826 48.3217 170.949 48.3435 171.09 48.358V48.4933ZM167.584 45.9591C167.631 45.9591 167.672 45.9604 167.706 45.9618C167.74 45.9639 167.768 45.9644 167.79 45.9644C168.026 45.9644 168.232 45.9375 168.41 45.8833C168.587 45.8291 168.736 45.7528 168.856 45.6551C168.975 45.5575 169.065 45.4427 169.125 45.31C169.185 45.1782 169.214 45.0345 169.214 44.8792C169.214 44.7273 169.189 44.587 169.138 44.4586C169.087 44.3301 169.015 44.2193 168.921 44.1275C168.826 44.0354 168.714 43.964 168.584 43.913C168.453 43.8622 168.31 43.8366 168.154 43.8366C168.006 43.8366 167.815 43.8606 167.584 43.9074V45.9591H167.584Z" fill="#797E88"/>
<path d="M183.328 45.8505H185.622V44.4397C185.622 44.3244 185.62 44.2289 185.617 44.1547C185.613 44.0812 185.604 44.0199 185.589 43.9733C185.575 43.9267 185.554 43.8896 185.527 43.8619C185.5 43.8351 185.465 43.8083 185.421 43.7835C185.32 43.7251 185.209 43.6961 185.089 43.6961H184.915V43.5608H187.03V43.6961H186.856C186.809 43.6961 186.759 43.7017 186.706 43.7127C186.654 43.7238 186.605 43.7396 186.56 43.7614C186.514 43.7833 186.474 43.8101 186.437 43.8425C186.401 43.8754 186.376 43.9133 186.361 43.9564C186.336 44.0328 186.323 44.1936 186.323 44.4394V47.6195C186.323 47.735 186.326 47.829 186.331 47.9011C186.337 47.974 186.346 48.033 186.359 48.0804C186.371 48.1272 186.39 48.1643 186.416 48.1917C186.441 48.2186 186.475 48.2446 186.519 48.2701C186.62 48.3286 186.733 48.3572 186.856 48.3572H187.03V48.4925H184.915V48.3572H185.089C185.173 48.3572 185.247 48.3504 185.312 48.338C185.377 48.3257 185.433 48.2949 185.481 48.2459C185.528 48.1972 185.563 48.123 185.587 48.0233C185.61 47.9235 185.622 47.789 185.622 47.6192V46.1158H183.328V47.6192C183.328 47.7348 183.33 47.8287 183.333 47.9008C183.337 47.9738 183.346 48.0327 183.361 48.0801C183.375 48.1269 183.396 48.1641 183.423 48.1914C183.45 48.2183 183.486 48.2444 183.529 48.2699C183.631 48.3283 183.741 48.357 183.861 48.357H184.04V48.4923H181.92V48.357H182.1C182.299 48.357 182.446 48.2972 182.54 48.1777C182.598 48.1056 182.627 47.9193 182.627 47.6192V44.4392C182.627 44.3197 182.625 44.2233 182.621 44.1491C182.618 44.0749 182.609 44.0151 182.594 43.9699C182.58 43.9246 182.56 43.8888 182.534 43.8612C182.509 43.8343 182.474 43.8075 182.431 43.7827C182.329 43.7243 182.219 43.6954 182.099 43.6954H181.92V43.5601H184.04V43.6954H183.86C183.817 43.6954 183.769 43.7009 183.716 43.7119C183.664 43.723 183.615 43.7388 183.569 43.7606C183.524 43.7825 183.484 43.8093 183.447 43.8417C183.411 43.8746 183.386 43.9125 183.371 43.9556C183.342 44.043 183.328 44.2036 183.328 44.4386L183.328 45.8505Z" fill="#797E88"/>
<path d="M193.196 43.8324V45.7804H194.278C194.437 45.7804 194.566 45.7659 194.664 45.7364C194.761 45.7075 194.838 45.6643 194.895 45.6067C194.951 45.5491 194.989 45.4748 195.011 45.384C195.033 45.294 195.047 45.1869 195.055 45.0637H195.191V46.7788H195.055C195.037 46.6372 195.016 46.5198 194.992 46.4255C194.969 46.3313 194.93 46.2565 194.878 46.2007C194.825 46.1444 194.752 46.1047 194.658 46.0813C194.563 46.0578 194.437 46.0462 194.277 46.0462H193.195V47.6742C193.195 47.7971 193.197 47.8947 193.201 47.9669C193.204 48.039 193.219 48.0948 193.244 48.1324C193.269 48.1703 193.309 48.1951 193.364 48.2053C193.418 48.2164 193.498 48.2219 193.603 48.2219H194.44C194.581 48.2219 194.701 48.2185 194.799 48.2108C194.897 48.204 194.981 48.1895 195.052 48.1677C195.122 48.1464 195.185 48.1161 195.239 48.0785C195.293 48.0406 195.351 47.9927 195.413 47.9348C195.558 47.7931 195.712 47.567 195.875 47.2565H196.022L195.593 48.4933H191.787V48.358H191.961C192.009 48.358 192.057 48.3525 192.108 48.3414C192.159 48.3304 192.207 48.3153 192.252 48.2953C192.298 48.2753 192.338 48.2493 192.375 48.2164C192.411 48.184 192.436 48.1464 192.451 48.1024C192.48 48.0234 192.494 47.8639 192.494 47.6255V44.4233C192.494 44.1085 192.463 43.9156 192.401 43.8427C192.314 43.745 192.168 43.6963 191.961 43.6963H191.787V43.561H195.592V44.6405H195.505C195.469 44.4631 195.43 44.3217 195.389 44.2143C195.347 44.1077 195.292 44.0253 195.223 43.9677C195.154 43.9101 195.066 43.873 194.959 43.8564C194.852 43.8398 194.715 43.8324 194.549 43.8324H193.196Z" fill="#797E88"/>
<path d="M205.684 48.4933H204.368L202.694 46.1873C202.632 46.1907 202.577 46.1934 202.528 46.1955C202.479 46.1968 202.435 46.1981 202.395 46.1981C202.362 46.1981 202.328 46.1968 202.291 46.1955C202.255 46.1934 202.217 46.1907 202.177 46.1873V47.6199C202.177 47.7931 202.189 47.9297 202.213 48.0295C202.236 48.1293 202.271 48.2035 202.316 48.2522C202.361 48.3009 202.416 48.3306 202.479 48.3414C202.542 48.3525 202.614 48.358 202.694 48.358H202.89V48.4933H200.77V48.358H200.96C201.163 48.358 201.311 48.2906 201.406 48.1566C201.456 48.0777 201.481 47.8982 201.481 47.6199V44.4344C201.481 44.1306 201.447 43.939 201.378 43.8593C201.284 43.7508 201.144 43.6963 200.96 43.6963H200.77V43.561H202.569C202.833 43.561 203.062 43.5708 203.254 43.5905C203.446 43.6105 203.604 43.6408 203.727 43.6798C203.85 43.7195 203.966 43.7753 204.075 43.8453C204.183 43.9161 204.279 44.0014 204.36 44.1004C204.442 44.1999 204.506 44.3112 204.553 44.4344C204.6 44.5573 204.624 44.6892 204.624 44.8308C204.624 45.1379 204.526 45.4017 204.33 45.623C204.135 45.8436 203.828 46.001 203.412 46.0949L204.428 47.5057C204.547 47.6686 204.654 47.8026 204.746 47.9071C204.838 48.0121 204.931 48.0953 205.023 48.1566C205.115 48.2185 205.213 48.2638 205.317 48.2927C205.42 48.3217 205.542 48.3435 205.684 48.358V48.4933H205.684ZM202.178 45.9591C202.224 45.9591 202.265 45.9604 202.3 45.9618C202.334 45.9639 202.362 45.9644 202.384 45.9644C202.619 45.9644 202.826 45.9375 203.004 45.8833C203.181 45.8291 203.33 45.7528 203.449 45.6551C203.569 45.5575 203.659 45.4427 203.718 45.31C203.778 45.1782 203.808 45.0345 203.808 44.8792C203.808 44.7273 203.783 44.587 203.732 44.4586C203.681 44.3301 203.609 44.2193 203.515 44.1275C203.42 44.0354 203.308 43.964 203.178 43.913C203.047 43.8622 202.904 43.8366 202.748 43.8366C202.6 43.8366 202.409 43.8606 202.178 43.9074V45.9591Z" fill="#797E88"/>
<path d="M211.631 43.8324V45.7804H212.713C212.872 45.7804 213.001 45.7659 213.099 45.7364C213.197 45.7075 213.274 45.6643 213.33 45.6067C213.386 45.5491 213.425 45.4748 213.447 45.384C213.469 45.294 213.483 45.1869 213.49 45.0637H213.626V46.7788H213.49C213.472 46.6372 213.451 46.5198 213.428 46.4255C213.404 46.3313 213.366 46.2565 213.313 46.2007C213.261 46.1444 213.187 46.1047 213.093 46.0813C212.999 46.0578 212.872 46.0462 212.713 46.0462H211.631V47.6742C211.631 47.7971 211.633 47.8947 211.636 47.9669C211.64 48.039 211.654 48.0948 211.68 48.1324C211.705 48.1703 211.745 48.1951 211.799 48.2053C211.854 48.2164 211.933 48.2219 212.039 48.2219H212.876C213.017 48.2219 213.137 48.2185 213.234 48.2108C213.332 48.204 213.417 48.1895 213.487 48.1677C213.558 48.1464 213.62 48.1161 213.675 48.0785C213.729 48.0406 213.787 47.9927 213.849 47.9348C213.993 47.7931 214.148 47.567 214.311 47.2565H214.458L214.028 48.4933H210.223V48.358H210.397C210.444 48.358 210.493 48.3525 210.544 48.3414C210.595 48.3304 210.643 48.3153 210.688 48.2953C210.733 48.2753 210.774 48.2493 210.81 48.2164C210.846 48.184 210.872 48.1464 210.886 48.1024C210.915 48.0234 210.93 47.8639 210.93 47.6255V44.4233C210.93 44.1085 210.899 43.9156 210.837 43.8427C210.75 43.745 210.603 43.6963 210.397 43.6963H210.223V43.561H214.028V44.6405H213.941C213.905 44.4631 213.866 44.3217 213.824 44.2143C213.783 44.1077 213.727 44.0253 213.658 43.9677C213.589 43.9101 213.501 43.873 213.395 43.8564C213.288 43.8398 213.151 43.8324 212.984 43.8324H211.631Z" fill="#797E88"/>
<path d="M27.7863 12.215C27.0883 11.8942 26.262 12.1992 25.9405 12.8954C25.6189 13.5921 25.9242 14.4173 26.6221 14.7384C32.5712 17.4739 36.4153 23.4645 36.4153 30.0004H39.1982C39.1982 22.3832 34.7189 15.4025 27.7863 12.215Z" fill="#797E88"/>
<path d="M9.54621 43.474C8.93026 43.015 8.05828 43.1422 7.59922 43.7573C7.1399 44.3721 7.26699 45.2423 7.8832 45.7005C11.2867 48.2339 15.3352 49.5717 19.5912 49.5717V46.7944C15.939 46.7941 12.4654 45.646 9.54621 43.474Z" fill="#797E88"/>
<path d="M39.1975 30H36.4147C36.4147 39.2607 28.8675 46.7944 19.5908 46.7944V49.5718C30.4021 49.5718 39.1975 40.7922 39.1975 30Z" fill="#797E88"/>
</svg>
