<svg width="34" height="24" viewBox="0 0 34 24" fill="none" xmlns="http://www.w3.org/2000/svg">
<path d="M5.17696 11.1158C8.23206 11.1158 12.482 11.2511 16.6003 11.3871C20.7179 11.3871 24.8355 11.5224 28.0229 11.5224H30.6795C30.5464 11.5224 30.5464 11.3871 30.414 11.3871C28.656 10.503 27.0438 9.3607 25.6325 7.99924C25.2407 7.62509 24.885 7.21573 24.57 6.77646C24.2187 6.40152 23.9075 5.99176 23.6414 5.55369L22.8444 4.33091C22.579 3.92434 22.4459 3.51777 22.1804 3.10814C22.0473 2.70157 21.7819 2.43026 21.7819 2.02369C21.6346 1.77907 21.5427 1.50583 21.5126 1.22277C21.4386 0.991552 21.3499 0.765149 21.2472 0.544899C21.5616 0.542442 21.8741 0.496919 22.1758 0.409629C22.4945 0.291222 22.8058 0.154443 23.1083 0C23.1199 0.231038 23.1648 0.459271 23.2414 0.677875C23.2414 0.949179 23.3745 1.08445 23.3745 1.49102C23.3745 1.76232 23.6399 2.1689 23.6399 2.43943C23.773 2.84601 23.9053 3.11731 24.0384 3.52388C24.207 3.95731 24.4301 4.36812 24.7024 4.74666L25.4994 5.96943C25.7655 6.40751 26.0767 6.81727 26.428 7.19221C27.6491 8.59525 29.1386 9.74652 30.811 10.5801C31.3661 10.8908 31.9436 11.1606 32.539 11.3871L34 12.065L32.4059 12.6068C31.8593 12.8477 31.3271 13.1192 30.8118 13.4199C29.1836 14.3207 27.7054 15.4634 26.4288 16.8078C26.0775 17.1827 25.7663 17.5925 25.5002 18.0306L24.7031 19.2533C24.4377 19.6599 24.3046 20.0665 24.0392 20.4761C23.8695 20.8233 23.736 21.1867 23.6407 21.5606C23.5079 21.863 23.4186 22.1822 23.3752 22.509C23.2667 22.7659 23.2211 23.0445 23.2421 23.3221C23.1655 23.5407 23.1207 23.769 23.109 24C22.8078 23.8467 22.4977 23.711 22.1804 23.5934C21.8787 23.5061 21.5662 23.4606 21.2518 23.4582C21.3546 23.2379 21.4432 23.0115 21.5173 22.7803C21.6504 22.509 21.6504 22.2384 21.7827 21.9671C21.9376 21.6139 22.0706 21.2518 22.1812 20.8827C22.3498 20.4493 22.5729 20.0385 22.8452 19.6599C23.0628 19.2237 23.3302 18.8134 23.6422 18.4371C23.9083 17.9991 24.2195 17.5893 24.5708 17.2144C24.9693 16.8078 25.2348 16.4012 25.6333 15.9916C27.0193 14.6037 28.6354 13.4599 30.4117 12.6099C30.5448 12.6099 30.5448 12.4746 30.6772 12.4746H28.0229C24.9678 12.4746 20.7179 12.6099 16.6003 12.6099C12.4827 12.7451 8.36516 12.7451 5.17696 12.8812C2.12186 13.0126 0 13.0126 0 13.0126C0.0752519 12.7015 0.119826 12.3838 0.1331 12.0642C0.119826 11.7446 0.0752519 11.4269 0 11.1158C1.72455 11.0298 3.4524 11.0298 5.17696 11.1158Z" fill="#121212"/>
</svg>
