<svg width="205" height="60" viewBox="0 0 205 60" fill="none" xmlns="http://www.w3.org/2000/svg">
<path fill-rule="evenodd" clip-rule="evenodd" d="M36.3108 54.4964C35.6895 52.5444 36.7654 50.4569 38.7133 49.8345C40.6613 49.2121 42.7448 50.2903 43.3661 52.2423C43.9874 54.1932 42.9111 56.281 40.9631 56.9034C39.0156 57.5255 36.932 56.4472 36.3108 54.4964Z" fill="#797E88"/>
<path fill-rule="evenodd" clip-rule="evenodd" d="M36.8264 5.50378C36.2051 7.4554 37.281 9.54285 39.2293 10.1653C41.1773 10.7877 43.2608 9.70945 43.8817 7.75784C44.503 5.80663 43.4271 3.71878 41.4792 3.09674C39.5312 2.47431 37.4477 3.55217 36.8264 5.50378Z" fill="#797E88"/>
<path fill-rule="evenodd" clip-rule="evenodd" d="M37.5406 19.0394L39.3278 13.1806C42.5004 13.6831 45.6522 11.805 46.6579 8.64531C47.7676 5.15757 45.8452 1.42733 42.3644 0.315092C38.8832 -0.797147 35.1603 1.12888 34.0498 4.61662C33.0668 7.70524 34.4629 10.9844 37.2136 12.4666L35.3609 18.3167C34.5331 18.1293 33.6765 18.0302 32.802 18.0302C32.3754 18.0302 31.9543 18.053 31.5388 18.0961C30.0247 18.2444 28.5935 18.6734 27.2975 19.3326L25.5059 16.1953C26.9291 15.1925 27.8598 13.5341 27.8598 11.6584C27.8598 8.59776 25.3826 6.11559 22.3273 6.11559C19.2724 6.11559 16.7945 8.59776 16.7945 11.6584C16.7945 14.7187 19.2724 17.2012 22.3273 17.2012C22.9239 17.2012 23.4981 17.1061 24.0364 16.9307L25.8444 20.2059C23.1978 22.0621 21.3328 24.9601 20.8439 28.3068L13.9852 28.2965C13.4114 25.2206 10.7177 22.8919 7.48134 22.8919C3.82787 22.8919 0.864258 25.8606 0.864258 29.521C0.864258 33.1813 3.82747 36.1501 7.48134 36.1501C10.7919 36.1501 13.5354 33.7126 14.0219 30.5313L20.7287 30.6128C20.8619 33.5724 22.0633 36.2523 23.9555 38.2782L19.3557 43.6245C18.1188 42.9262 16.6908 42.5278 15.1703 42.5278C10.4517 42.5278 6.62519 46.3611 6.62519 51.0886C6.62519 55.8156 10.4517 59.6501 15.1703 59.6501C19.8889 59.6501 23.7154 55.8156 23.7154 51.0886C23.7154 48.8417 22.8501 46.797 21.4361 45.2693L26.039 40.0541C27.9487 41.3373 30.2452 42.0864 32.7179 42.0864C33.466 42.0864 34.1989 42.0181 34.9091 41.8862L36.6976 47.5337C33.9473 49.0155 32.5508 52.2943 33.5346 55.3833C34.6443 58.871 38.368 60.7967 41.8488 59.6852C45.3296 58.5726 47.2524 54.8424 46.1423 51.355C45.1362 48.1949 41.9848 46.3168 38.8122 46.8194L37.1143 41.2542C40.3187 39.9894 42.8493 37.3817 44.0165 34.1245C44.4886 32.8377 44.7466 31.4478 44.7466 29.9968C44.7458 25.1111 41.7288 20.8951 37.5406 19.0394ZM35.2752 54.826C34.4717 52.3027 35.8633 49.6036 38.3827 48.7986C40.9017 47.9936 43.5966 49.3879 44.4001 51.9112C45.2036 54.4349 43.8119 57.1356 41.2929 57.9394C38.7731 58.744 36.0787 57.3509 35.2752 54.826ZM7.48174 24.7228C10.1263 24.7228 12.2701 26.871 12.2701 29.5202C12.2701 32.1697 10.1259 34.3175 7.48174 34.3175C4.83754 34.3175 2.69299 32.1697 2.69299 29.5202C2.69299 26.8714 4.83714 24.7228 7.48174 24.7228ZM22.3277 7.64692C24.5389 7.64692 26.3321 9.44312 26.3321 11.6588C26.3321 13.8737 24.5393 15.6703 22.3277 15.6703C20.1166 15.6703 18.3237 13.8737 18.3237 11.6588C18.3237 9.44312 20.1166 7.64692 22.3277 7.64692ZM32.802 21.3358C37.5752 21.3358 41.4464 25.2142 41.4464 29.9968C41.4464 34.7789 37.5752 38.6566 32.802 38.6566C28.0288 38.6566 24.1576 34.7789 24.1576 29.9968C24.1572 25.2142 28.0288 21.3358 32.802 21.3358ZM15.1703 44.8921C18.5853 44.8921 21.3547 47.6668 21.3547 51.0882C21.3547 54.5104 18.5853 57.2846 15.1703 57.2846C11.7553 57.2846 8.98588 54.51 8.98588 51.0882C8.98588 47.6668 11.7553 44.8921 15.1703 44.8921ZM35.7916 5.17314C36.5947 2.64903 39.2895 1.25513 41.8089 2.06015C44.3283 2.86516 45.72 5.56467 44.9165 8.08878C44.113 10.6129 41.4185 12.0068 38.8991 11.2022C36.3797 10.3967 34.9881 7.69725 35.7916 5.17314Z" fill="#797E88"/>
<path fill-rule="evenodd" clip-rule="evenodd" d="M32.8018 23.3003C36.4924 23.3003 39.4855 26.299 39.4855 29.9969C39.4855 32.2357 38.3877 34.2181 36.7029 35.4338V35.3519C34.1812 37.1873 30.9189 37.083 28.5179 35.0507V35.1362C27.0513 33.9077 26.1182 32.0608 26.1182 29.9965C26.1178 26.299 29.1109 23.3003 32.8018 23.3003Z" fill="#797E88"/>
<path fill-rule="evenodd" clip-rule="evenodd" d="M7.48221 25.8108C9.52668 25.8108 11.1851 27.4723 11.1851 29.5206C11.1851 31.5689 9.52707 33.2305 7.48221 33.2305C5.43735 33.2305 3.7793 31.5689 3.7793 29.5206C3.7793 27.4727 5.43735 25.8108 7.48221 25.8108Z" fill="#797E88"/>
<path fill-rule="evenodd" clip-rule="evenodd" d="M15.1697 46.2976C17.8099 46.2976 19.9516 48.4426 19.9516 51.0885C19.9516 53.7341 17.8103 55.8791 15.1697 55.8791C12.5291 55.8791 10.3877 53.7341 10.3877 51.0885C10.3877 48.443 12.5291 46.2976 15.1697 46.2976Z" fill="#797E88"/>
<path fill-rule="evenodd" clip-rule="evenodd" d="M60.3488 24.4543V36.518H57.0183V24.4539H52.791V21.5666H64.5761V24.4539L60.3488 24.4543ZM77.7704 21.5666V24.5394H70.3402V27.6196H77.0231V30.4646H70.3402V33.5664H78.0052V36.518H67.0097V21.5666H77.7704ZM87.8268 33.5664C89.4637 33.5664 90.8016 32.9172 91.8407 31.6196L93.9761 33.8237C92.2822 35.7341 90.286 36.6894 87.9875 36.6894C85.689 36.6894 83.7957 35.9623 82.3083 34.5072C80.8209 33.053 80.0772 31.2169 80.0772 28.9996C80.0772 26.7823 80.8353 24.9313 82.351 23.4487C83.8671 21.9662 85.7209 21.2243 87.9125 21.2243C90.3609 21.2243 92.4106 22.1587 94.0615 24.026L91.9907 26.3788C90.9371 25.0668 89.6276 24.4112 88.0625 24.4112C86.8099 24.4112 85.7385 24.8215 84.8488 25.6409C83.9592 26.4611 83.5146 27.5661 83.5146 28.9568C83.5146 30.3471 83.9349 31.4629 84.7743 32.3035C85.6133 33.1457 86.6309 33.5664 87.8268 33.5664ZM105.868 21.5666H109.199V36.518H105.868V30.6356H99.9321V36.518H96.6016V21.5666H99.9321V27.8122H105.868V21.5666ZM123.311 21.5666H126.641V36.518H123.311L116.201 27.149V36.518H112.87V21.5666H115.987L123.311 31.1921V21.5666H123.311ZM141.736 28.9572C141.736 27.6236 141.309 26.4866 140.456 25.545C139.601 24.6041 138.552 24.1331 137.306 24.1331C136.06 24.1331 135.011 24.6037 134.157 25.545C133.303 26.4866 132.876 27.6236 132.876 28.9572C132.876 30.29 133.303 31.4242 134.157 32.3583C135.011 33.2915 136.061 33.7589 137.306 33.7589C138.552 33.7589 139.601 33.2915 140.456 32.3583C141.309 31.4242 141.736 30.29 141.736 28.9572ZM142.868 34.4537C141.359 35.9295 139.502 36.6678 137.295 36.6678C135.089 36.6678 133.232 35.9299 131.723 34.4537C130.214 32.9783 129.46 31.1417 129.46 28.9456C129.46 26.7495 130.215 24.9134 131.723 23.4376C133.232 21.9618 135.089 21.2239 137.295 21.2239C139.502 21.2239 141.359 21.9618 142.868 23.4376C144.377 24.9134 145.131 26.7495 145.131 28.9456C145.131 31.1417 144.377 32.9783 142.868 34.4537ZM147.949 36.518V21.5666H151.28V33.5452H157.642V36.518H147.949ZM171.093 28.9572C171.093 27.6236 170.666 26.4866 169.812 25.545C168.958 24.6041 167.909 24.1331 166.663 24.1331C165.417 24.1331 164.368 24.6037 163.514 25.545C162.659 26.4866 162.232 27.6236 162.232 28.9572C162.232 30.29 162.659 31.4242 163.514 32.3583C164.368 33.2915 165.417 33.7589 166.663 33.7589C167.909 33.7589 168.958 33.2915 169.812 32.3583C170.666 31.4242 171.093 30.29 171.093 28.9572ZM172.225 34.4537C170.716 35.9295 168.858 36.6678 166.652 36.6678C164.446 36.6678 162.588 35.9299 161.08 34.4537C159.571 32.9783 158.817 31.1417 158.817 28.9456C158.817 26.7495 159.571 24.9134 161.08 23.4376C162.589 21.9618 164.446 21.2239 166.652 21.2239C168.858 21.2239 170.716 21.9618 172.225 23.4376C173.733 24.9134 174.488 26.7495 174.488 28.9456C174.488 31.1417 173.733 32.9783 172.225 34.4537ZM186.999 28.9033H190.351V34.2084C188.871 35.8628 186.821 36.6897 184.202 36.6897C182.01 36.6897 180.171 35.9626 178.683 34.5076C177.195 33.0534 176.452 31.2172 176.452 29C176.452 26.7827 177.21 24.9317 178.726 23.4492C180.242 21.9666 182.071 21.2247 184.213 21.2247C186.355 21.2247 188.216 21.9306 189.797 23.3421L188.067 25.845C187.398 25.2601 186.782 24.8574 186.221 24.6365C185.658 24.4156 185.049 24.3045 184.395 24.3045C183.128 24.3045 182.06 24.736 181.193 25.5985C180.324 26.4615 179.889 27.5989 179.889 29.0107C179.889 30.4218 180.306 31.5524 181.139 32.4006C181.972 33.2492 182.965 33.6739 184.117 33.6739C185.27 33.6739 186.231 33.4529 187 33.011L186.999 28.9033ZM199.489 36.518H196.159V30.6148L190.992 21.5666H194.599L197.823 27.1282L201.047 21.5666H204.655L199.488 30.6148V36.518H199.489Z" fill="#797E88"/>
<path fill-rule="evenodd" clip-rule="evenodd" d="M56.6153 43.0163C56.2847 43.0163 56.0131 43.0834 55.8014 43.2185C55.5897 43.3531 55.4836 43.5581 55.4836 43.8317C55.4836 44.105 55.5897 44.3143 55.8014 44.459C56.0135 44.6036 56.4645 44.7594 57.1552 44.9268C57.8455 45.0946 58.3658 45.3287 58.7156 45.6315C59.0657 45.934 59.2407 46.3794 59.2407 46.9675C59.2407 47.5568 59.019 48.0346 58.576 48.4013C58.1326 48.7685 57.5516 48.9511 56.8322 48.9511C55.7791 48.9511 54.8448 48.5883 54.0293 47.8608L54.7419 47.0015C55.423 47.5939 56.1292 47.89 56.8613 47.89C57.2274 47.89 57.5181 47.8105 57.733 47.653C57.9483 47.4952 58.056 47.2871 58.056 47.0258C58.056 46.7653 57.9547 46.5628 57.7526 46.4178C57.5504 46.2731 57.2019 46.1413 56.7074 46.0218C56.2129 45.9032 55.8369 45.7937 55.5801 45.6938C55.3233 45.5944 55.0952 45.4645 54.8962 45.3035C54.4978 45.0007 54.2989 44.5377 54.2989 43.9136C54.2989 43.2896 54.5254 42.809 54.978 42.471C55.431 42.1334 55.9912 41.9644 56.6591 41.9644C57.089 41.9644 57.5161 42.0347 57.94 42.177C58.3639 42.3184 58.7299 42.5177 59.0382 42.775L58.4312 43.634C58.2323 43.4538 57.9627 43.306 57.6221 43.1905C57.2816 43.0739 56.9462 43.0163 56.6153 43.0163ZM68.9678 48.8744V42.1278H70.1047V47.7937H73.1775V48.8744H68.9678ZM87.3508 43.7203C86.8918 43.244 86.3279 43.0055 85.66 43.0055C84.9925 43.0055 84.4286 43.244 83.9697 43.7203C83.5103 44.1965 83.281 44.7742 83.281 45.4529C83.281 46.1317 83.5107 46.709 83.9697 47.1848C84.4286 47.661 84.9925 47.8995 85.66 47.8995C86.3279 47.8995 86.8918 47.661 87.3508 47.1848C87.8098 46.7086 88.0398 46.1317 88.0398 45.4529C88.0395 44.7742 87.8098 44.1965 87.3508 43.7203ZM88.1838 47.9423C87.5031 48.6083 86.6621 48.9415 85.66 48.9415C84.6583 48.9415 83.8169 48.6087 83.1362 47.9423C82.4556 47.2763 82.1154 46.4469 82.1154 45.4529C82.1154 44.4589 82.4556 43.6288 83.1362 42.9628C83.8169 42.2964 84.6583 41.9636 85.66 41.9636C86.6621 41.9636 87.5031 42.2964 88.1838 42.9628C88.8645 43.6288 89.205 44.4585 89.205 45.4529C89.205 46.4469 88.8645 47.2763 88.1838 47.9423ZM103.624 45.5928H104.76V47.8995C104.124 48.5999 103.216 48.9507 102.034 48.9507C101.039 48.9507 100.205 48.6223 99.5342 47.9663C98.8631 47.3099 98.5273 46.4797 98.5273 45.4761C98.5273 44.4733 98.8691 43.6368 99.5529 42.9676C100.237 42.2984 101.064 41.9636 102.034 41.9636C103.003 41.9636 103.809 42.2465 104.451 42.813L103.844 43.6811C103.581 43.4562 103.316 43.3004 103.05 43.2129C102.783 43.1266 102.473 43.0826 102.12 43.0826C101.44 43.0826 100.868 43.3032 100.406 43.7438C99.9433 44.1845 99.7117 44.7638 99.7117 45.4817C99.7117 46.1984 99.9366 46.7749 100.386 47.2088C100.836 47.6427 101.38 47.86 102.019 47.86C102.658 47.86 103.192 47.7218 103.623 47.4453V45.5928H103.624ZM115.46 47.3394L114.786 48.8744H113.573L116.54 42.1278H117.753L120.72 48.8744H119.507L118.833 47.3394H115.46ZM118.369 46.2879L117.146 43.5077L115.923 46.2879H118.369ZM135.023 42.1278H136.16V48.8744H134.927L131.112 43.9524V48.8744H129.975V42.1278H131.112L135.023 47.1657L135.023 42.1278ZM148.989 48.8744V42.1278H150.127V45.0518H153.469V42.1278H154.606V48.8744H153.469V46.1141H150.127V48.8744H148.989ZM169.525 42.1278V43.1989H165.932V44.9847H169.16V45.9979H165.932V47.8033H169.641V48.8744H164.795V42.1278H169.525ZM184.791 44.3191C184.791 45.4318 184.307 46.1329 183.337 46.423L185.1 48.8744H183.655L182.046 46.6063H180.553V48.8744H179.417V42.1278H181.92C182.948 42.1278 183.684 42.302 184.127 42.6496C184.57 42.9968 184.791 43.5529 184.791 44.3191ZM181.969 45.5736C182.611 45.5736 183.048 45.4729 183.279 45.2744C183.511 45.0746 183.626 44.7546 183.626 44.3143C183.626 43.8729 183.508 43.5705 183.27 43.4067C183.033 43.2425 182.608 43.1609 181.999 43.1609H180.554V45.5736H181.969ZM199.48 42.1278V43.1989H195.887V44.9847H199.114V45.9979H195.887V47.8033H199.596V48.8744H194.75V42.1278H199.48Z" fill="#797E88"/>
<path fill-rule="evenodd" clip-rule="evenodd" d="M22.3274 8.55664C24.0369 8.55664 25.4231 9.94576 25.4231 11.6585C25.4231 13.3708 24.0366 14.7599 22.3274 14.7599C20.6176 14.7599 19.2314 13.3712 19.2314 11.6585C19.2314 9.94576 20.6176 8.55664 22.3274 8.55664Z" fill="#797E88"/>
</svg>
