<svg width="154" height="21" viewBox="0 0 154 21" fill="none" xmlns="http://www.w3.org/2000/svg">
<path d="M4.32 13L0.24 1.8H2.544L5.648 10.792L8.768 1.8H11.056L6.976 13H4.32ZM12.4009 13V4.936H14.5609V13H12.4009ZM13.4889 3.832C13.1049 3.832 12.7849 3.72 12.5289 3.496C12.2835 3.26133 12.1609 2.968 12.1609 2.616C12.1609 2.264 12.2835 1.976 12.5289 1.752C12.7849 1.51733 13.1049 1.4 13.4889 1.4C13.8835 1.4 14.2035 1.51733 14.4489 1.752C14.7049 1.976 14.8329 2.264 14.8329 2.616C14.8329 2.968 14.7049 3.26133 14.4489 3.496C14.2035 3.72 13.8835 3.832 13.4889 3.832ZM20.6155 13.192C19.8048 13.192 19.0848 13.0213 18.4555 12.68C17.8368 12.328 17.3515 11.8427 16.9995 11.224C16.6582 10.5947 16.4875 9.86933 16.4875 9.048C16.4875 8.20533 16.6582 7.464 16.9995 6.824C17.3515 6.17333 17.8368 5.66667 18.4555 5.304C19.0742 4.93067 19.7942 4.744 20.6155 4.744C21.4155 4.744 22.1142 4.92 22.7115 5.272C23.3088 5.624 23.7728 6.09867 24.1035 6.696C24.4342 7.29333 24.5995 7.97067 24.5995 8.728C24.5995 8.83467 24.5995 8.95733 24.5995 9.096C24.5995 9.224 24.5888 9.35733 24.5675 9.496H18.0235V8.184H22.4235C22.3915 7.66133 22.2048 7.25067 21.8635 6.952C21.5328 6.65333 21.1168 6.504 20.6155 6.504C20.2528 6.504 19.9168 6.58933 19.6075 6.76C19.2982 6.92 19.0528 7.17067 18.8715 7.512C18.7008 7.85333 18.6155 8.28533 18.6155 8.808V9.272C18.6155 9.70933 18.6955 10.0933 18.8555 10.424C19.0262 10.744 19.2608 10.9947 19.5595 11.176C19.8582 11.3467 20.2048 11.432 20.5995 11.432C20.9942 11.432 21.3195 11.3467 21.5755 11.176C21.8422 11.0053 22.0395 10.7867 22.1675 10.52H24.3755C24.2262 11.0213 23.9755 11.4747 23.6235 11.88C23.2715 12.2853 22.8395 12.6053 22.3275 12.84C21.8155 13.0747 21.2448 13.192 20.6155 13.192ZM27.64 13L25.272 4.936H27.4L28.968 11.48L28.568 11.464L30.36 4.936H32.76L34.552 11.464L34.136 11.48L35.72 4.936H37.848L35.48 13H33.24L31.336 6.28H31.784L29.88 13H27.64ZM42.2426 13L46.3386 1.8H48.7866L52.8666 13H50.5786L47.5546 4.264L44.5146 13H42.2426ZM44.0506 10.456L44.6266 8.776H50.3226L50.8826 10.456H44.0506ZM54.2904 13V1.48H56.4504V13H54.2904ZM58.556 13V1.48H60.716V13H58.556ZM70.4913 13.192C69.6806 13.192 68.9553 13.0533 68.3153 12.776C67.6859 12.4987 67.1846 12.0933 66.8113 11.56C66.4486 11.0267 66.2619 10.3813 66.2513 9.624H68.5393C68.5499 9.95467 68.6353 10.2533 68.7953 10.52C68.9553 10.7867 69.1739 11 69.4513 11.16C69.7393 11.3093 70.0806 11.384 70.4753 11.384C70.8166 11.384 71.1099 11.3307 71.3553 11.224C71.6113 11.1067 71.8086 10.9467 71.9473 10.744C72.0859 10.5413 72.1553 10.3013 72.1553 10.024C72.1553 9.704 72.0753 9.43733 71.9153 9.224C71.7659 9.01067 71.5526 8.82933 71.2753 8.68C71.0086 8.53067 70.6939 8.39733 70.3313 8.28C69.9793 8.152 69.6059 8.01867 69.2113 7.88C68.3259 7.592 67.6486 7.208 67.1793 6.728C66.7206 6.248 66.4913 5.61333 66.4913 4.824C66.4913 4.152 66.6513 3.576 66.9713 3.096C67.3019 2.616 67.7553 2.248 68.3313 1.992C68.9073 1.736 69.5633 1.608 70.2993 1.608C71.0566 1.608 71.7179 1.74133 72.2833 2.008C72.8593 2.264 73.3126 2.63733 73.6433 3.128C73.9846 3.61867 74.1606 4.19467 74.1713 4.856H71.8673C71.8566 4.61067 71.7819 4.38133 71.6433 4.168C71.5153 3.944 71.3339 3.768 71.0993 3.64C70.8646 3.50133 70.5873 3.432 70.2673 3.432C69.9899 3.42133 69.7339 3.464 69.4993 3.56C69.2753 3.656 69.0939 3.8 68.9553 3.992C68.8273 4.17333 68.7633 4.40267 68.7633 4.68C68.7633 4.94667 68.8273 5.17067 68.9553 5.352C69.0939 5.53333 69.2806 5.69333 69.5153 5.832C69.7499 5.96 70.0273 6.08267 70.3473 6.2C70.6673 6.30667 71.0139 6.41867 71.3873 6.536C71.9419 6.728 72.4539 6.95733 72.9233 7.224C73.3926 7.48 73.7659 7.816 74.0433 8.232C74.3206 8.648 74.4593 9.19733 74.4593 9.88C74.4593 10.4667 74.3046 11.0107 73.9953 11.512C73.6859 12.0133 73.2379 12.4187 72.6513 12.728C72.0753 13.0373 71.3553 13.192 70.4913 13.192ZM80.1155 13.192C79.3048 13.192 78.5848 13.0213 77.9555 12.68C77.3368 12.328 76.8515 11.8427 76.4995 11.224C76.1582 10.5947 75.9875 9.86933 75.9875 9.048C75.9875 8.20533 76.1582 7.464 76.4995 6.824C76.8515 6.17333 77.3368 5.66667 77.9555 5.304C78.5742 4.93067 79.2942 4.744 80.1155 4.744C80.9155 4.744 81.6142 4.92 82.2115 5.272C82.8088 5.624 83.2728 6.09867 83.6035 6.696C83.9342 7.29333 84.0995 7.97067 84.0995 8.728C84.0995 8.83467 84.0995 8.95733 84.0995 9.096C84.0995 9.224 84.0888 9.35733 84.0675 9.496H77.5235V8.184H81.9235C81.8915 7.66133 81.7048 7.25067 81.3635 6.952C81.0328 6.65333 80.6168 6.504 80.1155 6.504C79.7528 6.504 79.4168 6.58933 79.1075 6.76C78.7982 6.92 78.5528 7.17067 78.3715 7.512C78.2008 7.85333 78.1155 8.28533 78.1155 8.808V9.272C78.1155 9.70933 78.1955 10.0933 78.3555 10.424C78.5262 10.744 78.7608 10.9947 79.0595 11.176C79.3582 11.3467 79.7048 11.432 80.0995 11.432C80.4942 11.432 80.8195 11.3467 81.0755 11.176C81.3422 11.0053 81.5395 10.7867 81.6675 10.52H83.8755C83.7262 11.0213 83.4755 11.4747 83.1235 11.88C82.7715 12.2853 82.3395 12.6053 81.8275 12.84C81.3155 13.0747 80.7448 13.192 80.1155 13.192ZM85.8685 13V4.936H87.7885L87.9965 6.424C88.1885 6.072 88.4285 5.77333 88.7165 5.528C89.0152 5.28267 89.3512 5.09067 89.7245 4.952C90.1085 4.81333 90.5298 4.744 90.9885 4.744V7.032H90.2525C89.9325 7.032 89.6338 7.06933 89.3565 7.144C89.0898 7.21867 88.8552 7.34133 88.6525 7.512C88.4498 7.672 88.2952 7.896 88.1885 8.184C88.0818 8.472 88.0285 8.83467 88.0285 9.272V13H85.8685ZM94.5754 13L91.6154 4.936H93.8874L95.8874 10.968L97.8874 4.936H100.143L97.1994 13H94.5754ZM101.51 13V4.936H103.67V13H101.51ZM102.598 3.832C102.214 3.832 101.894 3.72 101.638 3.496C101.393 3.26133 101.27 2.968 101.27 2.616C101.27 2.264 101.393 1.976 101.638 1.752C101.894 1.51733 102.214 1.4 102.598 1.4C102.993 1.4 103.313 1.51733 103.558 1.752C103.814 1.976 103.942 2.264 103.942 2.616C103.942 2.968 103.814 3.26133 103.558 3.496C103.313 3.72 102.993 3.832 102.598 3.832ZM109.757 13.192C108.946 13.192 108.226 13.0107 107.597 12.648C106.968 12.2853 106.477 11.7893 106.125 11.16C105.773 10.5307 105.597 9.81067 105.597 9C105.597 8.168 105.773 7.43733 106.125 6.808C106.477 6.168 106.968 5.66667 107.597 5.304C108.226 4.93067 108.946 4.744 109.757 4.744C110.792 4.744 111.661 5.016 112.365 5.56C113.069 6.104 113.517 6.85067 113.709 7.8H111.421C111.325 7.42667 111.122 7.13333 110.813 6.92C110.514 6.70667 110.157 6.6 109.741 6.6C109.368 6.6 109.032 6.696 108.733 6.888C108.445 7.06933 108.216 7.34133 108.045 7.704C107.885 8.056 107.805 8.47733 107.805 8.968C107.805 9.34133 107.853 9.67733 107.949 9.976C108.045 10.264 108.178 10.5147 108.349 10.728C108.52 10.9307 108.722 11.0853 108.957 11.192C109.202 11.2987 109.464 11.352 109.741 11.352C110.018 11.352 110.269 11.304 110.493 11.208C110.728 11.112 110.925 10.9787 111.085 10.808C111.245 10.6267 111.357 10.408 111.421 10.152H113.709C113.517 11.08 113.064 11.8213 112.349 12.376C111.645 12.92 110.781 13.192 109.757 13.192ZM119.444 13.192C118.633 13.192 117.913 13.0213 117.284 12.68C116.665 12.328 116.18 11.8427 115.828 11.224C115.486 10.5947 115.316 9.86933 115.316 9.048C115.316 8.20533 115.486 7.464 115.828 6.824C116.18 6.17333 116.665 5.66667 117.284 5.304C117.902 4.93067 118.622 4.744 119.444 4.744C120.244 4.744 120.942 4.92 121.54 5.272C122.137 5.624 122.601 6.09867 122.932 6.696C123.262 7.29333 123.428 7.97067 123.428 8.728C123.428 8.83467 123.428 8.95733 123.428 9.096C123.428 9.224 123.417 9.35733 123.396 9.496H116.852V8.184H121.252C121.22 7.66133 121.033 7.25067 120.692 6.952C120.361 6.65333 119.945 6.504 119.444 6.504C119.081 6.504 118.745 6.58933 118.436 6.76C118.126 6.92 117.881 7.17067 117.7 7.512C117.529 7.85333 117.444 8.28533 117.444 8.808V9.272C117.444 9.70933 117.524 10.0933 117.684 10.424C117.854 10.744 118.089 10.9947 118.388 11.176C118.686 11.3467 119.033 11.432 119.428 11.432C119.822 11.432 120.148 11.3467 120.404 11.176C120.67 11.0053 120.868 10.7867 120.996 10.52H123.204C123.054 11.0213 122.804 11.4747 122.452 11.88C122.1 12.2853 121.668 12.6053 121.156 12.84C120.644 13.0747 120.073 13.192 119.444 13.192ZM128.493 13.192C127.757 13.192 127.117 13.0747 126.573 12.84C126.029 12.6053 125.602 12.28 125.293 11.864C124.983 11.448 124.807 10.9787 124.765 10.456H126.909C126.962 10.6587 127.053 10.8453 127.181 11.016C127.309 11.176 127.479 11.304 127.693 11.4C127.906 11.496 128.162 11.544 128.461 11.544C128.749 11.544 128.983 11.5067 129.165 11.432C129.346 11.3467 129.479 11.2347 129.565 11.096C129.661 10.9573 129.709 10.8133 129.709 10.664C129.709 10.44 129.645 10.2693 129.517 10.152C129.389 10.024 129.202 9.92267 128.957 9.848C128.711 9.77333 128.413 9.69867 128.061 9.624C127.677 9.54933 127.298 9.45867 126.925 9.352C126.562 9.23467 126.237 9.09067 125.949 8.92C125.661 8.74933 125.431 8.53067 125.261 8.264C125.09 7.99733 125.005 7.66667 125.005 7.272C125.005 6.792 125.133 6.36533 125.389 5.992C125.645 5.608 126.018 5.304 126.509 5.08C126.999 4.856 127.591 4.744 128.285 4.744C129.255 4.744 130.023 4.96267 130.589 5.4C131.154 5.83733 131.49 6.44 131.597 7.208H129.565C129.501 6.96267 129.357 6.77067 129.133 6.632C128.919 6.48267 128.631 6.408 128.269 6.408C127.885 6.408 127.591 6.47733 127.389 6.616C127.186 6.75467 127.085 6.936 127.085 7.16C127.085 7.30933 127.149 7.44267 127.277 7.56C127.415 7.67733 127.607 7.77867 127.853 7.864C128.098 7.93867 128.397 8.01333 128.749 8.088C129.367 8.216 129.911 8.36533 130.381 8.536C130.85 8.696 131.218 8.93067 131.485 9.24C131.751 9.53867 131.885 9.976 131.885 10.552C131.885 11.064 131.746 11.5227 131.469 11.928C131.191 12.3227 130.797 12.632 130.285 12.856C129.783 13.08 129.186 13.192 128.493 13.192ZM153.453 3V10C153.453 10.2917 153.359 10.5312 153.172 10.7188C152.984 10.9062 152.745 11 152.453 11C152.161 11 151.922 10.9062 151.734 10.7188C151.547 10.5312 151.453 10.2917 151.453 10V5.40625L145.172 11.7188C144.964 11.9062 144.724 12 144.453 12C144.182 12 143.943 11.9062 143.734 11.7188C143.547 11.5104 143.453 11.2708 143.453 11C143.453 10.7292 143.547 10.4896 143.734 10.2812L150.047 4H145.453C145.161 4 144.922 3.90625 144.734 3.71875C144.547 3.53125 144.453 3.29167 144.453 3C144.453 2.70833 144.547 2.46875 144.734 2.28125C144.922 2.09375 145.161 2 145.453 2H152.453C152.745 2 152.984 2.09375 153.172 2.28125C153.359 2.46875 153.453 2.70833 153.453 3Z" fill="#121212"/>
<line y1="20.5" x2="154" y2="20.5" stroke="#121212"/>
</svg>
