<svg width="142" height="142" viewBox="0 0 142 142" fill="none" xmlns="http://www.w3.org/2000/svg">
<g opacity="0.05">
<path d="M65.3213 142.002L76.6815 142.002L72.4214 71.0009L78.8115 -0.00012207L63.1913 -0.000123436L69.5814 70.2909L65.3213 142.002Z" fill="#121212"/>
<path d="M30.5818 129.65L40.42 135.33L72.2312 71.7109L113.266 13.4173L99.7382 5.60714L70.1266 69.676L30.5818 129.65Z" fill="#121212"/>
<path d="M6.67287 101.582L12.353 111.421L71.7116 72.2308L136.395 42.2642L128.585 28.7367L70.9065 69.4162L6.67287 101.582Z" fill="#121212"/>
<path d="M-5.89675e-07 65.3208L-9.31066e-08 76.681L71.001 72.4209L142.002 78.811L142.002 63.1908L71.711 69.5809L-5.89675e-07 65.3208Z" fill="#121212"/>
<path d="M12.3525 30.5814L6.67244 40.4196L70.2912 72.2308L128.585 113.265L136.395 99.7378L72.3261 70.1263L12.3525 30.5814Z" fill="#121212"/>
<path d="M40.4192 6.67214L30.581 12.3522L69.7708 71.7109L99.7374 136.395L113.265 128.585L72.5854 70.9058L40.4192 6.67214Z" fill="#121212"/>
</g>
</svg>
