<svg width="26" height="26" viewBox="0 0 26 26" fill="none" xmlns="http://www.w3.org/2000/svg">
<path d="M5.26546 4.0146C7.42574 6.17489 10.3352 9.27567 13.1512 12.284C16.0627 15.1955 18.8786 18.2028 21.1325 20.4566L23.011 22.3351C22.9169 22.241 23.0125 22.1453 22.9189 22.0518C22.301 20.1835 21.9687 18.2358 21.9335 16.2751C21.921 15.7335 21.9589 15.1926 22.0468 14.6592C22.0635 14.1457 22.1332 13.6359 22.2548 13.138L22.5558 11.7097C22.6557 11.2346 22.849 10.853 22.951 10.3756C23.1444 9.99402 23.1485 9.61449 23.436 9.327C23.5048 9.04987 23.6331 8.79169 23.8119 8.57025C23.9231 8.35441 24.0205 8.13163 24.1036 7.90323C24.3276 8.1238 24.5808 8.31259 24.8558 8.4642C25.1649 8.60581 25.4818 8.72926 25.8049 8.83391C25.6497 9.00554 25.5201 9.19861 25.4196 9.40735C25.2278 9.5992 25.2263 9.78896 24.9388 10.0765C24.7469 10.2683 24.6471 10.7435 24.4558 10.9348C24.2625 11.3164 24.1642 11.6018 23.9708 11.9834C23.7836 12.4091 23.6508 12.8573 23.5757 13.3175L23.2746 14.7457C23.153 15.2437 23.0833 15.7534 23.0666 16.267C22.938 18.1225 23.1771 19.9898 23.7703 21.7618C23.943 22.374 24.1607 22.9732 24.4215 23.5543L24.9753 25.0667L23.4649 24.3227C22.9081 24.1065 22.3398 23.9222 21.7627 23.7705C19.9745 23.2561 18.1212 23.0188 16.2679 23.0668C15.7544 23.0835 15.2446 23.1532 14.7467 23.2748L13.3184 23.5758C12.8433 23.6756 12.4617 23.869 11.9843 23.971C11.6188 24.0965 11.2675 24.259 10.9357 24.456C10.628 24.5759 10.3391 24.7385 10.0774 24.9389C9.81896 25.0439 9.58972 25.2086 9.40829 25.4198C9.19954 25.5202 9.00647 25.6499 8.83484 25.805C8.7302 25.4836 8.60695 25.1684 8.46571 24.8609C8.31409 24.5858 8.1253 24.3327 7.90474 24.1086C8.13313 24.0255 8.35591 23.9281 8.57175 23.817C8.85771 23.7193 9.04901 23.528 9.33442 23.4297C9.69369 23.2894 10.0439 23.1275 10.383 22.9447C10.8088 22.7574 11.257 22.6247 11.7172 22.5495C12.1795 22.395 12.6587 22.294 13.1454 22.2485C13.6433 22.1269 14.1531 22.0572 14.6666 22.0405C15.2359 22.0348 15.7111 21.935 16.2826 21.9271C18.2441 21.9258 20.1955 22.2598 22.0527 22.9147C22.1468 23.0089 22.2424 22.9132 22.336 23.0068L20.4592 21.1299C18.2989 18.9697 15.1981 16.0602 12.2865 13.1486C9.2793 10.3327 6.36774 7.42112 4.01715 5.26291C1.76392 3.19558 0.263539 1.6952 0.263539 1.6952C0.53677 1.52839 0.79288 1.33532 1.02828 1.11869C1.24492 0.883283 1.43799 0.627172 1.6048 0.353941C2.88504 1.51259 4.10681 2.73436 5.26546 4.0146Z" fill="#121212"/>
</svg>
