<svg width="113" height="14" viewBox="0 0 113 14" fill="none" xmlns="http://www.w3.org/2000/svg">
<path d="M6.016 12.192C4.94933 12.192 4.02133 11.9573 3.232 11.488C2.44267 11.008 1.82933 10.3413 1.392 9.488C0.954667 8.624 0.736 7.62133 0.736 6.48C0.736 5.328 0.96 4.31467 1.408 3.44C1.856 2.55467 2.50133 1.86133 3.344 1.36C4.18667 0.858666 5.19467 0.608 6.368 0.608C7.68 0.608 8.768 0.922666 9.632 1.552C10.5067 2.18133 11.072 3.056 11.328 4.176H8.912C8.752 3.68533 8.45333 3.30133 8.016 3.024C7.58933 2.736 7.03467 2.592 6.352 2.592C5.62667 2.592 5.008 2.752 4.496 3.072C3.984 3.392 3.59467 3.84 3.328 4.416C3.06133 4.992 2.928 5.68 2.928 6.48C2.928 7.29067 3.06133 7.97867 3.328 8.544C3.59467 9.10933 3.97333 9.54133 4.464 9.84C4.96533 10.128 5.552 10.272 6.224 10.272C7.20533 10.272 7.94667 10.0107 8.448 9.488C8.96 8.95467 9.264 8.26667 9.36 7.424H6.608V5.808H11.536V12H9.536L9.376 10.576C9.14133 10.928 8.864 11.2267 8.544 11.472C8.23467 11.7067 7.872 11.8827 7.456 12C7.04 12.128 6.56 12.192 6.016 12.192ZM17.3811 12.192C16.5705 12.192 15.8505 12.0213 15.2211 11.68C14.6025 11.328 14.1171 10.8427 13.7651 10.224C13.4238 9.59467 13.2531 8.86933 13.2531 8.048C13.2531 7.20533 13.4238 6.464 13.7651 5.824C14.1171 5.17333 14.6025 4.66667 15.2211 4.304C15.8398 3.93067 16.5598 3.744 17.3811 3.744C18.1811 3.744 18.8798 3.92 19.4771 4.272C20.0745 4.624 20.5385 5.09867 20.8691 5.696C21.1998 6.29333 21.3651 6.97067 21.3651 7.728C21.3651 7.83467 21.3651 7.95733 21.3651 8.096C21.3651 8.224 21.3545 8.35733 21.3331 8.496H14.7891V7.184H19.1891C19.1571 6.66133 18.9705 6.25067 18.6291 5.952C18.2985 5.65333 17.8825 5.504 17.3811 5.504C17.0185 5.504 16.6825 5.58933 16.3731 5.76C16.0638 5.92 15.8185 6.17067 15.6371 6.512C15.4665 6.85333 15.3811 7.28533 15.3811 7.808V8.272C15.3811 8.70933 15.4611 9.09333 15.6211 9.424C15.7918 9.744 16.0265 9.99467 16.3251 10.176C16.6238 10.3467 16.9705 10.432 17.3651 10.432C17.7598 10.432 18.0851 10.3467 18.3411 10.176C18.6078 10.0053 18.8051 9.78667 18.9331 9.52H21.1411C20.9918 10.0213 20.7411 10.4747 20.3891 10.88C20.0371 11.2853 19.6051 11.6053 19.0931 11.84C18.5811 12.0747 18.0105 12.192 17.3811 12.192ZM26.6568 12C26.0914 12 25.5954 11.9147 25.1688 11.744C24.7528 11.5627 24.4274 11.2693 24.1928 10.864C23.9581 10.448 23.8408 9.88267 23.8408 9.168V5.744H22.4648V3.936H23.8408L24.0807 1.744H26.0008V3.936H28.1288V5.744H26.0008V9.2C26.0008 9.56267 26.0808 9.81333 26.2408 9.952C26.4008 10.0907 26.6728 10.16 27.0568 10.16H28.1128V12H26.6568ZM33.0083 12L37.1043 0.799999H39.5523L43.6323 12H41.3443L38.3203 3.264L35.2803 12H33.0083ZM34.8163 9.456L35.3923 7.776H41.0883L41.6483 9.456H34.8163ZM56.6776 13.76L52.5976 7.344H55.0776L59.2536 13.76H56.6776ZM54.0376 12.192C52.9496 12.192 51.9896 11.9467 51.1576 11.456C50.3256 10.9653 49.675 10.288 49.2056 9.424C48.7363 8.54933 48.5016 7.54133 48.5016 6.4C48.5016 5.25867 48.7363 4.256 49.2056 3.392C49.675 2.51733 50.3256 1.83467 51.1576 1.344C51.9896 0.853333 52.9496 0.608 54.0376 0.608C55.1363 0.608 56.1016 0.853333 56.9336 1.344C57.7656 1.83467 58.411 2.51733 58.8696 3.392C59.339 4.256 59.5736 5.25867 59.5736 6.4C59.5736 7.54133 59.339 8.54933 58.8696 9.424C58.411 10.288 57.7656 10.9653 56.9336 11.456C56.1016 11.9467 55.1363 12.192 54.0376 12.192ZM54.0376 10.256C54.7203 10.256 55.307 10.1013 55.7976 9.792C56.299 9.472 56.6883 9.024 56.9656 8.448C57.243 7.872 57.3816 7.18933 57.3816 6.4C57.3816 5.6 57.243 4.91733 56.9656 4.352C56.6883 3.776 56.299 3.33333 55.7976 3.024C55.307 2.71467 54.7203 2.56 54.0376 2.56C53.3656 2.56 52.779 2.71467 52.2776 3.024C51.7763 3.33333 51.387 3.776 51.1096 4.352C50.8323 4.91733 50.6936 5.6 50.6936 6.4C50.6936 7.18933 50.8323 7.872 51.1096 8.448C51.387 9.024 51.7763 9.472 52.2776 9.792C52.779 10.1013 53.3656 10.256 54.0376 10.256ZM64.3765 12.192C63.7258 12.192 63.1658 12.0587 62.6965 11.792C62.2378 11.5147 61.8858 11.1147 61.6405 10.592C61.3952 10.0587 61.2725 9.40267 61.2725 8.624V3.936H63.4325V8.4C63.4325 9.05067 63.5658 9.54133 63.8325 9.872C64.1098 10.2027 64.5312 10.368 65.0965 10.368C65.4592 10.368 65.7792 10.288 66.0565 10.128C66.3338 9.95733 66.5525 9.71733 66.7125 9.408C66.8832 9.088 66.9685 8.69867 66.9685 8.24V3.936H69.1125V12H67.2245L67.0485 10.688C66.8138 11.1467 66.4672 11.5147 66.0085 11.792C65.5498 12.0587 65.0058 12.192 64.3765 12.192ZM75.0359 12.192C74.2679 12.192 73.5745 12.016 72.9559 11.664C72.3479 11.3013 71.8625 10.8053 71.4999 10.176C71.1479 9.536 70.9719 8.80533 70.9719 7.984C70.9719 7.14133 71.1479 6.40533 71.4999 5.776C71.8625 5.136 72.3532 4.64 72.9719 4.288C73.5905 3.92533 74.2839 3.744 75.0519 3.744C75.8305 3.744 76.5239 3.92533 77.1319 4.288C77.7505 4.64 78.2359 5.136 78.5879 5.776C78.9505 6.40533 79.1319 7.136 79.1319 7.968C79.1319 8.8 78.9505 9.536 78.5879 10.176C78.2359 10.8053 77.7505 11.3013 77.1319 11.664C76.5132 12.016 75.8145 12.192 75.0359 12.192ZM75.0359 10.32C75.3985 10.32 75.7185 10.2347 75.9959 10.064C76.2839 9.89333 76.5079 9.632 76.6679 9.28C76.8385 8.928 76.9239 8.49067 76.9239 7.968C76.9239 7.44533 76.8385 7.01333 76.6679 6.672C76.5079 6.32 76.2839 6.05867 75.9959 5.888C75.7185 5.70667 75.4039 5.616 75.0519 5.616C74.7105 5.616 74.3959 5.70667 74.1079 5.888C73.8199 6.05867 73.5905 6.32 73.4199 6.672C73.2599 7.01333 73.1799 7.44533 73.1799 7.968C73.1799 8.49067 73.2599 8.928 73.4199 9.28C73.5905 9.632 73.8145 9.89333 74.0919 10.064C74.3799 10.2347 74.6945 10.32 75.0359 10.32ZM84.313 12C83.7477 12 83.2517 11.9147 82.825 11.744C82.409 11.5627 82.0837 11.2693 81.849 10.864C81.6143 10.448 81.497 9.88267 81.497 9.168V5.744H80.121V3.936H81.497L81.737 1.744H83.657V3.936H85.785V5.744H83.657V9.2C83.657 9.56267 83.737 9.81333 83.897 9.952C84.057 10.0907 84.329 10.16 84.713 10.16H85.769V12H84.313ZM91.2718 12.192C90.4611 12.192 89.7411 12.0213 89.1118 11.68C88.4931 11.328 88.0078 10.8427 87.6558 10.224C87.3144 9.59467 87.1438 8.86933 87.1438 8.048C87.1438 7.20533 87.3144 6.464 87.6558 5.824C88.0078 5.17333 88.4931 4.66667 89.1118 4.304C89.7304 3.93067 90.4504 3.744 91.2718 3.744C92.0718 3.744 92.7704 3.92 93.3678 4.272C93.9651 4.624 94.4291 5.09867 94.7598 5.696C95.0904 6.29333 95.2558 6.97067 95.2558 7.728C95.2558 7.83467 95.2558 7.95733 95.2558 8.096C95.2558 8.224 95.2451 8.35733 95.2238 8.496H88.6798V7.184H93.0798C93.0478 6.66133 92.8611 6.25067 92.5198 5.952C92.1891 5.65333 91.7731 5.504 91.2718 5.504C90.9091 5.504 90.5731 5.58933 90.2638 5.76C89.9544 5.92 89.7091 6.17067 89.5278 6.512C89.3571 6.85333 89.2718 7.28533 89.2718 7.808V8.272C89.2718 8.70933 89.3518 9.09333 89.5118 9.424C89.6824 9.744 89.9171 9.99467 90.2158 10.176C90.5144 10.3467 90.8611 10.432 91.2558 10.432C91.6504 10.432 91.9758 10.3467 92.2318 10.176C92.4984 10.0053 92.6958 9.78667 92.8238 9.52H95.0318C94.8824 10.0213 94.6318 10.4747 94.2798 10.88C93.9278 11.2853 93.4958 11.6053 92.9838 11.84C92.4718 12.0747 91.9011 12.192 91.2718 12.192ZM113 2V9C113 9.29167 112.906 9.53125 112.719 9.71875C112.531 9.90625 112.292 10 112 10C111.708 10 111.469 9.90625 111.281 9.71875C111.094 9.53125 111 9.29167 111 9V4.40625L104.719 10.7188C104.51 10.9062 104.271 11 104 11C103.729 11 103.49 10.9062 103.281 10.7188C103.094 10.5104 103 10.2708 103 10C103 9.72917 103.094 9.48958 103.281 9.28125L109.594 3H105C104.708 3 104.469 2.90625 104.281 2.71875C104.094 2.53125 104 2.29167 104 2C104 1.70833 104.094 1.46875 104.281 1.28125C104.469 1.09375 104.708 1 105 1H112C112.292 1 112.531 1.09375 112.719 1.28125C112.906 1.46875 113 1.70833 113 2Z" fill="#121212"/>
</svg>
