<svg width="208" height="60" viewBox="0 0 208 60" fill="none" xmlns="http://www.w3.org/2000/svg">
<path fill-rule="evenodd" clip-rule="evenodd" d="M27.6538 57.7148C37.9214 57.7148 46.2451 58.2262 46.2451 58.8576C46.2451 59.4891 37.9218 60 27.6538 60C17.3862 60 9.0625 59.4891 9.0625 58.8576C9.0625 58.2262 17.3862 57.7148 27.6538 57.7148Z" fill="#797E88"/>
<path fill-rule="evenodd" clip-rule="evenodd" d="M76.0304 21.2599V18.3321H63.8516V21.2599H68.2712V31.9534H71.6111V21.2599H76.0304ZM88.2504 29.0667H80.9796V26.5051H87.5986V23.7812H80.9796V21.2196H88.1893V18.3325H77.619V31.9538H88.2504V29.0667ZM100.511 26.1999C100.042 28.2329 98.6576 29.2091 96.9263 29.2091C94.7674 29.2091 93.0362 27.4606 93.0362 25.1431C93.0362 22.8253 94.7671 21.0975 96.9263 21.0975C98.678 21.0975 100.062 22.053 100.49 24.0253L103.79 23.253C103.138 20.0204 100.287 18.0281 96.9263 18.0281C92.8735 18.0281 89.6759 21.159 89.6759 25.1435C89.6759 29.1484 92.8735 32.2589 96.9263 32.2589C100.429 32.2589 103.179 30.2666 103.81 26.8514L100.511 26.1999ZM118.148 18.3321H114.808V23.6384H109.065V18.3321H105.705V31.9534H109.065V26.5661H114.808V31.9534H118.148V18.3321ZM133.566 18.3321H130.226V26.4644L123.321 18.3321H120.531V31.9534H123.891V24.0656L130.796 31.9534H133.566V18.3321ZM142.751 18.0273C138.677 18.0273 135.479 21.1781 135.479 25.1631C135.479 29.1273 138.677 32.2582 142.751 32.2582C146.823 32.2582 150.021 29.1273 150.021 25.1631C150.022 21.1785 146.823 18.0273 142.751 18.0273ZM142.751 29.1887C140.531 29.1887 138.84 27.4809 138.84 25.1635C138.84 22.8253 140.531 21.0975 142.751 21.0975C144.971 21.0975 146.661 22.8257 146.661 25.1635C146.661 27.4809 144.971 29.1887 142.751 29.1887ZM161.997 29.026H155.276V18.3321H151.915V31.9534H161.997V29.026ZM170.266 18.0273C166.192 18.0273 162.995 21.1781 162.995 25.1631C162.995 29.1273 166.193 32.2582 170.266 32.2582C174.339 32.2582 177.536 29.1273 177.536 25.1631C177.537 21.1785 174.339 18.0273 170.266 18.0273ZM170.266 29.1887C168.046 29.1887 166.355 27.4809 166.355 25.1635C166.355 22.8253 168.046 21.0975 170.266 21.0975C172.486 21.0975 174.176 22.8257 174.176 25.1635C174.176 27.4809 172.486 29.1887 170.266 29.1887ZM185.785 23.9228V26.7692H189.96C189.451 28.2736 188.147 29.2087 186.356 29.2087C184.074 29.2087 182.343 27.4602 182.343 25.1428C182.343 22.8453 184.033 21.0972 186.254 21.0972C187.577 21.0972 188.881 21.5037 189.675 23.0487L192.913 22.1136C191.956 19.4503 189.288 18.0273 186.253 18.0273C182.159 18.0273 178.962 21.1582 178.962 25.1428C178.962 29.1477 182.179 32.2582 186.314 32.2582C190.428 32.2582 193.382 29.2901 193.382 25.1631C193.382 24.8176 193.361 24.4111 193.3 23.9228H185.785ZM201.793 27.6844V31.9534H198.372V27.7247L193.097 18.3321H196.762L200.123 24.3094L203.443 18.3321H207.19L201.793 27.6844Z" fill="#797E88"/>
<path fill-rule="evenodd" clip-rule="evenodd" d="M70.2587 38.0681C69.9246 38.0681 69.6504 38.136 69.4362 38.2715C69.222 38.4082 69.1147 38.6139 69.1147 38.8895C69.1147 39.1644 69.222 39.3748 69.4362 39.5206C69.6504 39.6665 70.1061 39.8239 70.804 39.9928C71.502 40.1609 72.0277 40.3978 72.3811 40.7018C72.7349 41.0062 72.9118 41.4549 72.9118 42.0473C72.9118 42.6407 72.688 43.1221 72.24 43.491C71.7919 43.8607 71.2047 44.0449 70.4779 44.0449C69.4131 44.0449 68.469 43.6783 67.6445 42.9467L68.3652 42.0814C69.0532 42.6776 69.7669 42.9758 70.5068 42.9758C70.8767 42.9758 71.1705 42.8964 71.3882 42.7378C71.6054 42.5785 71.7143 42.3686 71.7143 42.106C71.7143 41.8434 71.612 41.6396 71.4074 41.4941C71.2028 41.3482 70.8506 41.215 70.351 41.0953C69.8511 40.9751 69.4712 40.8657 69.2116 40.7647C68.952 40.6649 68.7217 40.5333 68.5202 40.3717C68.1179 40.0665 67.9164 39.6005 67.9164 38.9717C67.9164 38.3437 68.1452 37.8592 68.6028 37.5191C69.0605 37.1786 69.6269 37.0086 70.3018 37.0086C70.7367 37.0086 71.1682 37.0796 71.5966 37.2224C72.025 37.3648 72.3949 37.566 72.7064 37.8251L72.0934 38.6903C71.8923 38.5091 71.6197 38.3598 71.2755 38.2435C70.9321 38.1268 70.5929 38.0681 70.2587 38.0681ZM81.2731 43.9674V37.174H82.4222V42.8795H85.5282V43.9678L81.2731 43.9674ZM98.5773 38.7775C98.1132 38.2976 97.5437 38.0581 96.8688 38.0581C96.1939 38.0581 95.6243 38.2976 95.1602 38.7775C94.696 39.2569 94.4641 39.8385 94.4641 40.5229C94.4641 41.2062 94.696 41.7878 95.1602 42.2664C95.6243 42.7459 96.1939 42.9858 96.8688 42.9858C97.5437 42.9858 98.1132 42.7459 98.5773 42.2664C99.0415 41.7878 99.2738 41.2062 99.2738 40.5229C99.2738 39.8385 99.0415 39.2569 98.5773 38.7775ZM99.4195 43.03C98.7315 43.6998 97.8813 44.0349 96.8688 44.0349C95.8562 44.0349 95.006 43.6998 94.3176 43.03C93.6297 42.3593 93.2855 41.5225 93.2855 40.5225C93.2855 39.5206 93.6297 38.6849 94.3176 38.0139C95.006 37.3433 95.8558 37.0078 96.8688 37.0078C97.8813 37.0078 98.7315 37.3433 99.4195 38.0139C100.108 38.6849 100.452 39.5206 100.452 40.5225C100.452 41.5229 100.108 42.3593 99.4195 43.03ZM113.554 40.6634H114.703V42.9858C114.061 43.6925 113.142 44.0453 111.948 44.0453C110.942 44.0453 110.099 43.7152 109.421 43.0545C108.743 42.3931 108.404 41.5574 108.404 40.5463C108.404 39.536 108.75 38.6938 109.441 38.0193C110.132 37.3456 110.968 37.0086 111.948 37.0086C112.928 37.0086 113.742 37.2938 114.392 37.8635L113.778 38.7387C113.512 38.5122 113.244 38.3548 112.975 38.2677C112.705 38.1798 112.392 38.1364 112.035 38.1364C111.347 38.1364 110.77 38.3586 110.302 38.802C109.835 39.2465 109.601 39.8293 109.601 40.5513C109.601 41.2741 109.828 41.8542 110.282 42.291C110.737 42.7282 111.288 42.947 111.934 42.947C112.579 42.947 113.12 42.8081 113.554 42.529V40.6634ZM124.116 42.4223L123.435 43.9674H122.207L125.207 37.174H126.433L129.431 43.9674H128.205L127.523 42.4223H124.116ZM127.056 41.3628L125.82 38.5636L124.584 41.3628H127.056ZM142.418 37.1736H143.568V43.967H142.321L138.466 39.0108V43.967H137.316V37.1736H138.466L142.418 42.2469V37.1736ZM155.063 43.9674V37.174H156.212V40.1191H159.591V37.174H160.74V43.9674H159.591V41.1885H156.212V43.9674H155.063ZM174.349 37.1736V38.2523H170.717V40.0504H173.979V41.0707H170.717V42.8883H174.466V43.967H169.569V37.1736H174.349ZM188.309 39.3801C188.309 40.501 187.819 41.2077 186.838 41.4983L188.62 43.9674H187.16L185.534 41.6837H184.025V43.9674H182.875V37.174H185.407C186.446 37.174 187.189 37.3491 187.637 37.6995C188.085 38.0485 188.309 38.6085 188.309 39.3801ZM185.456 40.6434C186.105 40.6434 186.547 40.5429 186.781 40.3425C187.014 40.1413 187.131 39.8193 187.131 39.3748C187.131 38.9314 187.011 38.6274 186.77 38.4623C186.53 38.2961 186.102 38.2139 185.486 38.2139H184.025V40.6434H185.456ZM201.685 37.1736V38.2523H198.053V40.0504H201.314V41.0707H198.053V42.8883H201.801V43.967H196.904V37.1736H201.685Z" fill="#797E88"/>
<path fill-rule="evenodd" clip-rule="evenodd" d="M0.390625 23.3131C1.12974 19.2514 18.4893 7.83322 22.271 12.0857C25.0606 13.3963 25.5005 32.1537 20.1306 36.2188C17.3226 38.0879 1.53544 29.7103 0.390625 23.3131ZM5.43329 35.5816C4.40807 37.6346 7.11341 43.327 8.30361 43.3872C10.6821 43.3638 14.5138 37.9566 14 37C13.8258 34.9997 6.49889 34.5866 5.43329 35.5816ZM8.23977 45.8398C8.3313 44.7058 12.7821 41.1001 13.9358 42.1642C14.7364 42.4475 15.3706 47.581 14.0085 48.8428C13.2894 49.4332 8.72854 47.5645 8.23977 45.8398Z" fill="#797E88"/>
<path fill-rule="evenodd" clip-rule="evenodd" d="M5.82415 35.8775C6.54019 35.2092 10.5499 35.2822 12.3235 36.1697C10.2542 35.4883 6.85822 35.5939 6.15141 36.1942C5.63303 37.1163 5.6934 37.9869 6.14833 39.2617C5.62341 38.2399 5.3423 36.8422 5.82415 35.8775Z" fill="#797E88"/>
<path fill-rule="evenodd" clip-rule="evenodd" d="M8.62207 45.8057C8.6836 45.0445 11.0386 42.9824 12.5307 42.564C10.9763 43.2572 9.07008 45.0998 8.97778 45.8173C9.16429 46.6222 9.65691 47.0932 10.5914 47.5915C9.74997 47.276 8.85203 46.6161 8.62207 45.8057Z" fill="#797E88"/>
<path fill-rule="evenodd" clip-rule="evenodd" d="M28.9066 53.7998C21.587 50.0225 11.5166 43.0994 22.5218 36.9897C25.7813 35.1802 30.151 33.4558 33.9746 32.7975C46.981 30.5568 44.3907 61.7923 28.9066 53.7998ZM46.0223 46.8544C48.3185 46.9339 52.3844 42.1152 51.9456 41.0096C50.9377 38.858 44.4195 37.6216 43.7604 38.4853C42.0099 39.4738 44.6729 46.2993 46.0223 46.8544ZM54.2087 40.0496C53.1366 40.4369 48.0032 37.8911 48.4942 36.4013C48.4204 35.556 52.8374 32.8501 54.5521 33.5637C55.3878 33.9729 55.577 38.8903 54.2087 40.0496Z" fill="#797E88"/>
<path fill-rule="evenodd" clip-rule="evenodd" d="M46.1297 46.3766C45.2237 46.0035 43.6266 42.3318 43.6997 40.3525C43.9377 42.5145 45.4429 45.5551 46.2831 45.9482C47.3383 46.0361 48.1067 45.62 49.08 44.6788C48.3663 45.5793 47.2087 46.4135 46.1297 46.3766Z" fill="#797E88"/>
<path fill-rule="evenodd" clip-rule="evenodd" d="M54.0184 39.7171C53.2985 39.9769 50.4416 38.6933 49.4414 37.5121C50.7177 38.6365 53.1889 39.6031 53.8811 39.3889C54.5368 38.8852 54.7621 38.2422 54.8282 37.1877C54.8902 38.0822 54.6614 39.172 54.0184 39.7171Z" fill="#797E88"/>
<path fill-rule="evenodd" clip-rule="evenodd" d="M48.1834 8.51732C50.8395 11.6812 48.5364 32.3065 42.8427 32.49C40.05 33.7928 25.3193 22.1386 25.6212 15.4185C25.9761 12.0673 42.5235 5.30587 48.1834 8.51732ZM35.5085 4.54427C34.5824 2.44527 28.4684 0.882536 27.6608 1.75776C26.1576 3.59803 27.8731 9.9956 28.9387 10.2136C30.5912 11.358 35.5938 5.99837 35.5085 4.54427ZM25.8119 0.139366C24.1714 -0.587299 19.8159 1.71899 19.8105 2.64834C19.9113 4.50012 24.2718 7.29585 25.002 6.86246C26.5595 6.6567 26.6272 0.935128 25.8119 0.139366Z" fill="#797E88"/>
<path fill-rule="evenodd" clip-rule="evenodd" d="M27.2922 15.5487C28.4512 13.0297 39.0449 8.92884 44.6486 9.35724C38.4904 9.78679 29.6987 13.6992 28.4904 16.0297C28.1228 19.0023 29.2145 21.2196 31.7768 24.0756C29.3034 21.957 27.066 18.5935 27.2922 15.5487Z" fill="#797E88"/>
<path fill-rule="evenodd" clip-rule="evenodd" d="M35.0305 4.65498C35.0878 5.63192 32.4678 8.66296 30.6504 9.4568C32.4978 8.30365 34.5878 5.62962 34.5775 4.70334C34.1983 3.71641 33.4896 3.20587 32.2171 2.74023C33.3396 2.9909 34.5951 3.66881 35.0305 4.65498Z" fill="#797E88"/>
<path fill-rule="evenodd" clip-rule="evenodd" d="M25.594 0.454577C26.1414 0.988923 26.2241 4.11516 25.5924 5.52741C26.0526 3.89136 25.8512 1.24996 25.3579 0.720215C24.619 0.348629 23.9413 0.426169 22.9609 0.825009C23.741 0.380872 24.8232 0.113317 25.594 0.454577Z" fill="#797E88"/>
<path fill-rule="evenodd" clip-rule="evenodd" d="M20.7588 38.1016C21.2741 37.7285 21.859 37.3576 22.5216 36.9899C25.7811 35.1796 30.1508 33.4568 33.9744 32.7969C40.3465 31.6998 42.9722 38.6367 42.1754 45.0596C41.3978 45.121 40.6114 45.1533 39.8177 45.1533C33.2887 45.1533 27.2597 43.0159 22.392 39.4052H22.3916L22.3789 39.3956L22.3666 39.3852L22.3289 39.3576L22.3162 39.348L22.3039 39.3388L22.2912 39.3292L22.2789 39.3204L22.2662 39.3111L22.2543 39.3012L22.2416 39.2916L22.2393 39.29L22.2289 39.2824L22.2163 39.2731L22.2039 39.2632L22.1916 39.2536L22.179 39.244L22.1666 39.2344L22.1543 39.2255L22.1417 39.216L22.1293 39.2071L22.117 39.1968L22.1044 39.1872L22.092 39.1783L22.0797 39.168L22.0674 39.1591L22.0424 39.1399L22.0301 39.1307L21.9186 39.0444L21.9063 39.0351L21.894 39.0256L21.8817 39.016L21.8694 39.0071L21.8575 38.9971L21.6852 38.8624L21.6729 38.852L21.6606 38.8424L21.6486 38.8328L21.6363 38.8232L21.624 38.8129L21.6121 38.8033L21.5998 38.7941C21.3141 38.568 21.0349 38.3377 20.7588 38.1016Z" fill="#797E88"/>
<path fill-rule="evenodd" clip-rule="evenodd" d="M10.6137 14.3398C15.3957 11.6508 20.4345 10.0205 22.2707 12.0861C25.0603 13.3962 25.5002 32.154 20.1303 36.2188C19.8673 36.3939 19.4904 36.4795 19.0224 36.4845C13.8252 31.2393 10.6045 24.039 10.5691 16.0883V16.0833V16.0783V16.073V16.068V16.063V16.058V16.0526V16.048V16.043L10.5687 16.0377V16.033V16.0277V16.0227V16.0177V16.0127V16.0073L10.5684 16.002V15.9973V15.992V15.987V15.982V15.977V15.972V15.9666V15.962V15.9567V15.9513V15.9459V15.9405V15.9352V15.9313V15.9306V15.9248V15.9198V15.9144V15.9091V15.9056L10.5687 15.8772V15.8718C10.5691 15.3578 10.5849 14.8473 10.6137 14.3398Z" fill="#797E88"/>
<path fill-rule="evenodd" clip-rule="evenodd" d="M1.78125 23.3259C2.27733 20.5985 11.5197 14.0006 17.0546 13.0271C11.1959 14.9695 3.6525 20.9386 3.06144 23.4945C3.44445 26.4652 5.05381 28.3427 8.24639 30.4747C5.32339 29.0352 2.31924 26.3313 1.78125 23.3259Z" fill="#797E88"/>
<path fill-rule="evenodd" clip-rule="evenodd" d="M18.7705 41.734C19.5761 39.0814 29.5142 33.5829 35.1248 33.2485C29.0816 34.5084 20.9033 39.5762 20.0226 42.048C20.0622 45.0425 21.4459 47.0913 24.3727 49.5737C21.6343 47.811 18.9601 44.7811 18.7705 41.734Z" fill="#797E88"/>
</svg>
