<svg width="148" height="148" viewBox="0 0 148 148" fill="none" xmlns="http://www.w3.org/2000/svg">
<circle cx="74" cy="74" r="73.5" stroke="#121212"/>
<path d="M26.128 81.192C25.008 81.192 24.0427 80.952 23.232 80.472C22.432 79.9813 21.8133 79.304 21.376 78.44C20.9493 77.5653 20.736 76.5573 20.736 75.416C20.736 74.2747 20.9493 73.2667 21.376 72.392C21.8133 71.5173 22.432 70.8347 23.232 70.344C24.0427 69.8533 25.008 69.608 26.128 69.608C27.4827 69.608 28.592 69.944 29.456 70.616C30.32 71.288 30.8587 72.2373 31.072 73.464H28.72C28.5813 72.8667 28.288 72.4027 27.84 72.072C27.4027 71.7307 26.8267 71.56 26.112 71.56C25.4507 71.56 24.88 71.72 24.4 72.04C23.9307 72.3493 23.568 72.792 23.312 73.368C23.056 73.9333 22.928 74.616 22.928 75.416C22.928 76.2053 23.056 76.888 23.312 77.464C23.568 78.04 23.9307 78.4827 24.4 78.792C24.88 79.1013 25.4507 79.256 26.112 79.256C26.8267 79.256 27.4027 79.1013 27.84 78.792C28.2773 78.472 28.5653 78.0293 28.704 77.464H31.072C30.8587 78.6267 30.32 79.5387 29.456 80.2C28.592 80.8613 27.4827 81.192 26.128 81.192ZM36.6765 81.192C35.9085 81.192 35.2152 81.016 34.5965 80.664C33.9885 80.3013 33.5032 79.8053 33.1405 79.176C32.7885 78.536 32.6125 77.8053 32.6125 76.984C32.6125 76.1413 32.7885 75.4053 33.1405 74.776C33.5032 74.136 33.9938 73.64 34.6125 73.288C35.2312 72.9253 35.9245 72.744 36.6925 72.744C37.4712 72.744 38.1645 72.9253 38.7725 73.288C39.3912 73.64 39.8765 74.136 40.2285 74.776C40.5912 75.4053 40.7725 76.136 40.7725 76.968C40.7725 77.8 40.5912 78.536 40.2285 79.176C39.8765 79.8053 39.3912 80.3013 38.7725 80.664C38.1538 81.016 37.4552 81.192 36.6765 81.192ZM36.6765 79.32C37.0392 79.32 37.3592 79.2347 37.6365 79.064C37.9245 78.8933 38.1485 78.632 38.3085 78.28C38.4792 77.928 38.5645 77.4907 38.5645 76.968C38.5645 76.4453 38.4792 76.0133 38.3085 75.672C38.1485 75.32 37.9245 75.0587 37.6365 74.888C37.3592 74.7067 37.0445 74.616 36.6925 74.616C36.3512 74.616 36.0365 74.7067 35.7485 74.888C35.4605 75.0587 35.2312 75.32 35.0605 75.672C34.9005 76.0133 34.8205 76.4453 34.8205 76.968C34.8205 77.4907 34.9005 77.928 35.0605 78.28C35.2312 78.632 35.4552 78.8933 35.7325 79.064C36.0205 79.2347 36.3352 79.32 36.6765 79.32ZM42.6341 81V72.936H44.5381L44.6981 74.248C44.9435 73.8 45.2901 73.4373 45.7381 73.16C46.1968 72.8827 46.7408 72.744 47.3701 72.744C48.0421 72.744 48.6075 72.8827 49.0661 73.16C49.5248 73.4373 49.8715 73.8427 50.1061 74.376C50.3515 74.9093 50.4741 75.5653 50.4741 76.344V81H48.3301V76.552C48.3301 75.912 48.1915 75.4213 47.9141 75.08C47.6475 74.7387 47.2315 74.568 46.6661 74.568C46.3035 74.568 45.9781 74.6533 45.6901 74.824C45.4128 74.9947 45.1941 75.24 45.0341 75.56C44.8741 75.8693 44.7941 76.248 44.7941 76.696V81H42.6341ZM56.1411 81C55.5758 81 55.0798 80.9147 54.6531 80.744C54.2371 80.5627 53.9118 80.2693 53.6771 79.864C53.4425 79.448 53.3251 78.8827 53.3251 78.168V74.744H51.9491V72.936H53.3251L53.5651 70.744H55.4851V72.936H57.6131V74.744H55.4851V78.2C55.4851 78.5627 55.5651 78.8133 55.7251 78.952C55.8851 79.0907 56.1571 79.16 56.5411 79.16H57.5971V81H56.1411ZM62.151 81.192C61.479 81.192 60.9243 81.0853 60.487 80.872C60.0497 80.648 59.7243 80.3547 59.511 79.992C59.3083 79.6187 59.207 79.208 59.207 78.76C59.207 78.2693 59.3297 77.8373 59.575 77.464C59.831 77.0907 60.2097 76.7973 60.711 76.584C61.223 76.3707 61.863 76.264 62.631 76.264H64.631C64.631 75.8693 64.5777 75.544 64.471 75.288C64.3643 75.0213 64.199 74.824 63.975 74.696C63.751 74.568 63.4523 74.504 63.079 74.504C62.6737 74.504 62.327 74.5947 62.039 74.776C61.7617 74.9467 61.591 75.2133 61.527 75.576H59.431C59.4843 75 59.671 74.504 59.991 74.088C60.3217 73.6613 60.7537 73.3307 61.287 73.096C61.831 72.8613 62.4337 72.744 63.095 72.744C63.8523 72.744 64.5083 72.872 65.063 73.128C65.6177 73.384 66.0443 73.752 66.343 74.232C66.6417 74.712 66.791 75.304 66.791 76.008V81H64.967L64.727 79.768C64.6097 79.9813 64.471 80.1733 64.311 80.344C64.151 80.5147 63.9643 80.664 63.751 80.792C63.5377 80.92 63.2977 81.016 63.031 81.08C62.7643 81.1547 62.471 81.192 62.151 81.192ZM62.663 79.528C62.9403 79.528 63.1857 79.48 63.399 79.384C63.623 79.2773 63.815 79.1387 63.975 78.968C64.135 78.7867 64.2577 78.584 64.343 78.36C64.439 78.1253 64.503 77.8747 64.535 77.608V77.592H62.887C62.5563 77.592 62.2843 77.6347 62.071 77.72C61.8683 77.7947 61.719 77.9067 61.623 78.056C61.527 78.2053 61.479 78.376 61.479 78.568C61.479 78.7813 61.527 78.9573 61.623 79.096C61.719 79.2347 61.8577 79.3413 62.039 79.416C62.2203 79.4907 62.4283 79.528 62.663 79.528ZM72.71 81.192C71.8993 81.192 71.1793 81.0107 70.55 80.648C69.9207 80.2853 69.43 79.7893 69.078 79.16C68.726 78.5307 68.55 77.8107 68.55 77C68.55 76.168 68.726 75.4373 69.078 74.808C69.43 74.168 69.9207 73.6667 70.55 73.304C71.1793 72.9307 71.8993 72.744 72.71 72.744C73.7447 72.744 74.614 73.016 75.318 73.56C76.022 74.104 76.47 74.8507 76.662 75.8H74.374C74.278 75.4267 74.0753 75.1333 73.766 74.92C73.4673 74.7067 73.11 74.6 72.694 74.6C72.3207 74.6 71.9847 74.696 71.686 74.888C71.398 75.0693 71.1687 75.3413 70.998 75.704C70.838 76.056 70.758 76.4773 70.758 76.968C70.758 77.3413 70.806 77.6773 70.902 77.976C70.998 78.264 71.1313 78.5147 71.302 78.728C71.4727 78.9307 71.6753 79.0853 71.91 79.192C72.1553 79.2987 72.4167 79.352 72.694 79.352C72.9713 79.352 73.222 79.304 73.446 79.208C73.6807 79.112 73.878 78.9787 74.038 78.808C74.198 78.6267 74.31 78.408 74.374 78.152H76.662C76.47 79.08 76.0167 79.8213 75.302 80.376C74.598 80.92 73.734 81.192 72.71 81.192ZM82.063 81C81.4977 81 81.0017 80.9147 80.575 80.744C80.159 80.5627 79.8337 80.2693 79.599 79.864C79.3643 79.448 79.247 78.8827 79.247 78.168V74.744H77.871V72.936H79.247L79.487 70.744H81.407V72.936H83.535V74.744H81.407V78.2C81.407 78.5627 81.487 78.8133 81.647 78.952C81.807 79.0907 82.079 79.16 82.463 79.16H83.519V81H82.063ZM93.5025 81.192C92.6812 81.192 91.9345 81.0267 91.2625 80.696C90.5905 80.3653 90.0572 79.8693 89.6625 79.208C89.2678 78.5467 89.0705 77.704 89.0705 76.68V69.8H91.2305V76.696C91.2305 77.2507 91.3212 77.72 91.5025 78.104C91.6838 78.4773 91.9452 78.7547 92.2865 78.936C92.6385 79.1173 93.0545 79.208 93.5345 79.208C94.0252 79.208 94.4412 79.1173 94.7825 78.936C95.1345 78.7547 95.4012 78.4773 95.5825 78.104C95.7638 77.72 95.8545 77.2507 95.8545 76.696V69.8H98.0145V76.68C98.0145 77.704 97.8118 78.5467 97.4065 79.208C97.0012 79.8693 96.4518 80.3653 95.7585 80.696C95.0758 81.0267 94.3238 81.192 93.5025 81.192ZM103.368 81.192C102.632 81.192 101.992 81.0747 101.448 80.84C100.904 80.6053 100.477 80.28 100.168 79.864C99.8583 79.448 99.6823 78.9787 99.6396 78.456H101.784C101.837 78.6587 101.928 78.8453 102.056 79.016C102.184 79.176 102.354 79.304 102.568 79.4C102.781 79.496 103.037 79.544 103.336 79.544C103.624 79.544 103.858 79.5067 104.04 79.432C104.221 79.3467 104.354 79.2347 104.44 79.096C104.536 78.9573 104.584 78.8133 104.584 78.664C104.584 78.44 104.52 78.2693 104.392 78.152C104.264 78.024 104.077 77.9227 103.832 77.848C103.586 77.7733 103.288 77.6987 102.936 77.624C102.552 77.5493 102.173 77.4587 101.8 77.352C101.437 77.2347 101.112 77.0907 100.824 76.92C100.536 76.7493 100.306 76.5307 100.136 76.264C99.965 75.9973 99.8796 75.6667 99.8796 75.272C99.8796 74.792 100.008 74.3653 100.264 73.992C100.52 73.608 100.893 73.304 101.384 73.08C101.874 72.856 102.466 72.744 103.16 72.744C104.13 72.744 104.898 72.9627 105.464 73.4C106.029 73.8373 106.365 74.44 106.472 75.208H104.44C104.376 74.9627 104.232 74.7707 104.008 74.632C103.794 74.4827 103.506 74.408 103.144 74.408C102.76 74.408 102.466 74.4773 102.264 74.616C102.061 74.7547 101.96 74.936 101.96 75.16C101.96 75.3093 102.024 75.4427 102.152 75.56C102.29 75.6773 102.482 75.7787 102.728 75.864C102.973 75.9387 103.272 76.0133 103.624 76.088C104.242 76.216 104.786 76.3653 105.256 76.536C105.725 76.696 106.093 76.9307 106.36 77.24C106.626 77.5387 106.76 77.976 106.76 78.552C106.76 79.064 106.621 79.5227 106.344 79.928C106.066 80.3227 105.672 80.632 105.16 80.856C104.658 81.08 104.061 81.192 103.368 81.192ZM128.328 71V78C128.328 78.2917 128.234 78.5312 128.047 78.7188C127.859 78.9062 127.62 79 127.328 79C127.036 79 126.797 78.9062 126.609 78.7188C126.422 78.5312 126.328 78.2917 126.328 78V73.4062L120.047 79.7188C119.839 79.9062 119.599 80 119.328 80C119.057 80 118.818 79.9062 118.609 79.7188C118.422 79.5104 118.328 79.2708 118.328 79C118.328 78.7292 118.422 78.4896 118.609 78.2812L124.922 72H120.328C120.036 72 119.797 71.9062 119.609 71.7188C119.422 71.5312 119.328 71.2917 119.328 71C119.328 70.7083 119.422 70.4688 119.609 70.2812C119.797 70.0938 120.036 70 120.328 70H127.328C127.62 70 127.859 70.0938 128.047 70.2812C128.234 70.4688 128.328 70.7083 128.328 71Z" fill="#121212"/>
</svg>
