<svg width="92" height="13" viewBox="0 0 92 13" fill="none" xmlns="http://www.w3.org/2000/svg">
<path d="M0.104 12V0.799999H2.264V10.32H7.176V12H0.104ZM12.4749 12.192C11.6642 12.192 10.9442 12.0213 10.3149 11.68C9.69621 11.328 9.21088 10.8427 8.85888 10.224C8.51754 9.59467 8.34688 8.86933 8.34688 8.048C8.34688 7.20533 8.51754 6.464 8.85888 5.824C9.21088 5.17333 9.69621 4.66667 10.3149 4.304C10.9335 3.93067 11.6535 3.744 12.4749 3.744C13.2749 3.744 13.9735 3.92 14.5709 4.272C15.1682 4.624 15.6322 5.09867 15.9629 5.696C16.2935 6.29333 16.4589 6.97067 16.4589 7.728C16.4589 7.83467 16.4589 7.95733 16.4589 8.096C16.4589 8.224 16.4482 8.35733 16.4269 8.496H9.88288V7.184H14.2829C14.2509 6.66133 14.0642 6.25067 13.7229 5.952C13.3922 5.65333 12.9762 5.504 12.4749 5.504C12.1122 5.504 11.7762 5.58933 11.4669 5.76C11.1575 5.92 10.9122 6.17067 10.7309 6.512C10.5602 6.85333 10.4749 7.28533 10.4749 7.808V8.272C10.4749 8.70933 10.5549 9.09333 10.7149 9.424C10.8855 9.744 11.1202 9.99467 11.4189 10.176C11.7175 10.3467 12.0642 10.432 12.4589 10.432C12.8535 10.432 13.1789 10.3467 13.4349 10.176C13.7015 10.0053 13.8989 9.78667 14.0269 9.52H16.2349C16.0855 10.0213 15.8349 10.4747 15.4829 10.88C15.1309 11.2853 14.6989 11.6053 14.1869 11.84C13.6749 12.0747 13.1042 12.192 12.4749 12.192ZM21.7505 12C21.1852 12 20.6892 11.9147 20.2625 11.744C19.8465 11.5627 19.5212 11.2693 19.2865 10.864C19.0518 10.448 18.9345 9.88267 18.9345 9.168V5.744H17.5585V3.936H18.9345L19.1745 1.744H21.0945V3.936H23.2225V5.744H21.0945V9.2C21.0945 9.56267 21.1745 9.81333 21.3345 9.952C21.4945 10.0907 21.7665 10.16 22.1505 10.16H23.2065V12H21.7505ZM27.5844 0.799999L25.9364 4.896H24.4644L25.3284 0.799999H27.5844ZM31.5708 12.192C30.8348 12.192 30.1948 12.0747 29.6508 11.84C29.1068 11.6053 28.6801 11.28 28.3708 10.864C28.0614 10.448 27.8854 9.97867 27.8428 9.456H29.9868C30.0401 9.65867 30.1308 9.84533 30.2588 10.016C30.3868 10.176 30.5574 10.304 30.7708 10.4C30.9841 10.496 31.2401 10.544 31.5388 10.544C31.8268 10.544 32.0614 10.5067 32.2428 10.432C32.4241 10.3467 32.5574 10.2347 32.6428 10.096C32.7388 9.95733 32.7868 9.81333 32.7868 9.664C32.7868 9.44 32.7228 9.26933 32.5948 9.152C32.4668 9.024 32.2801 8.92267 32.0348 8.848C31.7894 8.77333 31.4908 8.69867 31.1388 8.624C30.7548 8.54933 30.3761 8.45867 30.0028 8.352C29.6401 8.23467 29.3148 8.09067 29.0268 7.92C28.7388 7.74933 28.5094 7.53067 28.3388 7.264C28.1681 6.99733 28.0828 6.66667 28.0828 6.272C28.0828 5.792 28.2108 5.36533 28.4668 4.992C28.7228 4.608 29.0961 4.304 29.5868 4.08C30.0774 3.856 30.6694 3.744 31.3628 3.744C32.3334 3.744 33.1014 3.96267 33.6668 4.4C34.2321 4.83733 34.5681 5.44 34.6748 6.208H32.6428C32.5788 5.96267 32.4348 5.77067 32.2108 5.632C31.9974 5.48267 31.7094 5.408 31.3468 5.408C30.9628 5.408 30.6694 5.47733 30.4668 5.616C30.2641 5.75467 30.1628 5.936 30.1628 6.16C30.1628 6.30933 30.2268 6.44267 30.3548 6.56C30.4934 6.67733 30.6854 6.77867 30.9308 6.864C31.1761 6.93867 31.4748 7.01333 31.8268 7.088C32.4454 7.216 32.9894 7.36533 33.4588 7.536C33.9281 7.696 34.2961 7.93067 34.5628 8.24C34.8294 8.53867 34.9628 8.976 34.9628 9.552C34.9628 10.064 34.8241 10.5227 34.5468 10.928C34.2694 11.3227 33.8748 11.632 33.3628 11.856C32.8614 12.08 32.2641 12.192 31.5708 12.192ZM43.212 12V2.544H39.932V0.799999H48.62V2.544H45.356V12H43.212ZM51.4323 12.192C50.7603 12.192 50.2056 12.0853 49.7682 11.872C49.3309 11.648 49.0056 11.3547 48.7923 10.992C48.5896 10.6187 48.4883 10.208 48.4883 9.76C48.4883 9.26933 48.6109 8.83733 48.8563 8.464C49.1123 8.09067 49.4909 7.79733 49.9923 7.584C50.5043 7.37067 51.1443 7.264 51.9123 7.264H53.9123C53.9123 6.86933 53.8589 6.544 53.7523 6.288C53.6456 6.02133 53.4803 5.824 53.2563 5.696C53.0323 5.568 52.7336 5.504 52.3602 5.504C51.9549 5.504 51.6083 5.59467 51.3203 5.776C51.0429 5.94667 50.8723 6.21333 50.8083 6.576H48.7122C48.7656 6 48.9523 5.504 49.2723 5.088C49.6029 4.66133 50.0349 4.33067 50.5683 4.096C51.1123 3.86133 51.7149 3.744 52.3763 3.744C53.1336 3.744 53.7896 3.872 54.3443 4.128C54.8989 4.384 55.3256 4.752 55.6243 5.232C55.9229 5.712 56.0723 6.304 56.0723 7.008V12H54.2483L54.0083 10.768C53.8909 10.9813 53.7523 11.1733 53.5923 11.344C53.4323 11.5147 53.2456 11.664 53.0323 11.792C52.8189 11.92 52.5789 12.016 52.3123 12.08C52.0456 12.1547 51.7523 12.192 51.4323 12.192ZM51.9443 10.528C52.2216 10.528 52.4669 10.48 52.6803 10.384C52.9043 10.2773 53.0963 10.1387 53.2563 9.968C53.4163 9.78667 53.5389 9.584 53.6243 9.36C53.7203 9.12533 53.7843 8.87467 53.8163 8.608V8.592H52.1683C51.8376 8.592 51.5656 8.63467 51.3523 8.72C51.1496 8.79467 51.0003 8.90667 50.9043 9.056C50.8083 9.20533 50.7603 9.376 50.7603 9.568C50.7603 9.78133 50.8083 9.95733 50.9043 10.096C51.0003 10.2347 51.1389 10.3413 51.3203 10.416C51.5016 10.4907 51.7096 10.528 51.9443 10.528ZM58.0872 12V0.48H60.2473V12H58.0872ZM67.6329 12L64.1929 7.584L67.2809 3.936H69.8249L65.8409 8.496V6.784L70.3209 12H67.6329ZM62.3529 12V0.48H64.5129V12H62.3529ZM91.3438 2V9C91.3438 9.29167 91.25 9.53125 91.0625 9.71875C90.875 9.90625 90.6354 10 90.3438 10C90.0521 10 89.8125 9.90625 89.625 9.71875C89.4375 9.53125 89.3438 9.29167 89.3438 9V4.40625L83.0625 10.7188C82.8542 10.9062 82.6146 11 82.3438 11C82.0729 11 81.8333 10.9062 81.625 10.7188C81.4375 10.5104 81.3438 10.2708 81.3438 10C81.3438 9.72917 81.4375 9.48958 81.625 9.28125L87.9375 3H83.3438C83.0521 3 82.8125 2.90625 82.625 2.71875C82.4375 2.53125 82.3438 2.29167 82.3438 2C82.3438 1.70833 82.4375 1.46875 82.625 1.28125C82.8125 1.09375 83.0521 1 83.3438 1H90.3438C90.6354 1 90.875 1.09375 91.0625 1.28125C91.25 1.46875 91.3438 1.70833 91.3438 2Z" fill="#121212"/>
</svg>
