<svg width="211" height="60" viewBox="0 0 211 60" fill="none" xmlns="http://www.w3.org/2000/svg">
<path fill-rule="evenodd" clip-rule="evenodd" d="M25.1783 10.1156C28.781 10.1156 32.2053 10.8777 35.2993 12.2484C35.074 12.4085 34.9262 12.6711 34.9262 12.9669V17.7771C34.9262 18.262 35.3235 18.6582 35.809 18.6582H36.4134H40.0442H40.6483C40.8693 18.6582 41.0724 18.5762 41.2272 18.4413V20.6254C41.2272 21.0491 41.5745 21.3958 41.9989 21.3958H45.702C45.8206 21.3958 45.933 21.3683 46.0334 21.3207C48.6439 25.2609 50.1649 29.9818 50.1649 35.0576C50.1649 48.8306 38.9755 60 25.1783 60C11.3811 60 0.191406 48.8303 0.191406 35.0576C0.191738 21.285 11.3811 10.1156 25.1783 10.1156ZM43.9 14.723C43.6445 14.723 43.4354 14.9314 43.4354 15.1864V17.6047C43.4354 17.8597 43.6445 18.0681 43.9 18.0681H45.9469C46.202 18.0681 46.4111 17.8597 46.4111 17.6047V15.1864C46.4111 14.9314 46.202 14.723 45.9469 14.723H43.9ZM37.2053 12.387C36.867 12.387 36.59 12.6635 36.59 13.0016V16.355C36.59 16.6934 36.867 16.9696 37.2053 16.9696H40.1585C40.4968 16.9696 40.7742 16.6934 40.7742 16.355V13.0016C40.7742 12.6635 40.4968 12.387 40.1585 12.387H37.2053ZM41.2096 6.20211C40.8395 6.20211 40.5369 6.50377 40.5369 6.87325V10.5396C40.5369 10.9091 40.8395 11.2111 41.2096 11.2111H44.4378C44.8076 11.2111 45.1102 10.9091 45.1102 10.5396V6.87325C45.1102 6.50377 44.8076 6.20211 44.4378 6.20211H41.2096ZM36.6039 0H39.8321C40.2023 0 40.5048 0.302001 40.5048 0.671481V4.33816C40.5048 4.70731 40.2023 5.00931 39.8321 5.00931H36.6039C36.2341 5.00931 35.9312 4.70731 35.9312 4.33816V0.671481C35.9312 0.302001 36.2341 0 36.6039 0ZM46.0271 3.74839H47.6412C47.8264 3.74839 47.9775 3.89923 47.9775 4.0838V5.91731C47.9775 6.10221 47.8264 6.25304 47.6412 6.25304H46.0271C45.8418 6.25304 45.6911 6.10221 45.6911 5.91731V4.0838C45.6911 3.89923 45.8418 3.74839 46.0271 3.74839ZM46.5065 10.7487C46.2444 10.7487 46.0304 10.9623 46.0304 11.2233V13.818C46.0304 14.0793 46.2444 14.293 46.5065 14.293H48.7907C49.0531 14.293 49.2669 14.0796 49.2669 13.818V11.2233C49.2669 10.962 49.0531 10.7487 48.7907 10.7487H46.5065ZM8.94651 24.8838L8.94419 24.8868L8.94187 24.8905L8.94022 24.8938L8.93756 24.8967L8.93392 24.9034L8.93193 24.907L8.92961 24.91L8.9253 24.9166L8.92365 24.9196L8.82821 25.0717L8.82655 25.075L8.8239 25.0783L8.82225 25.0816L8.81993 25.085L8.81827 25.0879L8.81596 25.0912L8.8143 25.0942L8.81363 25.0945L8.80833 25.1038L8.76458 25.1782L8.71257 25.2659L8.70925 25.2715L8.70627 25.2771L8.69964 25.288L8.69632 25.2937L8.69302 25.299L8.69003 25.3046L8.68638 25.3102L8.6834 25.3158L8.67976 25.3211L8.67644 25.3271L8.67346 25.3321L8.67048 25.3377L8.66684 25.3436L8.66385 25.3489L8.66087 25.3545L8.6569 25.3602L8.65425 25.3655L8.65126 25.3707L8.64795 25.3767L8.64463 25.382C8.60023 25.4577 8.55582 25.5332 8.51341 25.6102L8.50977 25.6152L8.50712 25.6212L8.49353 25.6456C8.42096 25.7753 8.34906 25.905 8.27881 26.0369L8.20921 26.1686C8.00476 26.5592 7.81323 26.9585 7.63595 27.364L7.62435 27.3902C7.57431 27.5053 7.5246 27.6217 7.47655 27.7385L7.43812 27.8327C7.39537 27.9376 7.35329 28.0428 7.31286 28.1486L7.25885 28.2909C7.22671 28.3779 7.19423 28.4649 7.16275 28.5522L7.08985 28.7593L7.01761 28.9723C6.98945 29.0563 6.96228 29.1406 6.93477 29.2257L6.87347 29.4231C6.8463 29.5111 6.82012 29.5991 6.7946 29.6874L6.74556 29.8614C6.71772 29.959 6.69154 30.0566 6.6657 30.1548L6.62924 30.2954C6.60141 30.4052 6.57457 30.516 6.54839 30.6265L6.52023 30.7469C6.49372 30.8647 6.46754 30.9831 6.44268 31.1018L6.42181 31.2037C6.3963 31.332 6.37111 31.4607 6.34759 31.5901L6.33565 31.6589C6.31179 31.7928 6.28926 31.9261 6.26905 32.0608L6.25911 32.1243C6.2389 32.2586 6.22034 32.3935 6.20212 32.5291L6.19317 32.6029C6.17527 32.7441 6.15936 32.8857 6.14511 33.0273L6.14114 33.0617C6.12589 33.2086 6.11364 33.3564 6.10171 33.5043L6.09839 33.5503C6.08712 33.7018 6.07719 33.8536 6.06924 34.0054L6.06823 34.0226C6.06061 34.1791 6.05432 34.3365 6.05035 34.4936L6.05001 34.5059L6.04968 34.5224C6.04504 34.6812 6.04339 34.8393 6.04339 34.9987C6.04339 35.1592 6.0457 35.3183 6.04968 35.4774L6.05035 35.5078C6.05399 35.6573 6.06029 35.8065 6.06724 35.9553L6.06989 36.0043C6.07685 36.1383 6.08547 36.2716 6.09541 36.4045L6.10436 36.5279C6.11364 36.6404 6.12325 36.7522 6.13451 36.864L6.15572 37.0701L6.18058 37.2824C6.19317 37.3916 6.20741 37.5007 6.22232 37.6096L6.22895 37.6572L6.23591 37.7058L6.24287 37.7538C6.25911 37.8663 6.27601 37.9784 6.29456 38.0902L6.30251 38.1378C6.38701 38.6476 6.49106 39.151 6.61533 39.6458C6.68061 39.5314 6.74986 39.4189 6.82376 39.327C8.35501 37.4078 9.96613 36.0086 12.7155 35.2779C13.8919 34.966 14.8356 34.8323 14.8356 34.8323C12.8547 36.345 12.9339 37.6056 12.746 39.9055C12.746 39.9055 13.5817 38.2503 14.2985 37.4773C17.4485 34.0802 20.9185 33.0478 25.0577 35.4632C25.9083 35.959 26.356 36.3734 26.356 36.3734C26.356 36.3734 25.5634 36.2008 24.5023 36.1793C20.9169 36.1072 18.9903 39.0273 18.2378 42.3334C18.1483 42.7264 18.092 43.2408 18.081 43.8256C17.9071 52.8185 27.034 54.8567 33.9934 51.9531C39.0507 49.3268 42.7856 44.5126 43.9384 38.768C45.8541 27.6574 38.7452 16.6183 26.2509 15.9287L26.235 15.9277L26.2191 15.9267L26.0919 15.9207L26.076 15.9197L26.0604 15.9191L26.0445 15.9184L25.8059 15.9092L25.7897 15.9085L25.7744 15.9082C25.6995 15.9058 25.6253 15.9042 25.5508 15.9029H25.5345L25.5189 15.9025C25.405 15.9002 25.2916 15.8982 25.1773 15.8982C18.3342 15.8976 12.3285 19.4885 8.94651 24.8838Z" fill="#797E88"/>
<path fill-rule="evenodd" clip-rule="evenodd" d="M26.3544 36.3699L26.357 36.3725H26.3563L26.3547 36.3722V36.3719L26.3517 36.3715L26.3477 36.3702L26.3424 36.3695V36.3692L26.3361 36.3682L26.3206 36.3652V36.3646L26.3109 36.3629L26.3003 36.3613V36.3609L26.2891 36.3593V36.3586L26.2765 36.3566L26.2629 36.354L26.2327 36.3484L26.2162 36.3454V36.3451L26.1986 36.3421L26.1801 36.3388V36.3385L26.1403 36.3318L26.1191 36.3279L26.0965 36.3242L26.0734 36.3203L26.0246 36.3123L25.9991 36.3084V36.308L25.9726 36.3037L25.9451 36.2998L25.9169 36.2955L25.8881 36.2912L25.8278 36.2826H25.8275L25.796 36.2786L25.7307 36.27V36.2697L25.6972 36.2653L25.6628 36.261L25.6277 36.2571L25.5554 36.2485L25.518 36.2445L25.4802 36.2402L25.4414 36.2362L25.4023 36.2319L25.3626 36.228L25.3221 36.224L25.281 36.2204L25.2396 36.2164L25.1975 36.2128H25.1972L25.1545 36.2091L25.1114 36.2058L25.0673 36.2025L25.0229 36.1995L24.9782 36.1965L24.9324 36.1936L24.8867 36.1909L24.8403 36.1886L24.7933 36.1863L24.7462 36.1843L24.6982 36.1827L24.6501 36.181L24.6014 36.1797L24.552 36.178L24.5027 36.1767C20.9169 36.1046 18.991 39.0247 18.2381 42.3308L18.2338 42.3494L18.2298 42.3682L18.2255 42.3871L18.2216 42.4063L18.2176 42.4258L18.2139 42.445L18.21 42.4648L18.206 42.4843L18.2023 42.5045L18.1987 42.524V42.5247L18.1947 42.5445L18.1911 42.565L18.1874 42.5855V42.5859L18.1838 42.6064L18.1805 42.6272L18.1768 42.6481L18.1735 42.6692L18.1702 42.6907L18.1669 42.7119L18.1639 42.7337L18.1609 42.7559L18.1579 42.7777V42.7781L18.155 42.7999L18.152 42.8224V42.8227L18.149 42.8449L18.146 42.8674L18.1434 42.8902L18.1407 42.9133V42.9137L18.138 42.9365L18.1354 42.9593L18.1327 42.9825L18.1301 43.006L18.1278 43.0295L18.1275 43.0298L18.1251 43.0533L18.1228 43.0771H18.1225L18.1202 43.1012L18.1178 43.1254L18.1155 43.1495L18.1132 43.174L18.1112 43.1985L18.1092 43.2233L18.1076 43.2478V43.2484L18.1056 43.2732L18.1039 43.2984L18.1023 43.3238L18.1006 43.349L18.099 43.3741V43.3748L18.0973 43.4003L18.096 43.4257V43.4261L18.0946 43.4515L18.093 43.4773L18.092 43.5035L18.0907 43.5293L18.0893 43.5557L18.088 43.5822L18.087 43.6086L18.086 43.6348V43.6354L18.085 43.6616L18.0844 43.6887L18.0834 43.7155L18.0827 43.7426L18.0821 43.7701L18.0814 43.7972L18.0807 43.825C18.0777 43.9771 18.0781 44.127 18.0804 44.2755C18.0814 44.3245 18.0834 44.3724 18.0847 44.421C18.0874 44.518 18.0903 44.6145 18.0953 44.7095C18.0983 44.7677 18.1026 44.8253 18.1062 44.8831C18.1119 44.9691 18.1182 45.0548 18.1258 45.1398C18.1311 45.197 18.1371 45.2543 18.143 45.3108C18.1516 45.3945 18.1616 45.4772 18.1722 45.5593C18.1795 45.6145 18.1868 45.6704 18.1944 45.7253C18.2063 45.8077 18.2196 45.889 18.2335 45.9701C18.2424 46.0213 18.2504 46.0726 18.2597 46.1236C18.2772 46.2182 18.2964 46.3111 18.3167 46.4037C18.3243 46.4385 18.3312 46.4738 18.3389 46.5089C18.3677 46.6349 18.3985 46.7586 18.4316 46.881C18.4399 46.9125 18.4502 46.9436 18.4592 46.975C18.4847 47.066 18.5108 47.1566 18.539 47.2449C18.5536 47.2909 18.5695 47.3359 18.5847 47.3808C18.6089 47.453 18.6331 47.5247 18.659 47.5952C18.6772 47.6445 18.6961 47.6934 18.7146 47.7421C18.7402 47.8076 18.766 47.8727 18.7925 47.9375C18.8124 47.9855 18.8329 48.0335 18.8535 48.0811C18.882 48.1456 18.9111 48.2098 18.941 48.2733C18.9615 48.3176 18.9824 48.3616 19.0039 48.4053C19.0371 48.4734 19.0719 48.5402 19.1073 48.607C19.1269 48.6438 19.1457 48.6811 19.1656 48.7175C19.2054 48.7896 19.2465 48.8601 19.2876 48.9302C19.3061 48.9616 19.324 48.9941 19.3429 49.0255C19.4016 49.1217 19.4622 49.216 19.5242 49.3086C19.545 49.3401 19.5669 49.3702 19.5885 49.4009C19.6315 49.4631 19.6749 49.526 19.7197 49.5868C19.7482 49.6252 19.778 49.6632 19.8068 49.7013C19.8466 49.7532 19.886 49.8051 19.9268 49.8557C19.9583 49.8944 19.9901 49.9325 20.0219 49.9708C20.063 50.0195 20.1041 50.0674 20.1458 50.1151C20.1786 50.1521 20.2114 50.1892 20.2449 50.2256C20.2886 50.2732 20.333 50.3198 20.3778 50.3665C20.4106 50.4009 20.4437 50.4353 20.4772 50.4687C20.5216 50.5133 20.5673 50.5567 20.6131 50.6003C20.6495 50.6351 20.6856 50.6705 20.7231 50.7049C20.7691 50.7469 20.8165 50.7879 20.8636 50.8289C20.9305 50.8878 20.9984 50.9453 21.0677 51.0019C21.1174 51.0422 21.1664 51.0829 21.2168 51.1226C21.2582 51.155 21.301 51.1858 21.3431 51.2176C21.3901 51.2526 21.4372 51.288 21.4849 51.3224C21.5293 51.3542 21.5744 51.3849 21.6194 51.416C21.6655 51.4471 21.7115 51.4789 21.7579 51.5096C21.805 51.5404 21.853 51.5715 21.9008 51.6016C21.9471 51.6304 21.9935 51.6591 22.0406 51.6876C22.09 51.7177 22.1397 51.7475 22.1894 51.7762C22.2344 51.8024 22.2798 51.8278 22.3259 51.8533C22.3783 51.8821 22.4306 51.9115 22.4836 51.9396C22.5284 51.9635 22.5738 51.986 22.6192 52.0094C22.6742 52.0372 22.7288 52.066 22.7848 52.0928C22.8097 52.1054 22.8352 52.1159 22.8604 52.1282C22.9923 52.1907 23.1265 52.2502 23.262 52.3071C23.3001 52.323 23.3379 52.3399 23.3763 52.3551C23.4423 52.3819 23.5095 52.4067 23.5762 52.4328L23.6888 52.4752C23.7591 52.5006 23.8297 52.5258 23.9006 52.5499L24.0036 52.5847C24.0762 52.6088 24.1491 52.632 24.2223 52.6548L24.3247 52.6852C24.3999 52.7077 24.4758 52.7295 24.5517 52.7507L24.6402 52.7739C24.722 52.7957 24.8039 52.8172 24.8864 52.8367L24.9136 52.843C25.2075 52.9131 25.5064 52.972 25.8096 53.0206L25.8649 53.0296C25.9514 53.0428 26.0382 53.055 26.125 53.0666L26.2119 53.0782C26.2974 53.0888 26.3838 53.099 26.47 53.1083L26.5535 53.1169C26.6436 53.1262 26.7341 53.1341 26.8246 53.1414L26.8892 53.146C26.9869 53.1536 27.0847 53.1602 27.1831 53.1655L27.1914 53.1658C27.7454 53.1953 28.3081 53.191 28.8734 53.1549L28.9019 53.1536C29.0116 53.1463 29.1216 53.1381 29.2313 53.1281L29.2409 53.1275C31.9525 52.8893 34.7102 51.9211 36.9409 50.3218C38.1315 49.4681 39.3159 48.3858 40.3733 47.0451C38.3204 50.8487 33.9735 53.7659 28.9443 54.269C21.9372 54.9706 16.2549 50.7211 16.2549 44.7799C16.2549 39.3816 18.712 34.579 26.1976 36.2386L26.1996 36.2399L26.2023 36.2422L26.2069 36.2465L26.2115 36.2505L26.2132 36.2518L26.2162 36.2541L26.2208 36.2581L26.2251 36.262L26.2261 36.2627L26.2298 36.2657L26.2341 36.2693L26.2384 36.273L26.2387 36.2733L26.2423 36.2763L26.2463 36.2802L26.2506 36.2835L26.2546 36.2869L26.2586 36.2902L26.2619 36.2931L26.2626 36.2935L26.2662 36.2968L26.2699 36.3001L26.2725 36.3024L26.2735 36.3031L26.2768 36.306L26.2801 36.309L26.2824 36.311L26.2838 36.312L26.2871 36.3146L26.2904 36.3176L26.2921 36.3189L26.2934 36.3203L26.2967 36.3229L26.2997 36.3252L26.301 36.3265L26.3027 36.3279L26.3053 36.3302L26.3083 36.3328L26.309 36.3332L26.3109 36.3351L26.3136 36.3371L26.3159 36.3391L26.3163 36.3398L26.3182 36.3414L26.3206 36.3431L26.3229 36.3454H26.3232L26.3252 36.3474L26.3275 36.3487L26.3295 36.3504V36.3507L26.3335 36.354L26.3348 36.3557L26.3368 36.357L26.3384 36.3586L26.3394 36.3596L26.3398 36.36L26.3414 36.3613L26.3428 36.3626L26.3437 36.3633L26.3441 36.3643L26.3454 36.3652L26.3477 36.3676L26.3487 36.3686L26.3497 36.3695H26.35L26.3507 36.3705L26.3514 36.3712L26.3544 36.3699Z" fill="#797E88"/>
<path fill-rule="evenodd" clip-rule="evenodd" d="M46.6268 31.4686C46.8395 32.6852 46.9512 33.9365 46.9512 35.213C46.9512 35.3949 46.9485 35.5758 46.9442 35.7564V35.7736L46.9429 35.8133C46.9389 35.9675 46.9326 36.1206 46.9253 36.2738L46.9187 36.4025C46.9117 36.5288 46.9035 36.6548 46.8945 36.7809L46.8773 37.0018L46.874 37.0409L46.8707 37.0802L46.8567 37.2367L46.8528 37.276C46.8415 37.3908 46.8302 37.5053 46.8176 37.6197L46.8163 37.628L46.812 37.667L46.8027 37.7451C44.2661 43.3617 41.6234 46.5382 39.2783 48.3002C39.384 48.1848 39.4914 48.0637 39.5988 47.938C41.3348 46.005 42.587 43.7041 43.3499 41.2345C43.5205 40.7046 43.6627 40.17 43.7697 39.6381C43.9036 39.0259 44.0086 38.4066 44.0848 37.7828L44.1034 37.6283C44.1113 37.5572 44.1196 37.4858 44.1269 37.4143C44.2555 36.2146 44.28 35.0208 44.2055 33.8459L44.276 33.8267C44.1773 32.1996 43.8731 30.628 43.3913 29.1362C44.053 29.3383 44.674 29.7214 45.242 30.0826L45.2526 30.0895H45.2529L45.2612 30.0945L45.2907 30.1134L45.2967 30.117L45.3049 30.1223L45.3281 30.1372L45.3318 30.1392L45.3566 30.155L45.3656 30.1607L45.3672 30.1613L45.402 30.1838L45.403 30.1841L45.4083 30.1874L45.4368 30.206L45.4398 30.2076L45.4594 30.2202L45.471 30.2278L45.4766 30.2308L45.5057 30.2496L45.5101 30.2526L45.5134 30.2546L45.5402 30.2715L45.5498 30.2778L45.5608 30.2847L45.5743 30.2933L45.5863 30.3002L45.6085 30.3145L45.6108 30.3165L45.6224 30.3234L45.6423 30.3356L45.6582 30.3459L45.6608 30.3472L45.6764 30.3565L45.694 30.3677L45.7099 30.3777L45.7105 30.378L45.7297 30.3899L45.7433 30.3985L45.7596 30.4081L45.7652 30.412L45.7765 30.4187L45.8007 30.4332L45.8089 30.4378L45.8103 30.4392L45.8361 30.4547L45.8431 30.459L45.8577 30.4673L45.8709 30.4756L45.8762 30.4785L45.9057 30.4961L45.906 30.4964L45.909 30.498L45.9405 30.5169L45.9412 30.5172L45.9538 30.5245L45.9736 30.5361L45.975 30.5374L46.0015 30.5523L46.0058 30.5546L46.0091 30.5569L46.0379 30.5735L46.0432 30.5768L46.0482 30.5798L46.0697 30.5917L46.0953 30.6056L46.1015 30.6095L46.1108 30.6145L46.1334 30.6264L46.1423 30.6314L46.1446 30.6327L46.1648 30.6439L46.1877 30.6562L46.2271 30.6767L46.2338 30.6803L46.244 30.6859L46.2583 30.6932L46.2772 30.7025L46.2795 30.7038L46.2831 30.7051L46.2865 30.7071L46.2891 30.7084L46.2901 30.7091L46.2934 30.7107L46.2971 30.7127L46.3007 30.7144L46.3043 30.7157L46.308 30.7177L46.3116 30.719L46.315 30.721L46.3183 30.7227L46.3199 30.7233L46.3219 30.724L46.3246 30.726H46.3252L46.3289 30.7273L46.3325 30.7289L46.3362 30.7306L46.3398 30.7322L46.3434 30.7342L46.3468 30.7356L46.3504 30.7372L46.3507 30.7375L46.3537 30.7389L46.3574 30.7402L46.3607 30.7418L46.3643 30.7435L46.368 30.7448L46.37 30.7461L46.3716 30.7468L46.3749 30.7481L46.3782 30.7498L46.3812 30.7511L46.3888 30.7547L46.3912 30.7557L46.3932 30.7564L46.3951 30.7577L46.3968 30.7587L46.3985 30.7594L46.4008 30.7604L46.4028 30.7614L46.4044 30.7623L46.4064 30.7633L46.4084 30.7643L46.4104 30.7653L46.412 30.7663L46.4144 30.767L46.415 30.768L46.416 30.7683L46.418 30.769L46.42 30.7703L46.422 30.7713L46.4236 30.7719L46.4256 30.7729L46.4276 30.7739L46.4293 30.7749L46.4313 30.7759L46.4332 30.7766L46.4349 30.7779L46.4369 30.7789L46.4389 30.7795L46.4405 30.7805L46.4429 30.7815L46.4445 30.7825L46.4465 30.7835L46.4482 30.7842L46.4498 30.7855L46.4518 30.7862L46.4538 30.7871L46.4558 30.7885L46.4578 30.7891L46.4591 30.7898L46.4594 30.7901L46.4614 30.7908L46.4631 30.7918L46.4654 30.7928L46.4674 30.7938L46.469 30.7948L46.471 30.7954L46.473 30.7967L46.4747 30.7974L46.4767 30.7984L46.4783 30.7994L46.4806 30.8004L46.4823 30.8014L46.4843 30.802L46.4859 30.8027L46.4879 30.8037L46.4899 30.805L46.4916 30.8057L46.4936 30.8063L46.4955 30.807L46.4962 30.8073L46.4975 30.8083L46.4992 30.8093L46.5012 30.81L46.5032 30.8106V30.811L46.5052 30.8212L46.5075 30.8311L46.5095 30.8417L46.5114 30.8517L46.5134 30.8616L46.5154 30.8722L46.5178 30.8821L46.5197 30.8927L46.5217 30.9029L46.524 30.9132L46.526 30.9234L46.528 30.934L46.53 30.9439L46.5323 30.9542L46.5363 30.9747L46.538 30.985L46.539 30.9889L46.5406 30.9955V30.9965L46.5419 31.0045V31.0058L46.5433 31.0124L46.5443 31.0167L46.5449 31.02L46.5462 31.027V31.0273L46.5476 31.0349L46.5479 31.0376L46.5489 31.0422L46.5499 31.0481L46.5502 31.0498L46.5515 31.0571L46.5519 31.0584L46.5532 31.065L46.5539 31.0683L46.5549 31.0726L46.5559 31.0789V31.0799L46.5578 31.0872V31.0888L46.5588 31.0951L46.5598 31.0991L46.5602 31.1027L46.5615 31.1097V31.11L46.5631 31.1176L46.5638 31.1196L46.5645 31.1249L46.5658 31.1302L46.5661 31.1325L46.5675 31.1398V31.1404L46.5688 31.1474L46.5698 31.1507L46.5701 31.1547L46.5714 31.1613V31.1626L46.5728 31.1699L46.5731 31.1715L46.5744 31.1775L46.5751 31.1814L46.5754 31.1848L46.5771 31.1917V31.1924L46.5784 31.1996L46.5787 31.2023L46.5797 31.2076L46.5827 31.2225L46.583 31.2228L46.584 31.2297L46.5867 31.2436L46.5873 31.2416L46.5887 31.2496L46.5893 31.2509L46.59 31.2569L46.593 31.2714V31.2717L46.5943 31.2797L46.5946 31.282L46.5956 31.287L46.5983 31.3018V31.3022L46.5996 31.3095L46.6009 31.3171L46.6019 31.3227L46.6023 31.3243L46.6036 31.3319L46.6039 31.3333L46.6062 31.3432L46.6069 31.3468L46.6082 31.3538V31.3548L46.6099 31.3617L46.6112 31.3693L46.6122 31.3746V31.3773L46.6135 31.3845L46.6138 31.3849L46.6162 31.3994L46.6172 31.4054L46.6175 31.4074L46.6188 31.4143V31.4153L46.6201 31.4222L46.6208 31.4262L46.6215 31.4299L46.6225 31.4365V31.4375L46.6241 31.4451V31.4467L46.6251 31.4527L46.6258 31.457L46.6264 31.46L46.6278 31.4676H46.6268V31.4686Z" fill="#797E88"/>
<path fill-rule="evenodd" clip-rule="evenodd" d="M20.9916 46.0539C20.9515 41.8878 24.2049 41.4405 25.305 41.9374C26.4052 42.4349 24.9233 43.5016 24.3371 43.8655C23.7506 44.229 23.1992 44.4007 22.8197 44.5793C22.4407 44.7579 21.603 45.4059 21.3839 45.9084C21.1649 46.4108 21.0996 46.6923 21.0996 46.6923L20.9916 46.0539ZM22.9993 40.0751C26.1172 35.4898 30.0144 37.4613 30.8399 38.837C31.665 40.212 29.2354 40.2587 28.3182 40.212C27.4009 40.1664 26.6673 39.9368 26.1175 39.8455C25.5671 39.7539 24.1598 39.8287 23.5388 40.212C22.9178 40.5957 22.6332 40.8541 22.6332 40.8541L22.9993 40.0751Z" fill="#797E88"/>
<path fill-rule="evenodd" clip-rule="evenodd" d="M66.5578 24.2304V36.2941H63.2273V24.2301H59V21.3428H70.7851V24.2301L66.5578 24.2304ZM83.9794 21.3428V24.3155H76.5492V27.3958H83.2321V30.2407H76.5492V33.3425H84.2142V36.2941H73.2187V21.3428H83.9794ZM94.0358 33.3425C95.6727 33.3425 97.0106 32.6933 98.0497 31.3957L100.185 33.5998C98.4912 35.5103 96.495 36.4655 94.1965 36.4655C91.898 36.4655 90.0047 35.7384 88.5173 34.2834C87.0299 32.8291 86.2862 30.993 86.2862 28.7757C86.2862 26.5584 87.0442 24.7075 88.5599 23.2249C90.076 21.7423 91.9299 21.0004 94.1215 21.0004C96.5699 21.0004 98.6196 21.9348 100.27 23.8022L98.1997 26.1549C97.1461 24.8429 95.8366 24.1873 94.2714 24.1873C93.0189 24.1873 91.9474 24.5976 91.0578 25.417C90.1682 26.2372 89.7235 27.3422 89.7235 28.7329C89.7235 30.1232 90.1438 31.2391 90.9832 32.0796C91.8222 32.9218 92.8399 33.3425 94.0358 33.3425ZM112.077 21.3428H115.408V36.2941H112.077V30.4117H106.141V36.2941H102.811V21.3428H106.141V27.5883H112.077V21.3428ZM129.52 21.3428H132.85V36.2941H129.52L122.41 26.9251V36.2941H119.079V21.3428H122.196L129.52 30.9682V21.3428H129.52ZM147.945 28.7333C147.945 27.3998 147.518 26.2628 146.665 25.3211C145.81 24.3803 144.761 23.9092 143.515 23.9092C142.269 23.9092 141.22 24.3799 140.366 25.3211C139.512 26.2628 139.085 27.3998 139.085 28.7333C139.085 30.0661 139.512 31.2003 140.366 32.1344C141.22 33.0676 142.27 33.5351 143.515 33.5351C144.761 33.5351 145.81 33.0676 146.665 32.1344C147.518 31.2003 147.945 30.0661 147.945 28.7333ZM149.077 34.2298C147.568 35.7056 145.711 36.4439 143.504 36.4439C141.298 36.4439 139.441 35.706 137.932 34.2298C136.423 32.7544 135.669 30.9179 135.669 28.7218C135.669 26.5256 136.424 24.6895 137.932 23.2137C139.441 21.7379 141.298 21 143.504 21C145.711 21 147.568 21.7379 149.077 23.2137C150.586 24.6895 151.34 26.5256 151.34 28.7218C151.34 30.9179 150.586 32.7544 149.077 34.2298ZM154.158 36.2941V21.3428H157.489V33.3213H163.851V36.2941H154.158ZM177.302 28.7333C177.302 27.3998 176.875 26.2628 176.021 25.3211C175.167 24.3803 174.117 23.9092 172.872 23.9092C171.626 23.9092 170.577 24.3799 169.723 25.3211C168.868 26.2628 168.441 27.3998 168.441 28.7333C168.441 30.0661 168.868 31.2003 169.723 32.1344C170.577 33.0676 171.626 33.5351 172.872 33.5351C174.118 33.5351 175.167 33.0676 176.021 32.1344C176.875 31.2003 177.302 30.0661 177.302 28.7333ZM178.434 34.2298C176.925 35.7056 175.067 36.4439 172.861 36.4439C170.655 36.4439 168.797 35.706 167.289 34.2298C165.78 32.7544 165.026 30.9179 165.026 28.7218C165.026 26.5256 165.78 24.6895 167.289 23.2137C168.798 21.7379 170.655 21 172.861 21C175.067 21 176.925 21.7379 178.434 23.2137C179.942 24.6895 180.697 26.5256 180.697 28.7218C180.697 30.9179 179.942 32.7544 178.434 34.2298ZM193.208 28.6794H196.56V33.9845C195.08 35.6389 193.03 36.4659 190.411 36.4659C188.219 36.4659 186.38 35.7388 184.892 34.2837C183.404 32.8295 182.661 30.9934 182.661 28.7761C182.661 26.5588 183.419 24.7079 184.935 23.2253C186.451 21.7427 188.28 21.0008 190.422 21.0008C192.564 21.0008 194.425 21.7067 196.006 23.1182L194.276 25.6212C193.607 25.0363 192.991 24.6336 192.43 24.4126C191.867 24.1917 191.258 24.0806 190.604 24.0806C189.337 24.0806 188.269 24.5121 187.401 25.3747C186.533 26.2376 186.098 27.375 186.098 28.7869C186.098 30.1979 186.515 31.3286 187.348 32.1767C188.181 33.0253 189.174 33.45 190.326 33.45C191.479 33.45 192.44 33.229 193.209 32.7872L193.208 28.6794ZM205.698 36.2941H202.368V30.3909L197.201 21.3428H200.808L204.032 26.9044L207.256 21.3428H210.864L205.697 30.3909V36.2941H205.698Z" fill="#797E88"/>
<path fill-rule="evenodd" clip-rule="evenodd" d="M61.586 42.7885C61.2554 42.7885 60.9838 42.8557 60.7721 42.9907C60.5604 43.1253 60.4543 43.3303 60.4543 43.6039C60.4543 43.8772 60.5604 44.0866 60.7721 44.2312C60.9842 44.3758 61.4352 44.5316 62.1259 44.699C62.8162 44.8668 63.3365 45.1009 63.6863 45.4037C64.0364 45.7062 64.2114 46.1516 64.2114 46.7397C64.2114 47.329 63.9897 47.8068 63.5467 48.1735C63.1033 48.5407 62.5223 48.7233 61.8029 48.7233C60.7498 48.7233 59.8155 48.3605 59 47.633L59.7126 46.7737C60.3937 47.3661 61.0999 47.6622 61.832 47.6622C62.1981 47.6622 62.4888 47.5827 62.7037 47.4253C62.919 47.2675 63.0267 47.0593 63.0267 46.798C63.0267 46.5375 62.9254 46.335 62.7233 46.19C62.5211 46.0454 62.1726 45.9135 61.6781 45.7941C61.1836 45.6754 60.8076 45.5659 60.5508 45.4661C60.294 45.3666 60.0659 45.2368 59.8669 45.0757C59.4685 44.7729 59.2696 44.3099 59.2696 43.6858C59.2696 43.0618 59.4961 42.5812 59.9487 42.2432C60.4017 41.9056 60.9619 41.7366 61.6298 41.7366C62.0597 41.7366 62.4868 41.807 62.9107 41.9492C63.3346 42.0906 63.7006 42.2899 64.0089 42.5472L63.402 43.4062C63.203 43.226 62.9334 43.0782 62.5929 42.9627C62.2523 42.8461 61.9169 42.7885 61.586 42.7885ZM73.9385 48.6466V41.9H75.0754V47.5659H78.1482V48.6466H73.9385ZM92.3215 43.4925C91.8625 43.0163 91.2987 42.7778 90.6307 42.7778C89.9632 42.7778 89.3993 43.0163 88.9404 43.4925C88.481 43.9687 88.2517 44.5464 88.2517 45.2251C88.2517 45.9039 88.4814 46.4812 88.9404 46.957C89.3993 47.4333 89.9632 47.6718 90.6307 47.6718C91.2987 47.6718 91.8625 47.4333 92.3215 46.957C92.7805 46.4808 93.0106 45.9039 93.0106 45.2251C93.0102 44.5464 92.7805 43.9687 92.3215 43.4925ZM93.1545 47.7145C92.4738 48.3805 91.6328 48.7137 90.6307 48.7137C89.629 48.7137 88.7876 48.3809 88.1069 47.7145C87.4263 47.0485 87.0861 46.2191 87.0861 45.2251C87.0861 44.2312 87.4263 43.401 88.1069 42.735C88.7876 42.0686 89.629 41.7358 90.6307 41.7358C91.6328 41.7358 92.4738 42.0686 93.1545 42.735C93.8352 43.401 94.1757 44.2308 94.1757 45.2251C94.1757 46.2191 93.8352 47.0485 93.1545 47.7145ZM108.594 45.365H109.731V47.6718C109.095 48.3721 108.187 48.7229 107.005 48.7229C106.009 48.7229 105.176 48.3945 104.505 47.7385C103.834 47.0821 103.498 46.2519 103.498 45.2483C103.498 44.2456 103.84 43.409 104.524 42.7398C105.208 42.0706 106.035 41.7358 107.004 41.7358C107.974 41.7358 108.78 42.0187 109.422 42.5852L108.815 43.4533C108.552 43.2284 108.287 43.0726 108.02 42.9851C107.754 42.8988 107.444 42.8549 107.091 42.8549C106.411 42.8549 105.838 43.0754 105.376 43.5161C104.914 43.9567 104.682 44.536 104.682 45.2539C104.682 45.9706 104.907 46.5471 105.357 46.981C105.806 47.4149 106.35 47.6322 106.99 47.6322C107.628 47.6322 108.163 47.494 108.593 47.2175V45.365H108.594ZM120.431 47.1117L119.757 48.6466H118.543L121.511 41.9H122.724L125.691 48.6466H124.478L123.803 47.1117H120.431ZM123.34 46.0601L122.117 43.2799L120.893 46.0601H123.34ZM139.994 41.9H141.131V48.6466H139.898L136.083 43.7246V48.6466H134.946V41.9H136.083L139.994 46.9379L139.994 41.9ZM153.96 48.6466V41.9H155.098V44.8241H158.44V41.9H159.577V48.6466H158.44V45.8864H155.098V48.6466H153.96ZM174.495 41.9V42.9711H170.902V44.7569H174.13V45.7701H170.902V47.5755H174.612V48.6466H169.766V41.9H174.495ZM189.762 44.0914C189.762 45.204 189.278 45.9051 188.308 46.1952L190.07 48.6466H188.626L187.016 46.3785H185.524V48.6466H184.387V41.9H186.891C187.919 41.9 188.655 42.0742 189.097 42.4218C189.54 42.769 189.762 43.3251 189.762 44.0914ZM186.94 45.3458C187.582 45.3458 188.018 45.2451 188.25 45.0466C188.482 44.8468 188.597 44.5268 188.597 44.0866C188.597 43.6451 188.479 43.3427 188.24 43.1789C188.003 43.0147 187.579 42.9332 186.969 42.9332H185.525V45.3458H186.94ZM204.45 41.9V42.9711H200.857V44.7569H204.085V45.7701H200.857V47.5755H204.566V48.6466H199.72V41.9H204.45Z" fill="#797E88"/>
</svg>
