<svg width="135" height="60" viewBox="0 0 135 60" fill="none" xmlns="http://www.w3.org/2000/svg">
<path d="M12.0647 35.468V24.531L4.25488 29.0915V40.0278L10.4954 43.6679L18.3017 39.1082L12.0647 35.468Z" fill="#797E88"/>
<path d="M40.5863 3.87533L37.7725 5.51782L39.3973 8.36313L42.2111 6.72064L40.5863 3.87533Z" fill="#797E88"/>
<path d="M32.9569 2.49683L30.9473 3.66992L32.1082 5.70286L34.1178 4.52977L32.9569 2.49683Z" fill="#797E88"/>
<path d="M35.4915 5.53487L31.3621 7.94502L29.7371 5.09961L4.25586 19.9734V29.0915L37.7719 9.52725L35.4915 5.53487Z" fill="#797E88"/>
<path d="M36.578 3.33416L35.0078 4.25073L35.9152 5.83969L37.4854 4.92312L36.578 3.33416Z" fill="#797E88"/>
<path d="M37.4618 0.00023272L35.373 1.21948L36.5796 3.33242L38.6684 2.11317L37.4618 0.00023272Z" fill="#797E88"/>
<g style="mix-blend-mode:multiply" opacity="0.5">
<path d="M4.25586 29.0907V31.1804L12.065 26.6214V24.531L4.25586 29.0907Z" fill="#797E88"/>
</g>
<path d="M38.6093 30.9075V19.9748L32.3723 16.3303L24.5625 20.8908L30.7988 24.5309V35.4679L38.6093 30.9075Z" fill="#797E88"/>
<path d="M2.27992 56.1242L5.09375 54.4817L3.46894 51.6364L0.655105 53.2789L2.27992 56.1242Z" fill="#797E88"/>
<path d="M9.90927 57.5037L11.9189 56.3306L10.758 54.2976L8.74836 55.4707L9.90927 57.5037Z" fill="#797E88"/>
<path d="M7.37434 54.4655L11.5038 52.0546L13.1287 54.9008L38.61 40.0262V30.9082L5.09473 50.4724L7.37434 54.4655Z" fill="#797E88"/>
<path d="M6.28915 56.6656L7.85938 55.749L6.952 54.1601L5.38178 55.0766L6.28915 56.6656Z" fill="#797E88"/>
<path d="M5.40539 59.9998L7.49414 58.7805L6.28755 56.6676L4.1988 57.8868L5.40539 59.9998Z" fill="#797E88"/>
<g style="mix-blend-mode:multiply" opacity="0.5">
<path d="M38.6086 30.9075V28.8179L30.7988 33.3769V35.4673L38.6086 30.9075Z" fill="#797E88"/>
</g>
<path d="M56.1154 20.5603C55.4719 20.5733 54.9303 20.7092 54.4905 20.9681C54.0507 21.227 53.8308 21.7217 53.8308 22.4522C53.8308 23.0094 54.0179 23.4076 54.392 23.6468C54.7853 23.892 55.2401 24.0173 55.7021 24.0077L59.6416 23.9875C59.7844 24.0015 59.9355 24.0082 60.095 24.0077C60.2544 24.0072 60.412 24.0137 60.5676 24.0272C61.0266 24.0542 61.4814 24.1311 61.9241 24.2567C62.3687 24.3819 62.7751 24.6183 63.1057 24.9439C63.4205 25.2347 63.6633 25.5961 63.8146 25.9992C63.9717 26.408 64.0712 26.8371 64.1102 27.2739C64.123 27.4068 64.133 27.536 64.1402 27.6623C64.1473 27.7886 64.1494 27.9178 64.1494 28.0506C64.1233 29.7098 63.6711 30.8349 62.7929 31.4259C61.9148 32.0168 60.7197 32.3123 59.2075 32.3123H51.2892V29.7628H58.7349C59.3917 29.7767 59.9598 29.6706 60.4391 29.4445C60.9184 29.2183 61.1119 28.7072 61.0195 27.9113C60.9538 27.2857 60.7242 26.9008 60.3306 26.7564C59.8802 26.6008 59.4079 26.5201 58.932 26.5175L55.4258 26.498C53.9679 26.511 52.8156 26.2155 51.9689 25.6116C51.1222 25.0077 50.7052 23.9156 50.7181 22.3352C50.7438 20.6755 51.2 19.5447 52.0867 18.9427C52.9734 18.3407 54.1716 18.0387 55.6814 18.0368L63.4633 18.0166V20.5661L56.1154 20.5603Z" fill="#797E88"/>
<path d="M67.4609 18.0107L70.9478 23.4677L74.4932 18.0107H77.9401L72.4842 25.997V32.31H69.507V25.997L64.1289 18.0107H67.4609Z" fill="#797E88"/>
<path d="M83.2007 20.5603C82.5577 20.5733 82.016 20.7092 81.5758 20.9681C81.1355 21.227 80.9156 21.7217 80.9161 22.4522C80.9161 23.0094 81.1032 23.4076 81.4773 23.6468C81.8705 23.892 82.3254 24.0173 82.7873 24.0077L86.7269 23.9875C86.8697 24.0012 87.0224 24.0077 87.1795 24.0077C87.3366 24.0077 87.4951 24.0142 87.6529 24.0272C88.1119 24.0541 88.5667 24.1311 89.0093 24.2567C89.4541 24.3821 89.8607 24.6184 90.1916 24.9439C90.506 25.2351 90.7488 25.5964 90.9006 25.9992C91.0577 26.408 91.1572 26.8371 91.1961 27.2739C91.209 27.4068 91.219 27.536 91.2254 27.6623C91.2318 27.7886 91.2354 27.9178 91.2354 28.0506C91.2092 29.7098 90.7571 30.8349 89.8789 31.4259C89.0008 32.0168 87.8059 32.3123 86.2942 32.3123H78.3752V29.7628H85.8216C86.4779 29.7767 87.0458 29.6706 87.5251 29.4445C88.0043 29.2183 88.1981 28.7072 88.1062 27.9113C88.0405 27.2857 87.8106 26.9008 87.4165 26.7564C86.9664 26.6007 86.4943 26.52 86.0186 26.5175L82.5118 26.498C81.0544 26.511 79.9021 26.2155 79.0548 25.6116C78.2076 25.0077 77.7907 23.9156 77.804 22.3352C77.8302 20.6755 78.2866 19.5447 79.1734 18.9427C80.0601 18.3407 81.2583 18.0387 82.7681 18.0368L90.55 18.0166V20.5661L83.2007 20.5603Z" fill="#797E88"/>
<path d="M92.0049 20.5198V18.031H104.218V20.5198H99.6276V32.31H96.5577V20.5198H92.0049Z" fill="#797E88"/>
<path d="M109.044 21.3867C108.506 21.9641 108.204 22.7839 108.138 23.8459L116.372 23.8264V26.3153H108.118C108.117 26.8049 108.173 27.2929 108.286 27.769C108.403 28.2449 108.637 28.6833 108.966 29.0437C109.237 29.3833 109.615 29.6189 110.037 29.7114C110.454 29.7979 110.88 29.8412 111.307 29.8406H111.484L116.369 29.8204V32.31H111.346C110.569 32.313 109.794 32.2405 109.031 32.0934C108.26 31.9331 107.54 31.5841 106.934 31.0771C106.168 30.4592 105.594 29.6326 105.279 28.6951C104.965 27.7677 104.793 26.7976 104.767 25.8179C104.754 25.6047 104.751 25.3988 104.757 25.2C104.763 25.0013 104.773 24.8023 104.787 24.6031C104.93 22.3462 105.537 20.686 106.609 19.6225C107.681 18.5591 109.286 18.028 111.425 18.0295L116.369 18.0093V20.4988H111.488C110.398 20.5128 109.583 20.8087 109.044 21.3867Z" fill="#797E88"/>
<path d="M123.344 18.0107L126.949 28.9824L130.554 18.0107H134.909V32.31H131.994L132.23 21.1774L128.605 32.31H125.454L121.712 21.0575L122.006 32.31H118.974V18.0107H123.344Z" fill="#797E88"/>
<path d="M52.1088 37.9329H50.7178V37.5669H53.9188V37.9329H52.5271V41.5701H52.1088V37.9329Z" fill="#797E88"/>
<path d="M58.7431 41.2041V41.5701H55.9424V37.5669H58.6546V37.9329H56.3585V39.357H58.4055V39.7179H56.3585V41.2049L58.7431 41.2041Z" fill="#797E88"/>
<path d="M60.7119 39.5687C60.7119 38.3965 61.5944 37.5325 62.7873 37.5325C63.3649 37.5325 63.8847 37.7274 64.2359 38.1157L63.9696 38.3849C63.8175 38.2282 63.635 38.1051 63.4334 38.0234C63.2319 37.9416 63.0158 37.903 62.7988 37.91C61.8428 37.91 61.1246 38.6195 61.1246 39.5702C61.1246 40.5208 61.8428 41.2304 62.7988 41.2304C63.2514 41.2304 63.6476 41.086 63.9696 40.7504L64.2359 41.0189C63.8847 41.4079 63.3649 41.6079 62.7823 41.6079C61.5943 41.6043 60.7119 40.741 60.7119 39.5687Z" fill="#797E88"/>
<path d="M69.7925 37.5669V41.5701H69.38V39.723H66.9033V41.5701H66.4844V37.5669H66.9033V39.3512H69.38V37.5669H69.7925Z" fill="#797E88"/>
<path d="M75.7495 37.5669V41.5701H75.4048L72.8596 38.3219V41.5701H72.4414V37.5669H72.7861L75.3363 40.8151V37.5669H75.7495Z" fill="#797E88"/>
<path d="M78.0459 39.5687C78.0459 38.4023 78.9283 37.5325 80.1278 37.5325C81.3158 37.5325 82.2032 38.3987 82.2032 39.5687C82.2032 40.7388 81.3158 41.6043 80.1278 41.6043C78.9319 41.6043 78.0459 40.7352 78.0459 39.5687ZM81.7848 39.5687C81.7848 38.6138 81.078 37.9085 80.1278 37.9085C79.1775 37.9085 78.4586 38.6123 78.4586 39.5687C78.4586 40.5251 79.1725 41.2289 80.1278 41.2289C81.083 41.2289 81.7877 40.5237 81.7877 39.5687H81.7848Z" fill="#797E88"/>
<path d="M84.5 37.5669H84.9182V41.2041H87.1351V41.5701H84.5V37.5669Z" fill="#797E88"/>
<path d="M88.7568 39.5687C88.7568 38.4023 89.6393 37.5325 90.838 37.5325C92.0367 37.5325 92.9141 38.3987 92.9141 39.5687C92.9141 40.7388 92.026 41.6043 90.838 41.6043C89.65 41.6043 88.7568 40.7352 88.7568 39.5687ZM92.4957 39.5687C92.4957 38.6138 91.7889 37.9085 90.838 37.9085C89.887 37.9085 89.1695 38.6123 89.1695 39.5687C89.1695 40.5251 89.8834 41.2289 90.838 41.2289C91.7925 41.2289 92.4957 40.5237 92.4957 39.5687Z" fill="#797E88"/>
<path d="M97.9996 39.5687H98.4015V41.0954C98.0281 41.4332 97.4962 41.6043 96.9479 41.6043C95.7428 41.6043 94.8604 40.7381 94.8604 39.5687C94.8604 38.3994 95.7428 37.5325 96.9536 37.5325C97.5526 37.5325 98.0731 37.7274 98.4236 38.1099L98.1638 38.3792C97.8303 38.0471 97.4341 37.91 96.9701 37.91C95.992 37.91 95.273 38.6138 95.273 39.5702C95.273 40.5266 95.9919 41.2304 96.9643 41.2304C97.3332 41.243 97.6963 41.1349 97.9996 40.9221V39.5687Z" fill="#797E88"/>
<path d="M102.297 40.1857V41.5701H101.884V40.1857L100.301 37.5669H100.747L102.103 39.8146L103.46 37.5669H103.879L102.297 40.1857Z" fill="#797E88"/>
</svg>
