<svg width="116" height="19" viewBox="0 0 116 19" fill="none" xmlns="http://www.w3.org/2000/svg">
<path d="M6.016 13.192C4.94933 13.192 4.02133 12.9573 3.232 12.488C2.44267 12.008 1.82933 11.3413 1.392 10.488C0.954667 9.624 0.736 8.62133 0.736 7.48C0.736 6.328 0.96 5.31467 1.408 4.44C1.856 3.55467 2.50133 2.86133 3.344 2.36C4.18667 1.85867 5.19467 1.608 6.368 1.608C7.68 1.608 8.768 1.92267 9.632 2.552C10.5067 3.18133 11.072 4.056 11.328 5.176H8.912C8.752 4.68533 8.45333 4.30133 8.016 4.024C7.58933 3.736 7.03467 3.592 6.352 3.592C5.62667 3.592 5.008 3.752 4.496 4.072C3.984 4.392 3.59467 4.84 3.328 5.416C3.06133 5.992 2.928 6.68 2.928 7.48C2.928 8.29067 3.06133 8.97867 3.328 9.544C3.59467 10.1093 3.97333 10.5413 4.464 10.84C4.96533 11.128 5.552 11.272 6.224 11.272C7.20533 11.272 7.94667 11.0107 8.448 10.488C8.96 9.95467 9.264 9.26667 9.36 8.424H6.608V6.808H11.536V13H9.536L9.376 11.576C9.14133 11.928 8.864 12.2267 8.544 12.472C8.23467 12.7067 7.872 12.8827 7.456 13C7.04 13.128 6.56 13.192 6.016 13.192ZM17.3811 13.192C16.5705 13.192 15.8505 13.0213 15.2211 12.68C14.6025 12.328 14.1171 11.8427 13.7651 11.224C13.4238 10.5947 13.2531 9.86933 13.2531 9.048C13.2531 8.20533 13.4238 7.464 13.7651 6.824C14.1171 6.17333 14.6025 5.66667 15.2211 5.304C15.8398 4.93067 16.5598 4.744 17.3811 4.744C18.1811 4.744 18.8798 4.92 19.4771 5.272C20.0745 5.624 20.5385 6.09867 20.8691 6.696C21.1998 7.29333 21.3651 7.97067 21.3651 8.728C21.3651 8.83467 21.3651 8.95733 21.3651 9.096C21.3651 9.224 21.3545 9.35733 21.3331 9.496H14.7891V8.184H19.1891C19.1571 7.66133 18.9705 7.25067 18.6291 6.952C18.2985 6.65333 17.8825 6.504 17.3811 6.504C17.0185 6.504 16.6825 6.58933 16.3731 6.76C16.0638 6.92 15.8185 7.17067 15.6371 7.512C15.4665 7.85333 15.3811 8.28533 15.3811 8.808V9.272C15.3811 9.70933 15.4611 10.0933 15.6211 10.424C15.7918 10.744 16.0265 10.9947 16.3251 11.176C16.6238 11.3467 16.9705 11.432 17.3651 11.432C17.7598 11.432 18.0851 11.3467 18.3411 11.176C18.6078 11.0053 18.8051 10.7867 18.9331 10.52H21.1411C20.9918 11.0213 20.7411 11.4747 20.3891 11.88C20.0371 12.2853 19.6051 12.6053 19.0931 12.84C18.5811 13.0747 18.0105 13.192 17.3811 13.192ZM26.6568 13C26.0914 13 25.5954 12.9147 25.1688 12.744C24.7528 12.5627 24.4274 12.2693 24.1928 11.864C23.9581 11.448 23.8408 10.8827 23.8408 10.168V6.744H22.4648V4.936H23.8408L24.0807 2.744H26.0008V4.936H28.1288V6.744H26.0008V10.2C26.0008 10.5627 26.0808 10.8133 26.2408 10.952C26.4008 11.0907 26.6728 11.16 27.0568 11.16H28.1128V13H26.6568ZM33.7603 13V1.8H35.9203V13H33.7603ZM38.0716 13V4.936H39.9756L40.1356 6.248C40.381 5.8 40.7276 5.43733 41.1756 5.16C41.6343 4.88267 42.1783 4.744 42.8076 4.744C43.4796 4.744 44.045 4.88267 44.5036 5.16C44.9623 5.43733 45.309 5.84267 45.5436 6.376C45.789 6.90933 45.9116 7.56533 45.9116 8.344V13H43.7676V8.552C43.7676 7.912 43.629 7.42133 43.3516 7.08C43.085 6.73867 42.669 6.568 42.1036 6.568C41.741 6.568 41.4156 6.65333 41.1276 6.824C40.8503 6.99467 40.6316 7.24 40.4716 7.56C40.3116 7.86933 40.2316 8.248 40.2316 8.696V13H38.0716ZM54.3683 13V3.544H51.0883V1.8H59.7763V3.544H56.5123V13H54.3683ZM63.6296 13.192C62.8616 13.192 62.1683 13.016 61.5496 12.664C60.9416 12.3013 60.4563 11.8053 60.0936 11.176C59.7416 10.536 59.5656 9.80533 59.5656 8.984C59.5656 8.14133 59.7416 7.40533 60.0936 6.776C60.4563 6.136 60.947 5.64 61.5656 5.288C62.1843 4.92533 62.8776 4.744 63.6456 4.744C64.4243 4.744 65.1176 4.92533 65.7256 5.288C66.3443 5.64 66.8296 6.136 67.1816 6.776C67.5443 7.40533 67.7256 8.136 67.7256 8.968C67.7256 9.8 67.5443 10.536 67.1816 11.176C66.8296 11.8053 66.3443 12.3013 65.7256 12.664C65.107 13.016 64.4083 13.192 63.6296 13.192ZM63.6296 11.32C63.9923 11.32 64.3123 11.2347 64.5896 11.064C64.8776 10.8933 65.1016 10.632 65.2616 10.28C65.4323 9.928 65.5176 9.49067 65.5176 8.968C65.5176 8.44533 65.4323 8.01333 65.2616 7.672C65.1016 7.32 64.8776 7.05867 64.5896 6.888C64.3123 6.70667 63.9976 6.616 63.6456 6.616C63.3043 6.616 62.9896 6.70667 62.7016 6.888C62.4136 7.05867 62.1843 7.32 62.0136 7.672C61.8536 8.01333 61.7736 8.44533 61.7736 8.968C61.7736 9.49067 61.8536 9.928 62.0136 10.28C62.1843 10.632 62.4083 10.8933 62.6856 11.064C62.9736 11.2347 63.2883 11.32 63.6296 11.32ZM72.5953 13.192C71.9446 13.192 71.3846 13.0587 70.9153 12.792C70.4566 12.5147 70.1046 12.1147 69.8593 11.592C69.6139 11.0587 69.4913 10.4027 69.4913 9.624V4.936H71.6513V9.4C71.6513 10.0507 71.7846 10.5413 72.0513 10.872C72.3286 11.2027 72.7499 11.368 73.3153 11.368C73.6779 11.368 73.9979 11.288 74.2753 11.128C74.5526 10.9573 74.7713 10.7173 74.9313 10.408C75.1019 10.088 75.1873 9.69867 75.1873 9.24V4.936H77.3313V13H75.4433L75.2673 11.688C75.0326 12.1467 74.6859 12.5147 74.2273 12.792C73.7686 13.0587 73.2246 13.192 72.5953 13.192ZM83.3506 13.192C82.54 13.192 81.82 13.0107 81.1906 12.648C80.5613 12.2853 80.0706 11.7893 79.7186 11.16C79.3666 10.5307 79.1906 9.81067 79.1906 9C79.1906 8.168 79.3666 7.43733 79.7186 6.808C80.0706 6.168 80.5613 5.66667 81.1906 5.304C81.82 4.93067 82.54 4.744 83.3506 4.744C84.3853 4.744 85.2546 5.016 85.9586 5.56C86.6626 6.104 87.1106 6.85067 87.3026 7.8H85.0146C84.9186 7.42667 84.716 7.13333 84.4066 6.92C84.108 6.70667 83.7506 6.6 83.3346 6.6C82.9613 6.6 82.6253 6.696 82.3266 6.888C82.0386 7.06933 81.8093 7.34133 81.6386 7.704C81.4786 8.056 81.3986 8.47733 81.3986 8.968C81.3986 9.34133 81.4466 9.67733 81.5426 9.976C81.6386 10.264 81.772 10.5147 81.9426 10.728C82.1133 10.9307 82.316 11.0853 82.5506 11.192C82.796 11.2987 83.0573 11.352 83.3346 11.352C83.612 11.352 83.8626 11.304 84.0866 11.208C84.3213 11.112 84.5186 10.9787 84.6786 10.808C84.8386 10.6267 84.9506 10.408 85.0146 10.152H87.3026C87.1106 11.08 86.6573 11.8213 85.9426 12.376C85.2386 12.92 84.3746 13.192 83.3506 13.192ZM89.1654 13V1.48H91.3254V6.136C91.592 5.70933 91.944 5.37333 92.3814 5.128C92.8294 4.872 93.3467 4.744 93.9334 4.744C94.6054 4.744 95.1707 4.888 95.6294 5.176C96.088 5.45333 96.4347 5.85867 96.6694 6.392C96.904 6.92533 97.0214 7.58667 97.0214 8.376V13H94.8774V8.568C94.8774 7.928 94.744 7.43733 94.4774 7.096C94.2107 6.744 93.7894 6.568 93.2134 6.568C92.8614 6.568 92.5414 6.65333 92.2534 6.824C91.9654 6.99467 91.736 7.24533 91.5654 7.576C91.4054 7.896 91.3254 8.28 91.3254 8.728V13H89.1654ZM115.031 3V10C115.031 10.2917 114.938 10.5312 114.75 10.7188C114.562 10.9062 114.323 11 114.031 11C113.74 11 113.5 10.9062 113.312 10.7188C113.125 10.5312 113.031 10.2917 113.031 10V5.40625L106.75 11.7188C106.542 11.9062 106.302 12 106.031 12C105.76 12 105.521 11.9062 105.312 11.7188C105.125 11.5104 105.031 11.2708 105.031 11C105.031 10.7292 105.125 10.4896 105.312 10.2812L111.625 4H107.031C106.74 4 106.5 3.90625 106.312 3.71875C106.125 3.53125 106.031 3.29167 106.031 3C106.031 2.70833 106.125 2.46875 106.312 2.28125C106.5 2.09375 106.74 2 107.031 2H114.031C114.323 2 114.562 2.09375 114.75 2.28125C114.938 2.46875 115.031 2.70833 115.031 3Z" fill="#F5F5F4"/>
<line y1="18.5" x2="116" y2="18.5" stroke="#F5F5FA"/>
</svg>
