<svg width="60" height="60" viewBox="0 0 60 60" fill="none" xmlns="http://www.w3.org/2000/svg">
<path d="M38.0483 22.2266C38.0483 22.9324 37.4867 23.5045 36.7939 23.5045H18.8148C18.1221 23.5045 17.5605 22.9324 17.5605 22.2266C17.5605 21.5208 18.1221 20.9487 18.8148 20.9487H36.7939C37.4867 20.9487 38.0483 21.5208 38.0483 22.2266Z" fill="#121212"/>
<path d="M18.8148 39.1594C18.1221 39.1594 17.5605 38.5872 17.5605 37.8814C17.5605 37.1757 18.1221 36.6035 18.8148 36.6035H26.55C27.2428 36.6035 27.8044 37.1757 27.8044 37.8814C27.8044 38.5872 27.2428 39.1594 26.55 39.1594H18.8148Z" fill="#121212"/>
<path fill-rule="evenodd" clip-rule="evenodd" d="M51.9512 19.6047C51.9512 16.2805 50.2355 13.2012 47.434 11.4972L30.7264 1.33498C27.8 -0.445009 24.1507 -0.444991 21.2243 1.33502L4.51718 11.4972C1.71566 13.2012 1.03467e-06 16.2805 8.92043e-07 19.6046L0 40.3957C-1.42625e-07 43.7199 1.71572 46.7993 4.5173 48.5033L21.2244 58.6651C24.1508 60.445 27.7999 60.445 30.7263 58.6651L47.4338 48.5033C50.2355 46.7993 51.9512 43.7199 51.9512 40.3957V31.7041H58.7456C59.4384 31.7041 60 31.1319 60 30.4261C60 29.7204 59.4384 29.1482 58.7456 29.1482H51.9512V19.6047ZM49.0244 29.1482V19.6047C49.0244 17.3302 47.8505 15.2233 45.9336 14.0574L29.2261 3.89524C27.2238 2.67736 24.7269 2.67737 22.7246 3.89527L6.01753 14.0574C4.1007 15.2233 2.92683 17.3302 2.92683 19.6046V40.3957C2.92683 42.6702 4.10074 44.7771 6.01762 45.943L22.7247 56.1048C24.727 57.3226 27.2238 57.3226 29.226 56.1048L45.9336 45.943C47.8505 44.7771 49.0244 42.6702 49.0244 40.3957V31.7041H18.8153C18.1226 31.7041 17.561 31.1319 17.561 30.4261C17.561 29.7204 18.1226 29.1482 18.8153 29.1482H49.0244Z" fill="#121212"/>
</svg>
