<svg width="43" height="56" viewBox="0 0 43 56" fill="none" xmlns="http://www.w3.org/2000/svg">
<path fill-rule="evenodd" clip-rule="evenodd" d="M19.2177 25.0386L8.42678 30.7292V40.8561L19.2177 46.5234V25.0386ZM38.4355 3.20531H43V7.47905H38.4355V13.2393H32.3261V7.50228H38.4355V3.20531ZM35.018 0H38.4355V3.20531H35.018V0ZM19.2177 15.5852L23.4311 17.7918V33.8648C22.7055 34.1435 22.1905 34.7242 22.1905 35.6533C22.1905 36.5823 23.0566 37.5579 24.11 37.5579C25.1633 37.5579 26.0294 36.5823 26.0294 35.6533C26.0294 34.7242 25.5144 34.1435 24.7888 33.8648C24.7888 26.107 24.8356 18.4421 24.8356 10.7076H30.945V24.1792C30.2194 24.4579 29.7044 25.0386 29.7044 25.9676C29.7044 26.8967 30.5705 27.8723 31.6238 27.8723C32.6772 27.8723 33.5433 26.8967 33.5433 25.9676C33.5433 25.0386 33.0283 24.4579 32.3027 24.1792V14.5865H38.4121V45.8963L28.7915 50.9598L19.1709 56L9.55035 50.9598L0 45.8963V35.7926V25.6889L9.62058 20.6255L19.2177 15.5852Z" fill="#BFF747"/>
</svg>
