<svg width="133" height="18" viewBox="0 0 133 18" fill="none" xmlns="http://www.w3.org/2000/svg">
<path d="M1.104 12V0.799999H3.68L7.104 7.792L10.496 0.799999H13.072V12H10.912V4.48L7.952 10.432H6.24L3.264 4.48V12H1.104ZM19.0359 12.192C18.2679 12.192 17.5745 12.016 16.9559 11.664C16.3479 11.3013 15.8625 10.8053 15.4999 10.176C15.1479 9.536 14.9719 8.80533 14.9719 7.984C14.9719 7.14133 15.1479 6.40533 15.4999 5.776C15.8625 5.136 16.3532 4.64 16.9719 4.288C17.5905 3.92533 18.2839 3.744 19.0519 3.744C19.8305 3.744 20.5239 3.92533 21.1319 4.288C21.7505 4.64 22.2359 5.136 22.5879 5.776C22.9505 6.40533 23.1319 7.136 23.1319 7.968C23.1319 8.8 22.9505 9.536 22.5879 10.176C22.2359 10.8053 21.7505 11.3013 21.1319 11.664C20.5132 12.016 19.8145 12.192 19.0359 12.192ZM19.0359 10.32C19.3985 10.32 19.7185 10.2347 19.9959 10.064C20.2839 9.89333 20.5079 9.632 20.6679 9.28C20.8385 8.928 20.9239 8.49067 20.9239 7.968C20.9239 7.44533 20.8385 7.01333 20.6679 6.672C20.5079 6.32 20.2839 6.05867 19.9959 5.888C19.7185 5.70667 19.4039 5.616 19.0519 5.616C18.7105 5.616 18.3959 5.70667 18.1079 5.888C17.8199 6.05867 17.5905 6.32 17.4199 6.672C17.2599 7.01333 17.1799 7.44533 17.1799 7.968C17.1799 8.49067 17.2599 8.928 17.4199 9.28C17.5905 9.632 17.8145 9.89333 18.0919 10.064C18.3799 10.2347 18.6945 10.32 19.0359 10.32ZM24.9935 12V3.936H26.9135L27.1215 5.424C27.3135 5.072 27.5535 4.77333 27.8415 4.528C28.1402 4.28267 28.4762 4.09067 28.8495 3.952C29.2335 3.81333 29.6548 3.744 30.1135 3.744V6.032H29.3775C29.0575 6.032 28.7588 6.06933 28.4815 6.144C28.2148 6.21867 27.9802 6.34133 27.7775 6.512C27.5748 6.672 27.4202 6.896 27.3135 7.184C27.2068 7.472 27.1535 7.83467 27.1535 8.272V12H24.9935ZM35.2874 12.192C34.4767 12.192 33.7567 12.0213 33.1274 11.68C32.5087 11.328 32.0234 10.8427 31.6714 10.224C31.33 9.59467 31.1594 8.86933 31.1594 8.048C31.1594 7.20533 31.33 6.464 31.6714 5.824C32.0234 5.17333 32.5087 4.66667 33.1274 4.304C33.746 3.93067 34.466 3.744 35.2874 3.744C36.0874 3.744 36.786 3.92 37.3834 4.272C37.9807 4.624 38.4447 5.09867 38.7754 5.696C39.106 6.29333 39.2714 6.97067 39.2714 7.728C39.2714 7.83467 39.2714 7.95733 39.2714 8.096C39.2714 8.224 39.2607 8.35733 39.2394 8.496H32.6954V7.184H37.0954C37.0634 6.66133 36.8767 6.25067 36.5354 5.952C36.2047 5.65333 35.7887 5.504 35.2874 5.504C34.9247 5.504 34.5887 5.58933 34.2794 5.76C33.97 5.92 33.7247 6.17067 33.5434 6.512C33.3727 6.85333 33.2874 7.28533 33.2874 7.808V8.272C33.2874 8.70933 33.3674 9.09333 33.5274 9.424C33.698 9.744 33.9327 9.99467 34.2314 10.176C34.53 10.3467 34.8767 10.432 35.2714 10.432C35.666 10.432 35.9914 10.3467 36.2474 10.176C36.514 10.0053 36.7114 9.78667 36.8394 9.52H39.0474C38.898 10.0213 38.6474 10.4747 38.2954 10.88C37.9434 11.2853 37.5114 11.6053 36.9994 11.84C36.4874 12.0747 35.9167 12.192 35.2874 12.192ZM44.102 12L48.198 0.799999H50.646L54.726 12H52.438L49.414 3.264L46.374 12H44.102ZM45.91 9.456L46.486 7.776H52.182L52.742 9.456H45.91ZM60.9178 12.192C60.5018 12.192 60.1284 12.1387 59.7977 12.032C59.4777 11.9253 59.1898 11.7813 58.9338 11.6C58.6884 11.408 58.4804 11.1947 58.3098 10.96L58.0698 12H56.1497V0.48H58.3098V5.056C58.5658 4.68267 58.9018 4.37333 59.3177 4.128C59.7444 3.872 60.2724 3.744 60.9018 3.744C61.6484 3.744 62.3098 3.93067 62.8858 4.304C63.4724 4.66667 63.9311 5.168 64.2618 5.808C64.6031 6.43733 64.7738 7.16267 64.7738 7.984C64.7738 8.784 64.6031 9.504 64.2618 10.144C63.9311 10.784 63.4778 11.2853 62.9018 11.648C62.3258 12.0107 61.6644 12.192 60.9178 12.192ZM60.4058 10.304C60.8324 10.304 61.2058 10.208 61.5258 10.016C61.8564 9.81333 62.1124 9.54133 62.2938 9.2C62.4751 8.848 62.5658 8.44267 62.5658 7.984C62.5658 7.52533 62.4751 7.12 62.2938 6.768C62.1124 6.40533 61.8564 6.128 61.5258 5.936C61.2058 5.73333 60.8324 5.632 60.4058 5.632C59.9898 5.632 59.6164 5.73333 59.2858 5.936C58.9658 6.128 58.7098 6.4 58.5178 6.752C58.3364 7.104 58.2458 7.50933 58.2458 7.968C58.2458 8.42667 58.3364 8.83733 58.5178 9.2C58.7098 9.552 58.9658 9.824 59.2858 10.016C59.6164 10.208 59.9898 10.304 60.4058 10.304ZM70.4421 12.192C69.6741 12.192 68.9808 12.016 68.3621 11.664C67.7541 11.3013 67.2688 10.8053 66.9061 10.176C66.5541 9.536 66.3781 8.80533 66.3781 7.984C66.3781 7.14133 66.5541 6.40533 66.9061 5.776C67.2688 5.136 67.7595 4.64 68.3781 4.288C68.9968 3.92533 69.6901 3.744 70.4581 3.744C71.2368 3.744 71.9301 3.92533 72.5381 4.288C73.1568 4.64 73.6421 5.136 73.9941 5.776C74.3568 6.40533 74.5381 7.136 74.5381 7.968C74.5381 8.8 74.3568 9.536 73.9941 10.176C73.6421 10.8053 73.1568 11.3013 72.5381 11.664C71.9195 12.016 71.2208 12.192 70.4421 12.192ZM70.4421 10.32C70.8048 10.32 71.1248 10.2347 71.4021 10.064C71.6901 9.89333 71.9141 9.632 72.0741 9.28C72.2448 8.928 72.3301 8.49067 72.3301 7.968C72.3301 7.44533 72.2448 7.01333 72.0741 6.672C71.9141 6.32 71.6901 6.05867 71.4021 5.888C71.1248 5.70667 70.8101 5.616 70.4581 5.616C70.1168 5.616 69.8021 5.70667 69.5141 5.888C69.2261 6.05867 68.9968 6.32 68.8261 6.672C68.6661 7.01333 68.5861 7.44533 68.5861 7.968C68.5861 8.49067 68.6661 8.928 68.8261 9.28C68.9968 9.632 69.2208 9.89333 69.4981 10.064C69.7861 10.2347 70.1008 10.32 70.4421 10.32ZM79.4078 12.192C78.7571 12.192 78.1971 12.0587 77.7278 11.792C77.2691 11.5147 76.9171 11.1147 76.6718 10.592C76.4264 10.0587 76.3038 9.40267 76.3038 8.624V3.936H78.4638V8.4C78.4638 9.05067 78.5971 9.54133 78.8638 9.872C79.1411 10.2027 79.5624 10.368 80.1278 10.368C80.4904 10.368 80.8104 10.288 81.0878 10.128C81.3651 9.95733 81.5838 9.71733 81.7438 9.408C81.9144 9.088 81.9998 8.69867 81.9998 8.24V3.936H84.1438V12H82.2558L82.0798 10.688C81.8451 11.1467 81.4984 11.5147 81.0398 11.792C80.5811 12.0587 80.0371 12.192 79.4078 12.192ZM89.8911 12C89.3258 12 88.8298 11.9147 88.4031 11.744C87.9871 11.5627 87.6618 11.2693 87.4271 10.864C87.1925 10.448 87.0751 9.88267 87.0751 9.168V5.744H85.6991V3.936H87.0751L87.3151 1.744H89.2351V3.936H91.3631V5.744H89.2351V9.2C89.2351 9.56267 89.3151 9.81333 89.4751 9.952C89.6351 10.0907 89.9071 10.16 90.2911 10.16H91.3471V12H89.8911ZM101.331 12.192C100.509 12.192 99.7626 12.0267 99.0906 11.696C98.4186 11.3653 97.8853 10.8693 97.4906 10.208C97.096 9.54667 96.8986 8.704 96.8986 7.68V0.799999H99.0586V7.696C99.0586 8.25067 99.1493 8.72 99.3306 9.104C99.512 9.47733 99.7733 9.75467 100.115 9.936C100.467 10.1173 100.883 10.208 101.363 10.208C101.853 10.208 102.269 10.1173 102.611 9.936C102.963 9.75467 103.229 9.47733 103.411 9.104C103.592 8.72 103.683 8.25067 103.683 7.696V0.799999H105.843V7.68C105.843 8.704 105.64 9.54667 105.235 10.208C104.829 10.8693 104.28 11.3653 103.587 11.696C102.904 12.0267 102.152 12.192 101.331 12.192ZM111.196 12.192C110.46 12.192 109.82 12.0747 109.276 11.84C108.732 11.6053 108.305 11.28 107.996 10.864C107.686 10.448 107.51 9.97867 107.468 9.456H109.612C109.665 9.65867 109.756 9.84533 109.884 10.016C110.012 10.176 110.182 10.304 110.396 10.4C110.609 10.496 110.865 10.544 111.164 10.544C111.452 10.544 111.686 10.5067 111.868 10.432C112.049 10.3467 112.182 10.2347 112.268 10.096C112.364 9.95733 112.412 9.81333 112.412 9.664C112.412 9.44 112.348 9.26933 112.22 9.152C112.092 9.024 111.905 8.92267 111.66 8.848C111.414 8.77333 111.116 8.69867 110.764 8.624C110.38 8.54933 110.001 8.45867 109.628 8.352C109.265 8.23467 108.94 8.09067 108.652 7.92C108.364 7.74933 108.134 7.53067 107.964 7.264C107.793 6.99733 107.708 6.66667 107.708 6.272C107.708 5.792 107.836 5.36533 108.092 4.992C108.348 4.608 108.721 4.304 109.212 4.08C109.702 3.856 110.294 3.744 110.988 3.744C111.958 3.744 112.726 3.96267 113.292 4.4C113.857 4.83733 114.193 5.44 114.3 6.208H112.268C112.204 5.96267 112.06 5.77067 111.836 5.632C111.622 5.48267 111.334 5.408 110.972 5.408C110.588 5.408 110.294 5.47733 110.092 5.616C109.889 5.75467 109.788 5.936 109.788 6.16C109.788 6.30933 109.852 6.44267 109.98 6.56C110.118 6.67733 110.31 6.77867 110.556 6.864C110.801 6.93867 111.1 7.01333 111.452 7.088C112.07 7.216 112.614 7.36533 113.084 7.536C113.553 7.696 113.921 7.93067 114.188 8.24C114.454 8.53867 114.588 8.976 114.588 9.552C114.588 10.064 114.449 10.5227 114.172 10.928C113.894 11.3227 113.5 11.632 112.988 11.856C112.486 12.08 111.889 12.192 111.196 12.192ZM132.391 2V9C132.391 9.29167 132.297 9.53125 132.109 9.71875C131.922 9.90625 131.682 10 131.391 10C131.099 10 130.859 9.90625 130.672 9.71875C130.484 9.53125 130.391 9.29167 130.391 9V4.40625L124.109 10.7188C123.901 10.9062 123.661 11 123.391 11C123.12 11 122.88 10.9062 122.672 10.7188C122.484 10.5104 122.391 10.2708 122.391 10C122.391 9.72917 122.484 9.48958 122.672 9.28125L128.984 3H124.391C124.099 3 123.859 2.90625 123.672 2.71875C123.484 2.53125 123.391 2.29167 123.391 2C123.391 1.70833 123.484 1.46875 123.672 1.28125C123.859 1.09375 124.099 1 124.391 1H131.391C131.682 1 131.922 1.09375 132.109 1.28125C132.297 1.46875 132.391 1.70833 132.391 2Z" fill="#F5F5F4"/>
<line y1="17.5" x2="133" y2="17.5" stroke="#F5F5F4"/>
</svg>
